<?xml version="1.0" encoding="UTF-8" standalone="no"?>
<!-- Created with Inkscape (http://www.inkscape.org/) -->

<svg
   xmlns:dc="http://purl.org/dc/elements/1.1/"
   xmlns:cc="http://creativecommons.org/ns#"
   xmlns:rdf="http://www.w3.org/1999/02/22-rdf-syntax-ns#"
   xmlns:svg="http://www.w3.org/2000/svg"
   xmlns="http://www.w3.org/2000/svg"
   xmlns:sodipodi="http://sodipodi.sourceforge.net/DTD/sodipodi-0.dtd"
   xmlns:inkscape="http://www.inkscape.org/namespaces/inkscape"
   width="744.09448819"
   height="1052.3622047"
   id="svg3091"
   version="1.1"
   inkscape:version="0.48.4 r9939"
   sodipodi:docname="New document 3">
  <defs
     id="defs3093" />
  <sodipodi:namedview
     id="base"
     pagecolor="#ffffff"
     bordercolor="#666666"
     borderopacity="1.0"
     inkscape:pageopacity="0.0"
     inkscape:pageshadow="2"
     inkscape:zoom="0.98994949"
     inkscape:cx="181.63097"
     inkscape:cy="691.98534"
     inkscape:document-units="px"
     inkscape:current-layer="layer1"
     showgrid="false"
     inkscape:window-width="1166"
     inkscape:window-height="933"
     inkscape:window-x="0"
     inkscape:window-y="24"
     inkscape:window-maximized="0" />
  <metadata
     id="metadata3096">
    <rdf:RDF>
      <cc:Work
         rdf:about="">
        <dc:format>image/svg+xml</dc:format>
        <dc:type
           rdf:resource="http://purl.org/dc/dcmitype/StillImage" />
        <dc:title></dc:title>
      </cc:Work>
    </rdf:RDF>
  </metadata>
  <g
     inkscape:label="Layer 1"
     inkscape:groupmode="layer"
     id="layer1">
    <path
       id="path4251"
       inkscape:label="part"
       style="fill:none;stroke:#000000;stroke-width:0.07127652"
       d="m 12.571348,28.983939 68.080813,0 0,0.05689 67.267099,0 0,-0.05689 68.08081,0"
       inkscape:connector-curvature="0" />
    <path
       id="path4253"
       inkscape:label="part"
       style="fill:none;stroke:#000000;stroke-width:0.07120542"
       d="m 203.87828,16.862073 0,46.832279 -0.057,0 0,46.021198 0.057,0 0,47.10264 -0.057,0 0,46.0212 0.057,0 0,47.10264 -0.057,0 0,46.0212 0.057,0 0,47.10264 -0.057,0 0,46.0212 0.057,0 0,47.10264 -0.057,0 0,46.0212 0.057,0 0,47.10264 -0.057,0 0,46.02123 0.057,0 0,47.10264 -0.057,0 0,46.0212 0.057,0 0,46.83228"
       inkscape:connector-curvature="0" />
    <path
       id="path4255"
       inkscape:label="part"
       style="fill:none;stroke:#000000;stroke-width:0.07127652"
       d="m 216.00007,703.16903 -68.08081,0 0,-0.0569 -67.267099,0 0,0.0569 -68.080813,0"
       inkscape:connector-curvature="0" />
    <path
       id="path4257"
       inkscape:label="part"
       style="fill:none;stroke:#000000;stroke-width:0.07120542"
       d="m 24.693143,715.2909 0,-46.83228 0.05696,0 0,-46.0212 -0.05696,0 0,-47.10264 0.05696,0 0,-46.02123 -0.05696,0 0,-47.10264 0.05696,0 0,-46.0212 -0.05696,0 0,-47.10264 0.05696,0 0,-46.0212 -0.05696,0 0,-47.10264 0.05696,0 0,-46.0212 -0.05696,0 0,-47.10264 0.05696,0 0,-46.0212 -0.05696,0 0,-47.10264 0.05696,0 0,-46.021198 -0.05696,0 0,-46.832279"
       inkscape:connector-curvature="0" />
    <path
       sodipodi:type="arc"
       id="path5255"
       sodipodi:cx="-158.59395"
       sodipodi:cy="308.88992"
       sodipodi:rx="18.182745"
       sodipodi:ry="16.162441"
       d="m -140.4112,308.88992 a 18.182745,16.162441 0 1 1 -36.36549,0 18.182745,16.162441 0 1 1 36.36549,0 z"
       transform="matrix(0.90137042,0,0,1.0140416,255.12018,-177.64553)"
       style="fill:none;stroke:#000000;stroke-width:1.01587307;stroke-miterlimit:4;stroke-opacity:1;stroke-dasharray:none;marker-start:none" />
    <path
       sodipodi:type="arc"
       id="path5255-8"
       sodipodi:cx="-158.59395"
       sodipodi:cy="308.88992"
       sodipodi:rx="18.182745"
       sodipodi:ry="16.162441"
       d="m -140.4112,308.88992 a 18.182745,16.162441 0 1 1 -36.36549,0 18.182745,16.162441 0 1 1 36.36549,0 z"
       transform="matrix(1.502284,0,0,1.6900694,350.42144,77.69647)"
       style="fill:none;stroke:#000000;stroke-width:1.01587307;stroke-miterlimit:4;stroke-opacity:1;stroke-dasharray:none;marker-start:none" />
    <path
       sodipodi:type="arc"
       style="fill:none;stroke:#000000;stroke-width:1.61515141;stroke-linecap:butt;stroke-linejoin:miter;stroke-miterlimit:4;stroke-opacity:1;stroke-dasharray:none"
       id="path4335-1-9"
       sodipodi:cx="83.842659"
       sodipodi:cy="73.524368"
       sodipodi:rx="18.182745"
       sodipodi:ry="17.172594"
       d="m 102.0254,73.524368 a 18.182745,17.172594 0 1 1 -36.365486,0 18.182745,17.172594 0 1 1 36.365486,0 z"
       transform="matrix(0.60169306,0,0,0.63708671,61.72074,178.51147)" />
    <path
       sodipodi:type="arc"
       style="fill:none;stroke:#000000;stroke-width:1.61515141;stroke-linecap:butt;stroke-linejoin:miter;stroke-miterlimit:4;stroke-opacity:1;stroke-dasharray:none"
       id="path4335-1"
       sodipodi:cx="83.842659"
       sodipodi:cy="73.524368"
       sodipodi:rx="18.182745"
       sodipodi:ry="17.172594"
       d="m 102.0254,73.524368 a 18.182745,17.172594 0 1 1 -36.365486,0 18.182745,17.172594 0 1 1 36.365486,0 z"
       transform="matrix(0.60169306,0,0,0.63708671,61.72074,271.14047)" />
    <path
       sodipodi:type="arc"
       style="fill:none;stroke:#000000;stroke-width:1.61515141;stroke-linecap:butt;stroke-linejoin:miter;stroke-miterlimit:4;stroke-opacity:1;stroke-dasharray:none"
       id="path4335"
       sodipodi:cx="83.842659"
       sodipodi:cy="73.524368"
       sodipodi:rx="18.182745"
       sodipodi:ry="17.172594"
       d="m 102.0254,73.524368 a 18.182745,17.172594 0 1 1 -36.365486,0 18.182745,17.172594 0 1 1 36.365486,0 z"
       transform="matrix(0.60169306,0,0,0.63708671,61.72074,365.45147)" />
  </g>
</svg>
