<?xml version="1.0" encoding="UTF-8" standalone="no"?>
<!-- Created with Inkscape (http://www.inkscape.org/) -->

<svg
   xmlns:dc="http://purl.org/dc/elements/1.1/"
   xmlns:cc="http://creativecommons.org/ns#"
   xmlns:rdf="http://www.w3.org/1999/02/22-rdf-syntax-ns#"
   xmlns:svg="http://www.w3.org/2000/svg"
   xmlns="http://www.w3.org/2000/svg"
   xmlns:sodipodi="http://sodipodi.sourceforge.net/DTD/sodipodi-0.dtd"
   xmlns:inkscape="http://www.inkscape.org/namespaces/inkscape"
   sodipodi:docname="scan-control.dxf"
   inkscape:version="0.48.4 r9939"
   version="1.1"
   id="svg2"
   height="905.3125"
   width="962.875">
  <sodipodi:namedview
     id="base"
     pagecolor="#ffffff"
     bordercolor="#666666"
     borderopacity="1.0"
     inkscape:pageopacity="0.0"
     inkscape:pageshadow="2"
     inkscape:zoom="0.7"
     inkscape:cx="644.46975"
     inkscape:cy="536.02587"
     inkscape:document-units="px"
     inkscape:current-layer="svg2"
     showgrid="false"
     inkscape:window-width="1920"
     inkscape:window-height="1030"
     inkscape:window-x="0"
     inkscape:window-y="0"
     inkscape:window-maximized="1"
     showguides="true"
     inkscape:guide-bbox="true"
     fit-margin-top="0"
     fit-margin-left="0"
     fit-margin-right="0"
     fit-margin-bottom="0" />
  <defs
     id="defs4" />
  <metadata
     id="metadata7">
    <rdf:RDF>
      <cc:Work
         rdf:about="">
        <dc:format>image/svg+xml</dc:format>
        <dc:type
           rdf:resource="http://purl.org/dc/dcmitype/StillImage" />
        <dc:title></dc:title>
      </cc:Work>
    </rdf:RDF>
  </metadata>
  <g
     id="layer1"
     inkscape:groupmode="layer"
     inkscape:label="Layer 1"
     transform="translate(-5.125,-5.125)" />
  <g
     id="g3038"
     inkscape:groupmode="layer"
     inkscape:label="newlayer"
     transform="translate(-5.125,-5.125)" />
  <g
     inkscape:label="newlayer"
     inkscape:groupmode="layer"
     id="g3122"
     transform="translate(-5.125,-5.125)" />
  <g
     id="g3232"
     inkscape:groupmode="layer"
     inkscape:label="newlayer"
     transform="translate(-5.125,-5.125)" />
  <g
     inkscape:label="newlayer"
     inkscape:groupmode="layer"
     id="g3344"
     transform="translate(-5.125,-5.125)" />
  <g
     id="g3434"
     inkscape:groupmode="layer"
     inkscape:label="newlayer"
     transform="translate(-5.125,-5.125)" />
  <g
     inkscape:label="newlayer"
     inkscape:groupmode="layer"
     id="g3526"
     transform="translate(-5.125,-5.125)" />
  <g
     id="g3620"
     inkscape:groupmode="layer"
     inkscape:label="newlayer"
     transform="translate(-5.125,-5.125)" />
  <g
     inkscape:label="newlayer"
     inkscape:groupmode="layer"
     id="g4127"
     transform="translate(-5.125,-5.125)" />
  <g
     id="g4249"
     inkscape:groupmode="layer"
     inkscape:label="newlayer"
     transform="translate(-5.125,-5.125)" />
  <path
     id="path4251"
     inkscape:label="part"
     style="fill:none;stroke:#000000"
     d="m 0.5,0.5 67.77,0 0,11.25 66.96,0 0,-11.25 67.77,0"
     inkscape:connector-curvature="0" />
  <path
     id="path4253"
     inkscape:label="part"
     style="fill:none;stroke:#000000"
     d="m 203,0.5 0,46.77 -11.25,0 0,45.96 11.25,0 0,47.04 -11.25,0 0,45.96 11.25,0 0,47.04 -11.25,0 0,45.96 11.25,0 0,47.04 -11.25,0 0,45.96 11.25,0 0,47.04 -11.25,0 0,45.96 11.25,0 0,47.04 -11.25,0 0,45.96 11.25,0 0,47.04 -11.25,0 0,45.96 11.25,0 0,46.77"
     inkscape:connector-curvature="0" />
  <path
     id="path4255"
     inkscape:label="part"
     style="fill:none;stroke:#000000"
     d="m 203,698 -67.77,0 0,-11.25 -66.96,0 0,11.25 -67.77,0"
     inkscape:connector-curvature="0" />
  <path
     id="path4257"
     inkscape:label="part"
     style="fill:none;stroke:#000000"
     d="m 0.5,698 0,-46.77 11.25,0 0,-45.96 -11.25,0 0,-47.04 11.25,0 0,-45.96 -11.25,0 0,-47.04 11.25,0 0,-45.96 -11.25,0 0,-47.04 11.25,0 0,-45.96 -11.25,0 0,-47.04 11.25,0 0,-45.96 -11.25,0 0,-47.04 11.25,0 0,-45.96 -11.25,0 0,-47.04 11.25,0 0,-45.96 -11.25,0 0,-46.77"
     inkscape:connector-curvature="0" />
  <path
     id="path4259"
     inkscape:label="part"
     style="fill:none;stroke:#000000"
     d="m 208.625,0.5 67.77,0 0,11.25 66.96,0 0,-11.25 67.77,0"
     inkscape:connector-curvature="0" />
  <path
     id="path4261"
     inkscape:label="part"
     style="fill:none;stroke:#000000"
     d="m 411.125,0.5 0,46.77 -11.25,0 0,45.96 11.25,0 0,47.04 -11.25,0 0,45.96 11.25,0 0,47.04 -11.25,0 0,45.96 11.25,0 0,47.04 -11.25,0 0,45.96 11.25,0 0,47.04 -11.25,0 0,45.96 11.25,0 0,47.04 -11.25,0 0,45.96 11.25,0 0,47.04 -11.25,0 0,45.96 11.25,0 0,46.77"
     inkscape:connector-curvature="0" />
  <path
     id="path4263"
     inkscape:label="part"
     style="fill:none;stroke:#000000"
     d="m 411.125,698 -67.77,0 0,-11.25 -66.96,0 0,11.25 -67.77,0"
     inkscape:connector-curvature="0" />
  <path
     id="path4265"
     inkscape:label="part"
     style="fill:none;stroke:#000000"
     d="m 208.625,698 0,-46.77 11.25,0 0,-45.96 -11.25,0 0,-47.04 11.25,0 0,-45.96 -11.25,0 0,-47.04 11.25,0 0,-45.96 -11.25,0 0,-47.04 11.25,0 0,-45.96 -11.25,0 0,-47.04 11.25,0 0,-45.96 -11.25,0 0,-47.04 11.25,0 0,-45.96 -11.25,0 0,-47.04 11.25,0 0,-45.96 -11.25,0 0,-46.77"
     inkscape:connector-curvature="0" />
  <path
     id="path4267"
     inkscape:label="part"
     style="fill:none;stroke:#000000"
     d="m 428,0.5 43.02,0 0,11.25 53.46,0 0,-11.25 54.54,0 0,11.25 53.46,0 0,-11.25 43.02,0"
     inkscape:connector-curvature="0" />
  <path
     id="path4269"
     inkscape:label="part"
     style="fill:none;stroke:#000000"
     d="m 675.5,0.5 0,46.23 11.25,0 0,47.04 -11.25,0 0,45.96 11.25,0 0,47.04 -11.25,0 0,45.96 11.25,0 0,47.04 -11.25,0 0,45.96 11.25,0 0,47.04 -11.25,0 0,45.96 11.25,0 0,47.04 -11.25,0 0,45.96 11.25,0 0,47.04 -11.25,0 0,45.96 11.25,0 0,47.04 -11.25,0 0,46.23"
     inkscape:connector-curvature="0" />
  <path
     id="path4271"
     inkscape:label="part"
     style="fill:none;stroke:#000000"
     d="m 675.5,698 -43.02,0 0,-11.25 -53.46,0 0,11.25 -54.54,0 0,-11.25 -53.46,0 0,11.25 -43.02,0"
     inkscape:connector-curvature="0" />
  <path
     id="path4273"
     inkscape:label="part"
     style="fill:none;stroke:#000000"
     d="m 428,698 0,-46.23 -11.25,0 0,-47.04 11.25,0 0,-45.96 -11.25,0 0,-47.04 11.25,0 0,-45.96 -11.25,0 0,-47.04 11.25,0 0,-45.96 -11.25,0 0,-47.04 11.25,0 0,-45.96 -11.25,0 0,-47.04 11.25,0 0,-45.96 -11.25,0 0,-47.04 11.25,0 0,-45.96 -11.25,0 0,-47.04 11.25,0 0,-46.23"
     inkscape:connector-curvature="0" />
  <path
     id="path4275"
     inkscape:label="part"
     style="fill:none;stroke:#000000"
     d="m 703.625,0.5 43.02,0 0,11.25 53.46,0 0,-11.25 54.54,0 0,11.25 53.46,0 0,-11.25 43.02,0"
     inkscape:connector-curvature="0" />
  <path
     id="path4277"
     inkscape:label="part"
     style="fill:none;stroke:#000000"
     d="m 951.125,0.5 0,46.23 11.25,0 0,47.04 -11.25,0 0,45.96 11.25,0 0,47.04 -11.25,0 0,45.96 11.25,0 0,47.04 -11.25,0 0,45.96 11.25,0 0,47.04 -11.25,0 0,45.96 11.25,0 0,47.04 -11.25,0 0,45.96 11.25,0 0,47.04 -11.25,0 0,45.96 11.25,0 0,47.04 -11.25,0 0,46.23"
     inkscape:connector-curvature="0" />
  <path
     id="path4279"
     inkscape:label="part"
     style="fill:none;stroke:#000000"
     d="m 951.125,698 -43.02,0 0,-11.25 -53.46,0 0,11.25 -54.54,0 0,-11.25 -53.46,0 0,11.25 -43.02,0"
     inkscape:connector-curvature="0" />
  <path
     id="path4281"
     inkscape:label="part"
     style="fill:none;stroke:#000000"
     d="m 703.625,698 0,-46.23 -11.25,0 0,-47.04 11.25,0 0,-45.96 -11.25,0 0,-47.04 11.25,0 0,-45.96 -11.25,0 0,-47.04 11.25,0 0,-45.96 -11.25,0 0,-47.04 11.25,0 0,-45.96 -11.25,0 0,-47.04 11.25,0 0,-45.96 -11.25,0 0,-47.04 11.25,0 0,-45.96 -11.25,0 0,-47.04 11.25,0 0,-46.23"
     inkscape:connector-curvature="0" />
  <text
     xml:space="preserve"
     style="font-size:40px;font-style:normal;font-weight:normal;line-height:125%;letter-spacing:0px;word-spacing:0px;fill:#000000;fill-opacity:1;stroke:none;font-family:Sans"
     x="-36.439728"
     y="338.11011"
     id="text5473"
     sodipodi:linespacing="125%"><tspan
       sodipodi:role="line"
       id="tspan5475"
       x="-36.439728"
       y="338.11011" /></text>
  <path
     sodipodi:type="arc"
     id="path5255"
     sodipodi:cx="-158.59395"
     sodipodi:cy="308.88992"
     sodipodi:rx="18.182745"
     sodipodi:ry="16.162441"
     d="m -140.4112,308.88992 a 18.182745,16.162441 0 1 1 -36.36549,0 18.182745,16.162441 0 1 1 36.36549,0 z"
     transform="matrix(0.90137042,0,0,1.0140416,242.58447,-194.47197)"
     style="fill:none;stroke:#000000;stroke-width:1.01587307;stroke-miterlimit:4;stroke-opacity:1;stroke-dasharray:none;marker-start:none" />
  <path
     sodipodi:type="arc"
     id="path5255-8"
     sodipodi:cx="-158.59395"
     sodipodi:cy="308.88992"
     sodipodi:rx="18.182745"
     sodipodi:ry="16.162441"
     d="m -140.4112,308.88992 a 18.182745,16.162441 0 1 1 -36.36549,0 18.182745,16.162441 0 1 1 36.36549,0 z"
     transform="matrix(1.502284,0,0,1.6900694,337.88573,60.870348)"
     style="fill:none;stroke:#000000;stroke-width:1.01587307;stroke-miterlimit:4;stroke-opacity:1;stroke-dasharray:none;marker-start:none" />
  <path
     sodipodi:type="arc"
     style="fill:none;stroke:#000000;stroke-width:1.61515141;stroke-linecap:butt;stroke-linejoin:miter;stroke-miterlimit:4;stroke-opacity:1;stroke-dasharray:none"
     id="path4335-1-9"
     sodipodi:cx="83.842659"
     sodipodi:cy="73.524368"
     sodipodi:rx="18.182745"
     sodipodi:ry="17.172594"
     d="m 102.0254,73.524368 a 18.182745,17.172594 0 1 1 -36.365486,0 18.182745,17.172594 0 1 1 36.365486,0 z"
     transform="matrix(0.60169306,0,0,0.63708671,49.185029,161.685)" />
  <path
     sodipodi:type="arc"
     style="fill:none;stroke:#000000;stroke-width:1.61515141;stroke-linecap:butt;stroke-linejoin:miter;stroke-miterlimit:4;stroke-opacity:1;stroke-dasharray:none"
     id="path4335-1"
     sodipodi:cx="83.842659"
     sodipodi:cy="73.524368"
     sodipodi:rx="18.182745"
     sodipodi:ry="17.172594"
     d="m 102.0254,73.524368 a 18.182745,17.172594 0 1 1 -36.365486,0 18.182745,17.172594 0 1 1 36.365486,0 z"
     transform="matrix(0.60169306,0,0,0.63708671,49.185029,254.31446)" />
  <path
     sodipodi:type="arc"
     style="fill:none;stroke:#000000;stroke-width:1.61515141;stroke-linecap:butt;stroke-linejoin:miter;stroke-miterlimit:4;stroke-opacity:1;stroke-dasharray:none"
     id="path4335"
     sodipodi:cx="83.842659"
     sodipodi:cy="73.524368"
     sodipodi:rx="18.182745"
     sodipodi:ry="17.172594"
     d="m 102.0254,73.524368 a 18.182745,17.172594 0 1 1 -36.365486,0 18.182745,17.172594 0 1 1 36.365486,0 z"
     transform="matrix(0.60169306,0,0,0.63708671,49.185029,348.62547)" />
  <text
     xml:space="preserve"
     style="font-size:40px;font-style:normal;font-weight:normal;line-height:125%;letter-spacing:0px;word-spacing:0px;fill:#000000;fill-opacity:1;stroke:none;font-family:Sans"
     x="-61.55357"
     y="330.09433"
     id="text5687"
     sodipodi:linespacing="125%"><tspan
       sodipodi:role="line"
       id="tspan5689"
       x="-61.55357"
       y="330.09433" /></text>
  <g
     id="g3053"
     transform="matrix(0,1,-1,0,553.9375,-270.9375)">
    <path
       d="m 984.375,16.875 55.98,0 0,-11.25 68.04,0 0,11.25 55.98,0"
       style="fill:none;stroke:#000000"
       inkscape:label="part"
       id="path4283"
       inkscape:connector-curvature="0" />
    <path
       d="m 1164.375,264.375 -55.98,0 0,11.25 -68.04,0 0,-11.25 -55.98,0"
       style="fill:none;stroke:#000000"
       inkscape:label="part"
       id="path4287"
       inkscape:connector-curvature="0" />
    <path
       d="m 984.375,264.375 0,-42.48 -11.25,0 0,-54.54 11.25,0 0,-53.46 -11.25,0 0,-54.54 11.25,0 0,-42.48"
       style="fill:none;stroke:#000000"
       inkscape:label="part"
       id="path4289"
       inkscape:connector-curvature="0" />
    <path
       d="m 1164.375,16.875 0,42.48 11.25,0 0,54.54 -11.25,0 0,53.46 11.25,0 0,54.54 -11.25,0 0,42.48"
       style="fill:none;stroke:#000000"
       inkscape:label="part"
       id="path4285"
       inkscape:connector-curvature="0" />
    <path
       d="m 984.5,292.875 55.98,0 0,-11.25 68.04,0 0,11.25 55.98,0"
       style="fill:none;stroke:#000000"
       inkscape:label="part"
       id="path4291"
       inkscape:connector-curvature="0" />
    <path
       d="m 1164.5,292.875 0,42.48 11.25,0 0,54.54 -11.25,0 0,53.46 11.25,0 0,54.54 -11.25,0 0,42.48"
       style="fill:none;stroke:#000000"
       inkscape:label="part"
       id="path4293"
       inkscape:connector-curvature="0" />
    <path
       d="m 1164.5,540.375 -55.98,0 0,11.25 -68.04,0 0,-11.25 -55.98,0"
       style="fill:none;stroke:#000000"
       inkscape:label="part"
       id="path4295"
       inkscape:connector-curvature="0" />
    <path
       d="m 984.5,540.375 0,-42.48 -11.25,0 0,-54.54 11.25,0 0,-53.46 -11.25,0 0,-54.54 11.25,0 0,-42.48"
       style="fill:none;stroke:#000000"
       inkscape:label="part"
       id="path4297"
       inkscape:connector-curvature="0" />
    <path
       sodipodi:nodetypes="ccccc"
       inkscape:connector-curvature="0"
       id="path3052"
       d="m 1006.4548,16.801555 c -0.072,7.32095 0.043,4.670735 0.1702,6.979695 0.2381,7.575995 15.1858,7.838517 15.1275,0.127061 -0.105,-7.265589 0.018,-1.481309 -0.1913,-7.235563 -1.0364,0.03096 -0.3166,0.128807 -15.1064,0.128807 z"
       style="font-size:medium;font-style:normal;font-variant:normal;font-weight:normal;font-stretch:normal;text-indent:0;text-align:start;text-decoration:none;line-height:normal;letter-spacing:normal;word-spacing:normal;text-transform:none;direction:ltr;block-progression:tb;writing-mode:lr-tb;text-anchor:start;baseline-shift:baseline;color:#000000;fill:none;stroke:#000000;stroke-width:1px;stroke-opacity:1;marker:none;visibility:visible;display:inline;overflow:visible;enable-background:accumulate;font-family:Sans;-inkscape-font-specification:Sans" />
  </g>
  <g
     inkscape:groupmode="layer"
     id="layer2"
     inkscape:label="labels"
     style="display:inline"
     sodipodi:insensitive="true"
     transform="translate(-5.125,-5.125)">
    <g
       id="g3908">
      <path
         sodipodi:nodetypes="cc"
         inkscape:connector-curvature="0"
         id="path5156"
         d="m 104.75758,123.75655 0,-32.778944"
         style="fill:none;stroke:#000000;stroke-width:0.296;stroke-linecap:butt;stroke-linejoin:miter;stroke-miterlimit:4;stroke-opacity:1;stroke-dasharray:none" />
      <text
         sodipodi:linespacing="125%"
         id="text5158"
         y="87.463074"
         x="119.08775"
         style="font-size:12px;font-style:normal;font-variant:normal;font-weight:normal;font-stretch:normal;text-align:start;line-height:125%;letter-spacing:0px;word-spacing:0px;writing-mode:lr-tb;text-anchor:start;fill:#000000;fill-opacity:1;stroke:none;font-family:Droid Serif;-inkscape-font-specification:Droid Serif"
         xml:space="preserve"><tspan
           y="87.463074"
           x="119.08775"
           id="tspan5160"
           sodipodi:role="line">a4</tspan></text>
      <text
         sodipodi:linespacing="125%"
         id="text5158-3"
         y="102.67291"
         x="138.28505"
         style="font-size:12px;font-style:normal;font-variant:normal;font-weight:normal;font-stretch:normal;text-align:start;line-height:125%;letter-spacing:0px;word-spacing:0px;writing-mode:lr-tb;text-anchor:start;fill:#000000;fill-opacity:1;stroke:none;font-family:Droid Serif;-inkscape-font-specification:Droid Serif"
         xml:space="preserve"><tspan
           y="102.67291"
           x="138.28505"
           id="tspan5160-5"
           sodipodi:role="line">lgl</tspan></text>
      <path
         sodipodi:nodetypes="cc"
         inkscape:connector-curvature="0"
         id="path5156-1"
         d="M 104.96912,123.55726 120.70847,94.459882"
         style="fill:none;stroke:#000000;stroke-width:0.296;stroke-linecap:butt;stroke-linejoin:miter;stroke-miterlimit:4;stroke-opacity:1;stroke-dasharray:none" />
      <path
         sodipodi:nodetypes="cc"
         inkscape:connector-curvature="0"
         id="path5156-1-3"
         d="m 105.54118,123.7693 26.71706,-17.65216"
         style="fill:none;stroke:#000000;stroke-width:0.296;stroke-linecap:butt;stroke-linejoin:miter;stroke-miterlimit:4;stroke-opacity:1;stroke-dasharray:none" />
      <path
         sodipodi:nodetypes="cc"
         inkscape:connector-curvature="0"
         id="path5156-1-3-3"
         d="m 104.78308,123.88027 32.27387,-10e-6"
         style="fill:none;stroke:#000000;stroke-width:0.296;stroke-linecap:butt;stroke-linejoin:miter;stroke-miterlimit:4;stroke-opacity:1;stroke-dasharray:none" />
      <text
         sodipodi:linespacing="125%"
         id="text5158-3-8"
         y="126.27362"
         x="144.99884"
         style="font-size:12px;font-style:normal;font-variant:normal;font-weight:normal;font-stretch:normal;text-align:start;line-height:125%;letter-spacing:0px;word-spacing:0px;writing-mode:lr-tb;text-anchor:start;fill:#000000;fill-opacity:1;stroke:none;font-family:Droid Serif;-inkscape-font-specification:Droid Serif"
         xml:space="preserve"><tspan
           y="126.27362"
           x="144.99884"
           id="tspan5160-5-0"
           sodipodi:role="line">max</tspan></text>
      <text
         sodipodi:linespacing="125%"
         id="text5158-3-4"
         y="81.986794"
         x="97.625732"
         style="font-size:12px;font-style:normal;font-variant:normal;font-weight:normal;font-stretch:normal;text-align:start;line-height:125%;letter-spacing:0px;word-spacing:0px;writing-mode:lr-tb;text-anchor:start;fill:#000000;fill-opacity:1;stroke:none;font-family:Droid Serif;-inkscape-font-specification:Droid Serif"
         xml:space="preserve"><tspan
           y="81.986794"
           x="97.625732"
           id="tspan5160-5-5"
           sodipodi:role="line">ltr</tspan></text>
    </g>
    <g
       id="g3922">
      <path
         inkscape:connector-curvature="0"
         id="path5565"
         d="m 71.155337,214.00363 67.204473,-0.70446"
         style="fill:none;stroke:#000000;stroke-width:0.29552579px;stroke-linecap:butt;stroke-linejoin:miter;stroke-opacity:1" />
      <text
         sodipodi:linespacing="125%"
         id="text5158-3-8-3"
         y="216.83011"
         x="145.17462"
         style="font-size:12px;font-style:normal;font-variant:normal;font-weight:normal;font-stretch:normal;text-align:start;line-height:125%;letter-spacing:0px;word-spacing:0px;writing-mode:lr-tb;text-anchor:start;fill:#000000;fill-opacity:1;stroke:none;font-family:Droid Serif;-inkscape-font-specification:Droid Serif"
         xml:space="preserve"><tspan
           y="216.83011"
           x="145.17462"
           id="tspan5160-5-0-2"
           sodipodi:role="line">pdf</tspan></text>
      <text
         sodipodi:linespacing="125%"
         id="text5158-3-8-3-8"
         y="216.76859"
         x="46.44046"
         style="font-size:12px;font-style:normal;font-variant:normal;font-weight:normal;font-stretch:normal;text-align:start;line-height:125%;letter-spacing:0px;word-spacing:0px;writing-mode:lr-tb;text-anchor:start;fill:#000000;fill-opacity:1;stroke:none;font-family:Droid Serif;-inkscape-font-specification:Droid Serif"
         xml:space="preserve"><tspan
           y="216.76859"
           x="46.44046"
           id="tspan5160-5-0-2-3"
           sodipodi:role="line">jpg</tspan></text>
    </g>
    <g
       id="g3929">
      <path
         sodipodi:nodetypes="cc"
         inkscape:connector-curvature="0"
         id="path5565-2"
         d="m 105.05696,306.63309 34.34733,-0.70446"
         style="fill:none;stroke:#000000;stroke-width:0.29552579px;stroke-linecap:butt;stroke-linejoin:miter;stroke-opacity:1" />
      <text
         sodipodi:linespacing="125%"
         id="text5158-3-8-3-3"
         y="309.39804"
         x="144.67072"
         style="font-size:12px;font-style:normal;font-variant:normal;font-weight:normal;font-stretch:normal;text-align:start;line-height:125%;letter-spacing:0px;word-spacing:0px;writing-mode:lr-tb;text-anchor:start;fill:#000000;fill-opacity:1;stroke:none;font-family:Droid Serif;-inkscape-font-specification:Droid Serif"
         xml:space="preserve"><tspan
           y="309.39804"
           x="144.67072"
           id="tspan5160-5-0-2-5"
           sodipodi:role="line">crop</tspan></text>
    </g>
    <g
       id="g3934">
      <path
         sodipodi:nodetypes="cc"
         inkscape:connector-curvature="0"
         id="path5565-2-6"
         d="m 105.23427,400.9441 32.91876,-0.70446"
         style="fill:none;stroke:#000000;stroke-width:0.29552579px;stroke-linecap:butt;stroke-linejoin:miter;stroke-opacity:1" />
      <text
         sodipodi:linespacing="125%"
         id="text5158-3-8-3-3-5"
         y="403.70905"
         x="144.67072"
         style="font-size:12px;font-style:normal;font-variant:normal;font-weight:normal;font-stretch:normal;text-align:start;line-height:125%;letter-spacing:0px;word-spacing:0px;writing-mode:lr-tb;text-anchor:start;fill:#000000;fill-opacity:1;stroke:none;font-family:Droid Serif;-inkscape-font-specification:Droid Serif"
         xml:space="preserve"><tspan
           y="403.70905"
           x="144.67072"
           id="tspan5160-5-0-2-5-3"
           sodipodi:role="line">deskew</tspan></text>
    </g>
  </g>
</svg>
