  0
SECTION
  2
HEADER
  9
$ACADVER
  1
AC1009
  9
$EXTMIN
 10
0.0
 20
0.0
 30
0.0
  9
$EXTMAX
 10
1000.0
 20
1000.0
 30
0.0
  9
$FILLMODE
 70
 0
  9
$SPLFRAME
 70
 1
  0
ENDSEC
  0
SECTION
  2
TABLES
  0
TABLE
  2
LAYER
 70
1
  0
LAYER
  2
0
 70
     0
 62
     7
  6
CONTINUOUS
  0
ENDTAB
  0
ENDSEC
  0
SECTION
  2
ENTITIES
  0
POLYLINE
  8
0
 62
     0
 66
     1
 10
0
 20
0
 30
0.0
 40
0.8
 41
0.8
  0
VERTEX
  8
0
 10
0.00553386
 20
10.0535
 30
0.0
 40
0.0111111
 41
0.0111111
  0
VERTEX
  8
0
 10
0.758572
 20
10.0535
 30
0.0
 40
0.0111111
 41
0.0111111
  0
VERTEX
  8
0
 10
0.758572
 20
9.9285
 30
0.0
 40
0.0111111
 41
0.0111111
  0
VERTEX
  8
0
 10
1.50256
 20
9.9285
 30
0.0
 40
0.0111111
 41
0.0111111
  0
VERTEX
  8
0
 10
1.50256
 20
10.0535
 30
0.0
 40
0.0111111
 41
0.0111111
  0
VERTEX
  8
0
 10
2.25553
 20
10.0535
 30
0.0
 40
0.0111111
 41
0.0111111
  0
SEQEND
 8
0
  0
POLYLINE
  8
0
 62
     0
 66
     1
 10
0
 20
0
 30
0.0
 40
0.8
 41
0.8
  0
VERTEX
  8
0
 10
2.25553
 20
10.0535
 30
0.0
 40
0.0111111
 41
0.0111111
  0
VERTEX
  8
0
 10
2.25553
 20
9.53381
 30
0.0
 40
0.0111111
 41
0.0111111
  0
VERTEX
  8
0
 10
2.13053
 20
9.53381
 30
0.0
 40
0.0111111
 41
0.0111111
  0
VERTEX
  8
0
 10
2.13053
 20
9.02311
 30
0.0
 40
0.0111111
 41
0.0111111
  0
VERTEX
  8
0
 10
2.25553
 20
9.02311
 30
0.0
 40
0.0111111
 41
0.0111111
  0
VERTEX
  8
0
 10
2.25553
 20
8.50049
 30
0.0
 40
0.0111111
 41
0.0111111
  0
VERTEX
  8
0
 10
2.13053
 20
8.50049
 30
0.0
 40
0.0111111
 41
0.0111111
  0
VERTEX
  8
0
 10
2.13053
 20
7.98981
 30
0.0
 40
0.0111111
 41
0.0111111
  0
VERTEX
  8
0
 10
2.25553
 20
7.98981
 30
0.0
 40
0.0111111
 41
0.0111111
  0
VERTEX
  8
0
 10
2.25553
 20
7.46712
 30
0.0
 40
0.0111111
 41
0.0111111
  0
VERTEX
  8
0
 10
2.13053
 20
7.46712
 30
0.0
 40
0.0111111
 41
0.0111111
  0
VERTEX
  8
0
 10
2.13053
 20
6.95649
 30
0.0
 40
0.0111111
 41
0.0111111
  0
VERTEX
  8
0
 10
2.25553
 20
6.95649
 30
0.0
 40
0.0111111
 41
0.0111111
  0
VERTEX
  8
0
 10
2.25553
 20
6.43381
 30
0.0
 40
0.0111111
 41
0.0111111
  0
VERTEX
  8
0
 10
2.13053
 20
6.43381
 30
0.0
 40
0.0111111
 41
0.0111111
  0
VERTEX
  8
0
 10
2.13053
 20
5.92312
 30
0.0
 40
0.0111111
 41
0.0111111
  0
VERTEX
  8
0
 10
2.25553
 20
5.92312
 30
0.0
 40
0.0111111
 41
0.0111111
  0
VERTEX
  8
0
 10
2.25553
 20
5.4005
 30
0.0
 40
0.0111111
 41
0.0111111
  0
VERTEX
  8
0
 10
2.13053
 20
5.4005
 30
0.0
 40
0.0111111
 41
0.0111111
  0
VERTEX
  8
0
 10
2.13053
 20
4.88981
 30
0.0
 40
0.0111111
 41
0.0111111
  0
VERTEX
  8
0
 10
2.25553
 20
4.88981
 30
0.0
 40
0.0111111
 41
0.0111111
  0
VERTEX
  8
0
 10
2.25553
 20
4.36714
 30
0.0
 40
0.0111111
 41
0.0111111
  0
VERTEX
  8
0
 10
2.13053
 20
4.36714
 30
0.0
 40
0.0111111
 41
0.0111111
  0
VERTEX
  8
0
 10
2.13053
 20
3.85644
 30
0.0
 40
0.0111111
 41
0.0111111
  0
VERTEX
  8
0
 10
2.25553
 20
3.85644
 30
0.0
 40
0.0111111
 41
0.0111111
  0
VERTEX
  8
0
 10
2.25553
 20
3.33382
 30
0.0
 40
0.0111111
 41
0.0111111
  0
VERTEX
  8
0
 10
2.13053
 20
3.33382
 30
0.0
 40
0.0111111
 41
0.0111111
  0
VERTEX
  8
0
 10
2.13053
 20
2.82314
 30
0.0
 40
0.0111111
 41
0.0111111
  0
VERTEX
  8
0
 10
2.25553
 20
2.82314
 30
0.0
 40
0.0111111
 41
0.0111111
  0
VERTEX
  8
0
 10
2.25553
 20
2.3035
 30
0.0
 40
0.0111111
 41
0.0111111
  0
SEQEND
 8
0
  0
POLYLINE
  8
0
 62
     0
 66
     1
 10
0
 20
0
 30
0.0
 40
0.8
 41
0.8
  0
VERTEX
  8
0
 10
2.25553
 20
2.3035
 30
0.0
 40
0.0111111
 41
0.0111111
  0
VERTEX
  8
0
 10
1.50256
 20
2.3035
 30
0.0
 40
0.0111111
 41
0.0111111
  0
VERTEX
  8
0
 10
1.50256
 20
2.4285
 30
0.0
 40
0.0111111
 41
0.0111111
  0
VERTEX
  8
0
 10
0.758572
 20
2.4285
 30
0.0
 40
0.0111111
 41
0.0111111
  0
VERTEX
  8
0
 10
0.758572
 20
2.3035
 30
0.0
 40
0.0111111
 41
0.0111111
  0
VERTEX
  8
0
 10
0.00553386
 20
2.3035
 30
0.0
 40
0.0111111
 41
0.0111111
  0
SEQEND
 8
0
  0
POLYLINE
  8
0
 62
     0
 66
     1
 10
0
 20
0
 30
0.0
 40
0.8
 41
0.8
  0
VERTEX
  8
0
 10
0.00553386
 20
2.3035
 30
0.0
 40
0.0111111
 41
0.0111111
  0
VERTEX
  8
0
 10
0.00553386
 20
2.82314
 30
0.0
 40
0.0111111
 41
0.0111111
  0
VERTEX
  8
0
 10
0.130534
 20
2.82314
 30
0.0
 40
0.0111111
 41
0.0111111
  0
VERTEX
  8
0
 10
0.130534
 20
3.33382
 30
0.0
 40
0.0111111
 41
0.0111111
  0
VERTEX
  8
0
 10
0.00553386
 20
3.33382
 30
0.0
 40
0.0111111
 41
0.0111111
  0
VERTEX
  8
0
 10
0.00553386
 20
3.85644
 30
0.0
 40
0.0111111
 41
0.0111111
  0
VERTEX
  8
0
 10
0.130534
 20
3.85644
 30
0.0
 40
0.0111111
 41
0.0111111
  0
VERTEX
  8
0
 10
0.130534
 20
4.36714
 30
0.0
 40
0.0111111
 41
0.0111111
  0
VERTEX
  8
0
 10
0.00553386
 20
4.36714
 30
0.0
 40
0.0111111
 41
0.0111111
  0
VERTEX
  8
0
 10
0.00553386
 20
4.88981
 30
0.0
 40
0.0111111
 41
0.0111111
  0
VERTEX
  8
0
 10
0.130534
 20
4.88981
 30
0.0
 40
0.0111111
 41
0.0111111
  0
VERTEX
  8
0
 10
0.130534
 20
5.4005
 30
0.0
 40
0.0111111
 41
0.0111111
  0
VERTEX
  8
0
 10
0.00553386
 20
5.4005
 30
0.0
 40
0.0111111
 41
0.0111111
  0
VERTEX
  8
0
 10
0.00553386
 20
5.92312
 30
0.0
 40
0.0111111
 41
0.0111111
  0
VERTEX
  8
0
 10
0.130534
 20
5.92312
 30
0.0
 40
0.0111111
 41
0.0111111
  0
VERTEX
  8
0
 10
0.130534
 20
6.43381
 30
0.0
 40
0.0111111
 41
0.0111111
  0
VERTEX
  8
0
 10
0.00553386
 20
6.43381
 30
0.0
 40
0.0111111
 41
0.0111111
  0
VERTEX
  8
0
 10
0.00553386
 20
6.95649
 30
0.0
 40
0.0111111
 41
0.0111111
  0
VERTEX
  8
0
 10
0.130534
 20
6.95649
 30
0.0
 40
0.0111111
 41
0.0111111
  0
VERTEX
  8
0
 10
0.130534
 20
7.46712
 30
0.0
 40
0.0111111
 41
0.0111111
  0
VERTEX
  8
0
 10
0.00553386
 20
7.46712
 30
0.0
 40
0.0111111
 41
0.0111111
  0
VERTEX
  8
0
 10
0.00553386
 20
7.98981
 30
0.0
 40
0.0111111
 41
0.0111111
  0
VERTEX
  8
0
 10
0.130534
 20
7.98981
 30
0.0
 40
0.0111111
 41
0.0111111
  0
VERTEX
  8
0
 10
0.130534
 20
8.50049
 30
0.0
 40
0.0111111
 41
0.0111111
  0
VERTEX
  8
0
 10
0.00553386
 20
8.50049
 30
0.0
 40
0.0111111
 41
0.0111111
  0
VERTEX
  8
0
 10
0.00553386
 20
9.02311
 30
0.0
 40
0.0111111
 41
0.0111111
  0
VERTEX
  8
0
 10
0.130534
 20
9.02311
 30
0.0
 40
0.0111111
 41
0.0111111
  0
VERTEX
  8
0
 10
0.130534
 20
9.53381
 30
0.0
 40
0.0111111
 41
0.0111111
  0
VERTEX
  8
0
 10
0.00553386
 20
9.53381
 30
0.0
 40
0.0111111
 41
0.0111111
  0
VERTEX
  8
0
 10
0.00553386
 20
10.0535
 30
0.0
 40
0.0111111
 41
0.0111111
  0
SEQEND
 8
0
  0
POLYLINE
  8
0
 62
     0
 66
     1
 10
0
 20
0
 30
0.0
 40
0.8
 41
0.8
  0
VERTEX
  8
0
 10
2.31803
 20
10.0535
 30
0.0
 40
0.0111111
 41
0.0111111
  0
VERTEX
  8
0
 10
3.07107
 20
10.0535
 30
0.0
 40
0.0111111
 41
0.0111111
  0
VERTEX
  8
0
 10
3.07107
 20
9.9285
 30
0.0
 40
0.0111111
 41
0.0111111
  0
VERTEX
  8
0
 10
3.81506
 20
9.9285
 30
0.0
 40
0.0111111
 41
0.0111111
  0
VERTEX
  8
0
 10
3.81506
 20
10.0535
 30
0.0
 40
0.0111111
 41
0.0111111
  0
VERTEX
  8
0
 10
4.56803
 20
10.0535
 30
0.0
 40
0.0111111
 41
0.0111111
  0
SEQEND
 8
0
  0
POLYLINE
  8
0
 62
     0
 66
     1
 10
0
 20
0
 30
0.0
 40
0.8
 41
0.8
  0
VERTEX
  8
0
 10
4.56803
 20
10.0535
 30
0.0
 40
0.0111111
 41
0.0111111
  0
VERTEX
  8
0
 10
4.56803
 20
9.53381
 30
0.0
 40
0.0111111
 41
0.0111111
  0
VERTEX
  8
0
 10
4.44303
 20
9.53381
 30
0.0
 40
0.0111111
 41
0.0111111
  0
VERTEX
  8
0
 10
4.44303
 20
9.02311
 30
0.0
 40
0.0111111
 41
0.0111111
  0
VERTEX
  8
0
 10
4.56803
 20
9.02311
 30
0.0
 40
0.0111111
 41
0.0111111
  0
VERTEX
  8
0
 10
4.56803
 20
8.50049
 30
0.0
 40
0.0111111
 41
0.0111111
  0
VERTEX
  8
0
 10
4.44303
 20
8.50049
 30
0.0
 40
0.0111111
 41
0.0111111
  0
VERTEX
  8
0
 10
4.44303
 20
7.98981
 30
0.0
 40
0.0111111
 41
0.0111111
  0
VERTEX
  8
0
 10
4.56803
 20
7.98981
 30
0.0
 40
0.0111111
 41
0.0111111
  0
VERTEX
  8
0
 10
4.56803
 20
7.46712
 30
0.0
 40
0.0111111
 41
0.0111111
  0
VERTEX
  8
0
 10
4.44303
 20
7.46712
 30
0.0
 40
0.0111111
 41
0.0111111
  0
VERTEX
  8
0
 10
4.44303
 20
6.95649
 30
0.0
 40
0.0111111
 41
0.0111111
  0
VERTEX
  8
0
 10
4.56803
 20
6.95649
 30
0.0
 40
0.0111111
 41
0.0111111
  0
VERTEX
  8
0
 10
4.56803
 20
6.43381
 30
0.0
 40
0.0111111
 41
0.0111111
  0
VERTEX
  8
0
 10
4.44303
 20
6.43381
 30
0.0
 40
0.0111111
 41
0.0111111
  0
VERTEX
  8
0
 10
4.44303
 20
5.92312
 30
0.0
 40
0.0111111
 41
0.0111111
  0
VERTEX
  8
0
 10
4.56803
 20
5.92312
 30
0.0
 40
0.0111111
 41
0.0111111
  0
VERTEX
  8
0
 10
4.56803
 20
5.4005
 30
0.0
 40
0.0111111
 41
0.0111111
  0
VERTEX
  8
0
 10
4.44303
 20
5.4005
 30
0.0
 40
0.0111111
 41
0.0111111
  0
VERTEX
  8
0
 10
4.44303
 20
4.88981
 30
0.0
 40
0.0111111
 41
0.0111111
  0
VERTEX
  8
0
 10
4.56803
 20
4.88981
 30
0.0
 40
0.0111111
 41
0.0111111
  0
VERTEX
  8
0
 10
4.56803
 20
4.36714
 30
0.0
 40
0.0111111
 41
0.0111111
  0
VERTEX
  8
0
 10
4.44303
 20
4.36714
 30
0.0
 40
0.0111111
 41
0.0111111
  0
VERTEX
  8
0
 10
4.44303
 20
3.85644
 30
0.0
 40
0.0111111
 41
0.0111111
  0
VERTEX
  8
0
 10
4.56803
 20
3.85644
 30
0.0
 40
0.0111111
 41
0.0111111
  0
VERTEX
  8
0
 10
4.56803
 20
3.33382
 30
0.0
 40
0.0111111
 41
0.0111111
  0
VERTEX
  8
0
 10
4.44303
 20
3.33382
 30
0.0
 40
0.0111111
 41
0.0111111
  0
VERTEX
  8
0
 10
4.44303
 20
2.82314
 30
0.0
 40
0.0111111
 41
0.0111111
  0
VERTEX
  8
0
 10
4.56803
 20
2.82314
 30
0.0
 40
0.0111111
 41
0.0111111
  0
VERTEX
  8
0
 10
4.56803
 20
2.3035
 30
0.0
 40
0.0111111
 41
0.0111111
  0
SEQEND
 8
0
  0
POLYLINE
  8
0
 62
     0
 66
     1
 10
0
 20
0
 30
0.0
 40
0.8
 41
0.8
  0
VERTEX
  8
0
 10
4.56803
 20
2.3035
 30
0.0
 40
0.0111111
 41
0.0111111
  0
VERTEX
  8
0
 10
3.81506
 20
2.3035
 30
0.0
 40
0.0111111
 41
0.0111111
  0
VERTEX
  8
0
 10
3.81506
 20
2.4285
 30
0.0
 40
0.0111111
 41
0.0111111
  0
VERTEX
  8
0
 10
3.07107
 20
2.4285
 30
0.0
 40
0.0111111
 41
0.0111111
  0
VERTEX
  8
0
 10
3.07107
 20
2.3035
 30
0.0
 40
0.0111111
 41
0.0111111
  0
VERTEX
  8
0
 10
2.31803
 20
2.3035
 30
0.0
 40
0.0111111
 41
0.0111111
  0
SEQEND
 8
0
  0
POLYLINE
  8
0
 62
     0
 66
     1
 10
0
 20
0
 30
0.0
 40
0.8
 41
0.8
  0
VERTEX
  8
0
 10
2.31803
 20
2.3035
 30
0.0
 40
0.0111111
 41
0.0111111
  0
VERTEX
  8
0
 10
2.31803
 20
2.82314
 30
0.0
 40
0.0111111
 41
0.0111111
  0
VERTEX
  8
0
 10
2.44303
 20
2.82314
 30
0.0
 40
0.0111111
 41
0.0111111
  0
VERTEX
  8
0
 10
2.44303
 20
3.33382
 30
0.0
 40
0.0111111
 41
0.0111111
  0
VERTEX
  8
0
 10
2.31803
 20
3.33382
 30
0.0
 40
0.0111111
 41
0.0111111
  0
VERTEX
  8
0
 10
2.31803
 20
3.85644
 30
0.0
 40
0.0111111
 41
0.0111111
  0
VERTEX
  8
0
 10
2.44303
 20
3.85644
 30
0.0
 40
0.0111111
 41
0.0111111
  0
VERTEX
  8
0
 10
2.44303
 20
4.36714
 30
0.0
 40
0.0111111
 41
0.0111111
  0
VERTEX
  8
0
 10
2.31803
 20
4.36714
 30
0.0
 40
0.0111111
 41
0.0111111
  0
VERTEX
  8
0
 10
2.31803
 20
4.88981
 30
0.0
 40
0.0111111
 41
0.0111111
  0
VERTEX
  8
0
 10
2.44303
 20
4.88981
 30
0.0
 40
0.0111111
 41
0.0111111
  0
VERTEX
  8
0
 10
2.44303
 20
5.4005
 30
0.0
 40
0.0111111
 41
0.0111111
  0
VERTEX
  8
0
 10
2.31803
 20
5.4005
 30
0.0
 40
0.0111111
 41
0.0111111
  0
VERTEX
  8
0
 10
2.31803
 20
5.92312
 30
0.0
 40
0.0111111
 41
0.0111111
  0
VERTEX
  8
0
 10
2.44303
 20
5.92312
 30
0.0
 40
0.0111111
 41
0.0111111
  0
VERTEX
  8
0
 10
2.44303
 20
6.43381
 30
0.0
 40
0.0111111
 41
0.0111111
  0
VERTEX
  8
0
 10
2.31803
 20
6.43381
 30
0.0
 40
0.0111111
 41
0.0111111
  0
VERTEX
  8
0
 10
2.31803
 20
6.95649
 30
0.0
 40
0.0111111
 41
0.0111111
  0
VERTEX
  8
0
 10
2.44303
 20
6.95649
 30
0.0
 40
0.0111111
 41
0.0111111
  0
VERTEX
  8
0
 10
2.44303
 20
7.46712
 30
0.0
 40
0.0111111
 41
0.0111111
  0
VERTEX
  8
0
 10
2.31803
 20
7.46712
 30
0.0
 40
0.0111111
 41
0.0111111
  0
VERTEX
  8
0
 10
2.31803
 20
7.98981
 30
0.0
 40
0.0111111
 41
0.0111111
  0
VERTEX
  8
0
 10
2.44303
 20
7.98981
 30
0.0
 40
0.0111111
 41
0.0111111
  0
VERTEX
  8
0
 10
2.44303
 20
8.50049
 30
0.0
 40
0.0111111
 41
0.0111111
  0
VERTEX
  8
0
 10
2.31803
 20
8.50049
 30
0.0
 40
0.0111111
 41
0.0111111
  0
VERTEX
  8
0
 10
2.31803
 20
9.02311
 30
0.0
 40
0.0111111
 41
0.0111111
  0
VERTEX
  8
0
 10
2.44303
 20
9.02311
 30
0.0
 40
0.0111111
 41
0.0111111
  0
VERTEX
  8
0
 10
2.44303
 20
9.53381
 30
0.0
 40
0.0111111
 41
0.0111111
  0
VERTEX
  8
0
 10
2.31803
 20
9.53381
 30
0.0
 40
0.0111111
 41
0.0111111
  0
VERTEX
  8
0
 10
2.31803
 20
10.0535
 30
0.0
 40
0.0111111
 41
0.0111111
  0
SEQEND
 8
0
  0
POLYLINE
  8
0
 62
     0
 66
     1
 10
0
 20
0
 30
0.0
 40
0.8
 41
0.8
  0
VERTEX
  8
0
 10
4.75553
 20
10.0535
 30
0.0
 40
0.0111111
 41
0.0111111
  0
VERTEX
  8
0
 10
5.23356
 20
10.0535
 30
0.0
 40
0.0111111
 41
0.0111111
  0
VERTEX
  8
0
 10
5.23356
 20
9.9285
 30
0.0
 40
0.0111111
 41
0.0111111
  0
VERTEX
  8
0
 10
5.82758
 20
9.9285
 30
0.0
 40
0.0111111
 41
0.0111111
  0
VERTEX
  8
0
 10
5.82758
 20
10.0535
 30
0.0
 40
0.0111111
 41
0.0111111
  0
VERTEX
  8
0
 10
6.43354
 20
10.0535
 30
0.0
 40
0.0111111
 41
0.0111111
  0
VERTEX
  8
0
 10
6.43354
 20
9.9285
 30
0.0
 40
0.0111111
 41
0.0111111
  0
VERTEX
  8
0
 10
7.02756
 20
9.9285
 30
0.0
 40
0.0111111
 41
0.0111111
  0
VERTEX
  8
0
 10
7.02756
 20
10.0535
 30
0.0
 40
0.0111111
 41
0.0111111
  0
VERTEX
  8
0
 10
7.50553
 20
10.0535
 30
0.0
 40
0.0111111
 41
0.0111111
  0
SEQEND
 8
0
  0
POLYLINE
  8
0
 62
     0
 66
     1
 10
0
 20
0
 30
0.0
 40
0.8
 41
0.8
  0
VERTEX
  8
0
 10
7.50553
 20
10.0535
 30
0.0
 40
0.0111111
 41
0.0111111
  0
VERTEX
  8
0
 10
7.50553
 20
9.53982
 30
0.0
 40
0.0111111
 41
0.0111111
  0
VERTEX
  8
0
 10
7.63053
 20
9.53982
 30
0.0
 40
0.0111111
 41
0.0111111
  0
VERTEX
  8
0
 10
7.63053
 20
9.01714
 30
0.0
 40
0.0111111
 41
0.0111111
  0
VERTEX
  8
0
 10
7.50553
 20
9.01714
 30
0.0
 40
0.0111111
 41
0.0111111
  0
VERTEX
  8
0
 10
7.50553
 20
8.50646
 30
0.0
 40
0.0111111
 41
0.0111111
  0
VERTEX
  8
0
 10
7.63053
 20
8.50646
 30
0.0
 40
0.0111111
 41
0.0111111
  0
VERTEX
  8
0
 10
7.63053
 20
7.98383
 30
0.0
 40
0.0111111
 41
0.0111111
  0
VERTEX
  8
0
 10
7.50553
 20
7.98383
 30
0.0
 40
0.0111111
 41
0.0111111
  0
VERTEX
  8
0
 10
7.50553
 20
7.47314
 30
0.0
 40
0.0111111
 41
0.0111111
  0
VERTEX
  8
0
 10
7.63053
 20
7.47314
 30
0.0
 40
0.0111111
 41
0.0111111
  0
VERTEX
  8
0
 10
7.63053
 20
6.95047
 30
0.0
 40
0.0111111
 41
0.0111111
  0
VERTEX
  8
0
 10
7.50553
 20
6.95047
 30
0.0
 40
0.0111111
 41
0.0111111
  0
VERTEX
  8
0
 10
7.50553
 20
6.43978
 30
0.0
 40
0.0111111
 41
0.0111111
  0
VERTEX
  8
0
 10
7.63053
 20
6.43978
 30
0.0
 40
0.0111111
 41
0.0111111
  0
VERTEX
  8
0
 10
7.63053
 20
5.91715
 30
0.0
 40
0.0111111
 41
0.0111111
  0
VERTEX
  8
0
 10
7.50553
 20
5.91715
 30
0.0
 40
0.0111111
 41
0.0111111
  0
VERTEX
  8
0
 10
7.50553
 20
5.40647
 30
0.0
 40
0.0111111
 41
0.0111111
  0
VERTEX
  8
0
 10
7.63053
 20
5.40647
 30
0.0
 40
0.0111111
 41
0.0111111
  0
VERTEX
  8
0
 10
7.63053
 20
4.88379
 30
0.0
 40
0.0111111
 41
0.0111111
  0
VERTEX
  8
0
 10
7.50553
 20
4.88379
 30
0.0
 40
0.0111111
 41
0.0111111
  0
VERTEX
  8
0
 10
7.50553
 20
4.37315
 30
0.0
 40
0.0111111
 41
0.0111111
  0
VERTEX
  8
0
 10
7.63053
 20
4.37315
 30
0.0
 40
0.0111111
 41
0.0111111
  0
VERTEX
  8
0
 10
7.63053
 20
3.85047
 30
0.0
 40
0.0111111
 41
0.0111111
  0
VERTEX
  8
0
 10
7.50553
 20
3.85047
 30
0.0
 40
0.0111111
 41
0.0111111
  0
VERTEX
  8
0
 10
7.50553
 20
3.33979
 30
0.0
 40
0.0111111
 41
0.0111111
  0
VERTEX
  8
0
 10
7.63053
 20
3.33979
 30
0.0
 40
0.0111111
 41
0.0111111
  0
VERTEX
  8
0
 10
7.63053
 20
2.81717
 30
0.0
 40
0.0111111
 41
0.0111111
  0
VERTEX
  8
0
 10
7.50553
 20
2.81717
 30
0.0
 40
0.0111111
 41
0.0111111
  0
VERTEX
  8
0
 10
7.50553
 20
2.3035
 30
0.0
 40
0.0111111
 41
0.0111111
  0
SEQEND
 8
0
  0
POLYLINE
  8
0
 62
     0
 66
     1
 10
0
 20
0
 30
0.0
 40
0.8
 41
0.8
  0
VERTEX
  8
0
 10
7.50553
 20
2.3035
 30
0.0
 40
0.0111111
 41
0.0111111
  0
VERTEX
  8
0
 10
7.02756
 20
2.3035
 30
0.0
 40
0.0111111
 41
0.0111111
  0
VERTEX
  8
0
 10
7.02756
 20
2.4285
 30
0.0
 40
0.0111111
 41
0.0111111
  0
VERTEX
  8
0
 10
6.43354
 20
2.4285
 30
0.0
 40
0.0111111
 41
0.0111111
  0
VERTEX
  8
0
 10
6.43354
 20
2.3035
 30
0.0
 40
0.0111111
 41
0.0111111
  0
VERTEX
  8
0
 10
5.82758
 20
2.3035
 30
0.0
 40
0.0111111
 41
0.0111111
  0
VERTEX
  8
0
 10
5.82758
 20
2.4285
 30
0.0
 40
0.0111111
 41
0.0111111
  0
VERTEX
  8
0
 10
5.23356
 20
2.4285
 30
0.0
 40
0.0111111
 41
0.0111111
  0
VERTEX
  8
0
 10
5.23356
 20
2.3035
 30
0.0
 40
0.0111111
 41
0.0111111
  0
VERTEX
  8
0
 10
4.75553
 20
2.3035
 30
0.0
 40
0.0111111
 41
0.0111111
  0
SEQEND
 8
0
  0
POLYLINE
  8
0
 62
     0
 66
     1
 10
0
 20
0
 30
0.0
 40
0.8
 41
0.8
  0
VERTEX
  8
0
 10
4.75553
 20
2.3035
 30
0.0
 40
0.0111111
 41
0.0111111
  0
VERTEX
  8
0
 10
4.75553
 20
2.81717
 30
0.0
 40
0.0111111
 41
0.0111111
  0
VERTEX
  8
0
 10
4.63053
 20
2.81717
 30
0.0
 40
0.0111111
 41
0.0111111
  0
VERTEX
  8
0
 10
4.63053
 20
3.33979
 30
0.0
 40
0.0111111
 41
0.0111111
  0
VERTEX
  8
0
 10
4.75553
 20
3.33979
 30
0.0
 40
0.0111111
 41
0.0111111
  0
VERTEX
  8
0
 10
4.75553
 20
3.85047
 30
0.0
 40
0.0111111
 41
0.0111111
  0
VERTEX
  8
0
 10
4.63053
 20
3.85047
 30
0.0
 40
0.0111111
 41
0.0111111
  0
VERTEX
  8
0
 10
4.63053
 20
4.37315
 30
0.0
 40
0.0111111
 41
0.0111111
  0
VERTEX
  8
0
 10
4.75553
 20
4.37315
 30
0.0
 40
0.0111111
 41
0.0111111
  0
VERTEX
  8
0
 10
4.75553
 20
4.88379
 30
0.0
 40
0.0111111
 41
0.0111111
  0
VERTEX
  8
0
 10
4.63053
 20
4.88379
 30
0.0
 40
0.0111111
 41
0.0111111
  0
VERTEX
  8
0
 10
4.63053
 20
5.40647
 30
0.0
 40
0.0111111
 41
0.0111111
  0
VERTEX
  8
0
 10
4.75553
 20
5.40647
 30
0.0
 40
0.0111111
 41
0.0111111
  0
VERTEX
  8
0
 10
4.75553
 20
5.91715
 30
0.0
 40
0.0111111
 41
0.0111111
  0
VERTEX
  8
0
 10
4.63053
 20
5.91715
 30
0.0
 40
0.0111111
 41
0.0111111
  0
VERTEX
  8
0
 10
4.63053
 20
6.43978
 30
0.0
 40
0.0111111
 41
0.0111111
  0
VERTEX
  8
0
 10
4.75553
 20
6.43978
 30
0.0
 40
0.0111111
 41
0.0111111
  0
VERTEX
  8
0
 10
4.75553
 20
6.95047
 30
0.0
 40
0.0111111
 41
0.0111111
  0
VERTEX
  8
0
 10
4.63053
 20
6.95047
 30
0.0
 40
0.0111111
 41
0.0111111
  0
VERTEX
  8
0
 10
4.63053
 20
7.47314
 30
0.0
 40
0.0111111
 41
0.0111111
  0
VERTEX
  8
0
 10
4.75553
 20
7.47314
 30
0.0
 40
0.0111111
 41
0.0111111
  0
VERTEX
  8
0
 10
4.75553
 20
7.98383
 30
0.0
 40
0.0111111
 41
0.0111111
  0
VERTEX
  8
0
 10
4.63053
 20
7.98383
 30
0.0
 40
0.0111111
 41
0.0111111
  0
VERTEX
  8
0
 10
4.63053
 20
8.50646
 30
0.0
 40
0.0111111
 41
0.0111111
  0
VERTEX
  8
0
 10
4.75553
 20
8.50646
 30
0.0
 40
0.0111111
 41
0.0111111
  0
VERTEX
  8
0
 10
4.75553
 20
9.01714
 30
0.0
 40
0.0111111
 41
0.0111111
  0
VERTEX
  8
0
 10
4.63053
 20
9.01714
 30
0.0
 40
0.0111111
 41
0.0111111
  0
VERTEX
  8
0
 10
4.63053
 20
9.53982
 30
0.0
 40
0.0111111
 41
0.0111111
  0
VERTEX
  8
0
 10
4.75553
 20
9.53982
 30
0.0
 40
0.0111111
 41
0.0111111
  0
VERTEX
  8
0
 10
4.75553
 20
10.0535
 30
0.0
 40
0.0111111
 41
0.0111111
  0
SEQEND
 8
0
  0
POLYLINE
  8
0
 62
     0
 66
     1
 10
0
 20
0
 30
0.0
 40
0.8
 41
0.8
  0
VERTEX
  8
0
 10
7.81803
 20
10.0535
 30
0.0
 40
0.0111111
 41
0.0111111
  0
VERTEX
  8
0
 10
8.29606
 20
10.0535
 30
0.0
 40
0.0111111
 41
0.0111111
  0
VERTEX
  8
0
 10
8.29606
 20
9.9285
 30
0.0
 40
0.0111111
 41
0.0111111
  0
VERTEX
  8
0
 10
8.89008
 20
9.9285
 30
0.0
 40
0.0111111
 41
0.0111111
  0
VERTEX
  8
0
 10
8.89008
 20
10.0535
 30
0.0
 40
0.0111111
 41
0.0111111
  0
VERTEX
  8
0
 10
9.49604
 20
10.0535
 30
0.0
 40
0.0111111
 41
0.0111111
  0
VERTEX
  8
0
 10
9.49604
 20
9.9285
 30
0.0
 40
0.0111111
 41
0.0111111
  0
VERTEX
  8
0
 10
10.0901
 20
9.9285
 30
0.0
 40
0.0111111
 41
0.0111111
  0
VERTEX
  8
0
 10
10.0901
 20
10.0535
 30
0.0
 40
0.0111111
 41
0.0111111
  0
VERTEX
  8
0
 10
10.568
 20
10.0535
 30
0.0
 40
0.0111111
 41
0.0111111
  0
SEQEND
 8
0
  0
POLYLINE
  8
0
 62
     0
 66
     1
 10
0
 20
0
 30
0.0
 40
0.8
 41
0.8
  0
VERTEX
  8
0
 10
10.568
 20
10.0535
 30
0.0
 40
0.0111111
 41
0.0111111
  0
VERTEX
  8
0
 10
10.568
 20
9.53982
 30
0.0
 40
0.0111111
 41
0.0111111
  0
VERTEX
  8
0
 10
10.693
 20
9.53982
 30
0.0
 40
0.0111111
 41
0.0111111
  0
VERTEX
  8
0
 10
10.693
 20
9.01714
 30
0.0
 40
0.0111111
 41
0.0111111
  0
VERTEX
  8
0
 10
10.568
 20
9.01714
 30
0.0
 40
0.0111111
 41
0.0111111
  0
VERTEX
  8
0
 10
10.568
 20
8.50646
 30
0.0
 40
0.0111111
 41
0.0111111
  0
VERTEX
  8
0
 10
10.693
 20
8.50646
 30
0.0
 40
0.0111111
 41
0.0111111
  0
VERTEX
  8
0
 10
10.693
 20
7.98383
 30
0.0
 40
0.0111111
 41
0.0111111
  0
VERTEX
  8
0
 10
10.568
 20
7.98383
 30
0.0
 40
0.0111111
 41
0.0111111
  0
VERTEX
  8
0
 10
10.568
 20
7.47314
 30
0.0
 40
0.0111111
 41
0.0111111
  0
VERTEX
  8
0
 10
10.693
 20
7.47314
 30
0.0
 40
0.0111111
 41
0.0111111
  0
VERTEX
  8
0
 10
10.693
 20
6.95047
 30
0.0
 40
0.0111111
 41
0.0111111
  0
VERTEX
  8
0
 10
10.568
 20
6.95047
 30
0.0
 40
0.0111111
 41
0.0111111
  0
VERTEX
  8
0
 10
10.568
 20
6.43978
 30
0.0
 40
0.0111111
 41
0.0111111
  0
VERTEX
  8
0
 10
10.693
 20
6.43978
 30
0.0
 40
0.0111111
 41
0.0111111
  0
VERTEX
  8
0
 10
10.693
 20
5.91715
 30
0.0
 40
0.0111111
 41
0.0111111
  0
VERTEX
  8
0
 10
10.568
 20
5.91715
 30
0.0
 40
0.0111111
 41
0.0111111
  0
VERTEX
  8
0
 10
10.568
 20
5.40647
 30
0.0
 40
0.0111111
 41
0.0111111
  0
VERTEX
  8
0
 10
10.693
 20
5.40647
 30
0.0
 40
0.0111111
 41
0.0111111
  0
VERTEX
  8
0
 10
10.693
 20
4.88379
 30
0.0
 40
0.0111111
 41
0.0111111
  0
VERTEX
  8
0
 10
10.568
 20
4.88379
 30
0.0
 40
0.0111111
 41
0.0111111
  0
VERTEX
  8
0
 10
10.568
 20
4.37315
 30
0.0
 40
0.0111111
 41
0.0111111
  0
VERTEX
  8
0
 10
10.693
 20
4.37315
 30
0.0
 40
0.0111111
 41
0.0111111
  0
VERTEX
  8
0
 10
10.693
 20
3.85047
 30
0.0
 40
0.0111111
 41
0.0111111
  0
VERTEX
  8
0
 10
10.568
 20
3.85047
 30
0.0
 40
0.0111111
 41
0.0111111
  0
VERTEX
  8
0
 10
10.568
 20
3.33979
 30
0.0
 40
0.0111111
 41
0.0111111
  0
VERTEX
  8
0
 10
10.693
 20
3.33979
 30
0.0
 40
0.0111111
 41
0.0111111
  0
VERTEX
  8
0
 10
10.693
 20
2.81717
 30
0.0
 40
0.0111111
 41
0.0111111
  0
VERTEX
  8
0
 10
10.568
 20
2.81717
 30
0.0
 40
0.0111111
 41
0.0111111
  0
VERTEX
  8
0
 10
10.568
 20
2.3035
 30
0.0
 40
0.0111111
 41
0.0111111
  0
SEQEND
 8
0
  0
POLYLINE
  8
0
 62
     0
 66
     1
 10
0
 20
0
 30
0.0
 40
0.8
 41
0.8
  0
VERTEX
  8
0
 10
10.568
 20
2.3035
 30
0.0
 40
0.0111111
 41
0.0111111
  0
VERTEX
  8
0
 10
10.0901
 20
2.3035
 30
0.0
 40
0.0111111
 41
0.0111111
  0
VERTEX
  8
0
 10
10.0901
 20
2.4285
 30
0.0
 40
0.0111111
 41
0.0111111
  0
VERTEX
  8
0
 10
9.49604
 20
2.4285
 30
0.0
 40
0.0111111
 41
0.0111111
  0
VERTEX
  8
0
 10
9.49604
 20
2.3035
 30
0.0
 40
0.0111111
 41
0.0111111
  0
VERTEX
  8
0
 10
8.89008
 20
2.3035
 30
0.0
 40
0.0111111
 41
0.0111111
  0
VERTEX
  8
0
 10
8.89008
 20
2.4285
 30
0.0
 40
0.0111111
 41
0.0111111
  0
VERTEX
  8
0
 10
8.29606
 20
2.4285
 30
0.0
 40
0.0111111
 41
0.0111111
  0
VERTEX
  8
0
 10
8.29606
 20
2.3035
 30
0.0
 40
0.0111111
 41
0.0111111
  0
VERTEX
  8
0
 10
7.81803
 20
2.3035
 30
0.0
 40
0.0111111
 41
0.0111111
  0
SEQEND
 8
0
  0
POLYLINE
  8
0
 62
     0
 66
     1
 10
0
 20
0
 30
0.0
 40
0.8
 41
0.8
  0
VERTEX
  8
0
 10
7.81803
 20
2.3035
 30
0.0
 40
0.0111111
 41
0.0111111
  0
VERTEX
  8
0
 10
7.81803
 20
2.81717
 30
0.0
 40
0.0111111
 41
0.0111111
  0
VERTEX
  8
0
 10
7.69303
 20
2.81717
 30
0.0
 40
0.0111111
 41
0.0111111
  0
VERTEX
  8
0
 10
7.69303
 20
3.33979
 30
0.0
 40
0.0111111
 41
0.0111111
  0
VERTEX
  8
0
 10
7.81803
 20
3.33979
 30
0.0
 40
0.0111111
 41
0.0111111
  0
VERTEX
  8
0
 10
7.81803
 20
3.85047
 30
0.0
 40
0.0111111
 41
0.0111111
  0
VERTEX
  8
0
 10
7.69303
 20
3.85047
 30
0.0
 40
0.0111111
 41
0.0111111
  0
VERTEX
  8
0
 10
7.69303
 20
4.37315
 30
0.0
 40
0.0111111
 41
0.0111111
  0
VERTEX
  8
0
 10
7.81803
 20
4.37315
 30
0.0
 40
0.0111111
 41
0.0111111
  0
VERTEX
  8
0
 10
7.81803
 20
4.88379
 30
0.0
 40
0.0111111
 41
0.0111111
  0
VERTEX
  8
0
 10
7.69303
 20
4.88379
 30
0.0
 40
0.0111111
 41
0.0111111
  0
VERTEX
  8
0
 10
7.69303
 20
5.40647
 30
0.0
 40
0.0111111
 41
0.0111111
  0
VERTEX
  8
0
 10
7.81803
 20
5.40647
 30
0.0
 40
0.0111111
 41
0.0111111
  0
VERTEX
  8
0
 10
7.81803
 20
5.91715
 30
0.0
 40
0.0111111
 41
0.0111111
  0
VERTEX
  8
0
 10
7.69303
 20
5.91715
 30
0.0
 40
0.0111111
 41
0.0111111
  0
VERTEX
  8
0
 10
7.69303
 20
6.43978
 30
0.0
 40
0.0111111
 41
0.0111111
  0
VERTEX
  8
0
 10
7.81803
 20
6.43978
 30
0.0
 40
0.0111111
 41
0.0111111
  0
VERTEX
  8
0
 10
7.81803
 20
6.95047
 30
0.0
 40
0.0111111
 41
0.0111111
  0
VERTEX
  8
0
 10
7.69303
 20
6.95047
 30
0.0
 40
0.0111111
 41
0.0111111
  0
VERTEX
  8
0
 10
7.69303
 20
7.47314
 30
0.0
 40
0.0111111
 41
0.0111111
  0
VERTEX
  8
0
 10
7.81803
 20
7.47314
 30
0.0
 40
0.0111111
 41
0.0111111
  0
VERTEX
  8
0
 10
7.81803
 20
7.98383
 30
0.0
 40
0.0111111
 41
0.0111111
  0
VERTEX
  8
0
 10
7.69303
 20
7.98383
 30
0.0
 40
0.0111111
 41
0.0111111
  0
VERTEX
  8
0
 10
7.69303
 20
8.50646
 30
0.0
 40
0.0111111
 41
0.0111111
  0
VERTEX
  8
0
 10
7.81803
 20
8.50646
 30
0.0
 40
0.0111111
 41
0.0111111
  0
VERTEX
  8
0
 10
7.81803
 20
9.01714
 30
0.0
 40
0.0111111
 41
0.0111111
  0
VERTEX
  8
0
 10
7.69303
 20
9.01714
 30
0.0
 40
0.0111111
 41
0.0111111
  0
VERTEX
  8
0
 10
7.69303
 20
9.53982
 30
0.0
 40
0.0111111
 41
0.0111111
  0
VERTEX
  8
0
 10
7.81803
 20
9.53982
 30
0.0
 40
0.0111111
 41
0.0111111
  0
VERTEX
  8
0
 10
7.81803
 20
10.0535
 30
0.0
 40
0.0111111
 41
0.0111111
  0
SEQEND
 8
0
  0
POLYLINE
  8
0
 62
     0
 66
     1
 10
0
 20
0
 30
0.0
 70
     1
 40
0.732542
 41
0.732542
  0
VERTEX
  8
0
 10
1.28912
 20
8.73953
 30
0.0
 40
0.0101742
 41
0.0101742
  0
VERTEX
  8
0
 10
1.28537
 20
8.70285
 30
0.0
 40
0.0101742
 41
0.0101742
  0
VERTEX
  8
0
 10
1.27479
 20
8.66868
 30
0.0
 40
0.0101742
 41
0.0101742
  0
VERTEX
  8
0
 10
1.25798
 20
8.63775
 30
0.0
 40
0.0101742
 41
0.0101742
  0
VERTEX
  8
0
 10
1.23579
 20
8.61079
 30
0.0
 40
0.0101742
 41
0.0101742
  0
VERTEX
  8
0
 10
1.20882
 20
8.58854
 30
0.0
 40
0.0101742
 41
0.0101742
  0
VERTEX
  8
0
 10
1.1779
 20
8.57172
 30
0.0
 40
0.0101742
 41
0.0101742
  0
VERTEX
  8
0
 10
1.14372
 20
8.56114
 30
0.0
 40
0.0101742
 41
0.0101742
  0
VERTEX
  8
0
 10
1.10704
 20
8.5574
 30
0.0
 40
0.0101742
 41
0.0101742
  0
VERTEX
  8
0
 10
1.07031
 20
8.56114
 30
0.0
 40
0.0101742
 41
0.0101742
  0
VERTEX
  8
0
 10
1.03613
 20
8.57172
 30
0.0
 40
0.0101742
 41
0.0101742
  0
VERTEX
  8
0
 10
1.00521
 20
8.58854
 30
0.0
 40
0.0101742
 41
0.0101742
  0
VERTEX
  8
0
 10
0.978244
 20
8.61079
 30
0.0
 40
0.0101742
 41
0.0101742
  0
VERTEX
  8
0
 10
0.956
 20
8.63775
 30
0.0
 40
0.0101742
 41
0.0101742
  0
VERTEX
  8
0
 10
0.939182
 20
8.66868
 30
0.0
 40
0.0101742
 41
0.0101742
  0
VERTEX
  8
0
 10
0.928603
 20
8.70285
 30
0.0
 40
0.0101742
 41
0.0101742
  0
VERTEX
  8
0
 10
0.924914
 20
8.73953
 30
0.0
 40
0.0101742
 41
0.0101742
  0
VERTEX
  8
0
 10
0.928603
 20
8.77626
 30
0.0
 40
0.0101742
 41
0.0101742
  0
VERTEX
  8
0
 10
0.939182
 20
8.81044
 30
0.0
 40
0.0101742
 41
0.0101742
  0
VERTEX
  8
0
 10
0.956
 20
8.84136
 30
0.0
 40
0.0101742
 41
0.0101742
  0
VERTEX
  8
0
 10
0.978244
 20
8.86833
 30
0.0
 40
0.0101742
 41
0.0101742
  0
VERTEX
  8
0
 10
1.00521
 20
8.89051
 30
0.0
 40
0.0101742
 41
0.0101742
  0
VERTEX
  8
0
 10
1.03613
 20
8.90733
 30
0.0
 40
0.0101742
 41
0.0101742
  0
VERTEX
  8
0
 10
1.07031
 20
8.91792
 30
0.0
 40
0.0101742
 41
0.0101742
  0
VERTEX
  8
0
 10
1.10704
 20
8.9216
 30
0.0
 40
0.0101742
 41
0.0101742
  0
VERTEX
  8
0
 10
1.14372
 20
8.91792
 30
0.0
 40
0.0101742
 41
0.0101742
  0
VERTEX
  8
0
 10
1.1779
 20
8.90733
 30
0.0
 40
0.0101742
 41
0.0101742
  0
VERTEX
  8
0
 10
1.20882
 20
8.89051
 30
0.0
 40
0.0101742
 41
0.0101742
  0
VERTEX
  8
0
 10
1.23579
 20
8.86833
 30
0.0
 40
0.0101742
 41
0.0101742
  0
VERTEX
  8
0
 10
1.25798
 20
8.84136
 30
0.0
 40
0.0101742
 41
0.0101742
  0
VERTEX
  8
0
 10
1.27479
 20
8.81044
 30
0.0
 40
0.0101742
 41
0.0101742
  0
VERTEX
  8
0
 10
1.28537
 20
8.77626
 30
0.0
 40
0.0101742
 41
0.0101742
  0
VERTEX
  8
0
 10
1.28912
 20
8.73953
 30
0.0
 40
0.0101742
 41
0.0101742
  0
SEQEND
 8
0
  0
POLYLINE
  8
0
 62
     0
 66
     1
 10
0
 20
0
 30
0.0
 70
     1
 40
1.2209
 41
1.2209
  0
VERTEX
  8
0
 10
1.41054
 20
3.58219
 30
0.0
 40
0.0169569
 41
0.0169569
  0
VERTEX
  8
0
 10
1.38666
 20
3.46408
 30
0.0
 40
0.0169569
 41
0.0169569
  0
VERTEX
  8
0
 10
1.32162
 20
3.36762
 30
0.0
 40
0.0169569
 41
0.0169569
  0
VERTEX
  8
0
 10
1.22515
 20
3.30257
 30
0.0
 40
0.0169569
 41
0.0169569
  0
VERTEX
  8
0
 10
1.10704
 20
3.27869
 30
0.0
 40
0.0169569
 41
0.0169569
  0
VERTEX
  8
0
 10
0.988878
 20
3.30257
 30
0.0
 40
0.0169569
 41
0.0169569
  0
VERTEX
  8
0
 10
0.892415
 20
3.36762
 30
0.0
 40
0.0169569
 41
0.0169569
  0
VERTEX
  8
0
 10
0.827365
 20
3.46408
 30
0.0
 40
0.0169569
 41
0.0169569
  0
VERTEX
  8
0
 10
0.803549
 20
3.58219
 30
0.0
 40
0.0169569
 41
0.0169569
  0
VERTEX
  8
0
 10
0.827365
 20
3.70036
 30
0.0
 40
0.0169569
 41
0.0169569
  0
VERTEX
  8
0
 10
0.892415
 20
3.79682
 30
0.0
 40
0.0169569
 41
0.0169569
  0
VERTEX
  8
0
 10
0.988878
 20
3.86187
 30
0.0
 40
0.0169569
 41
0.0169569
  0
VERTEX
  8
0
 10
1.10704
 20
3.88569
 30
0.0
 40
0.0169569
 41
0.0169569
  0
VERTEX
  8
0
 10
1.22515
 20
3.86187
 30
0.0
 40
0.0169569
 41
0.0169569
  0
VERTEX
  8
0
 10
1.32162
 20
3.79682
 30
0.0
 40
0.0169569
 41
0.0169569
  0
VERTEX
  8
0
 10
1.38666
 20
3.70036
 30
0.0
 40
0.0169569
 41
0.0169569
  0
VERTEX
  8
0
 10
1.41054
 20
3.58219
 30
0.0
 40
0.0169569
 41
0.0169569
  0
SEQEND
 8
0
  0
POLYLINE
  8
0
 62
     0
 66
     1
 10
0
 20
0
 30
0.0
 70
     1
 40
0.777461
 41
0.777461
  0
VERTEX
  8
0
 10
1.22857
 20
7.74208
 30
0.0
 40
0.0107981
 41
0.0107981
  0
VERTEX
  8
0
 10
1.21897
 20
7.69476
 30
0.0
 40
0.0107981
 41
0.0107981
  0
VERTEX
  8
0
 10
1.19293
 20
7.65614
 30
0.0
 40
0.0107981
 41
0.0107981
  0
VERTEX
  8
0
 10
1.1543
 20
7.6301
 30
0.0
 40
0.0107981
 41
0.0107981
  0
VERTEX
  8
0
 10
1.10704
 20
7.6205
 30
0.0
 40
0.0107981
 41
0.0107981
  0
VERTEX
  8
0
 10
1.05968
 20
7.6301
 30
0.0
 40
0.0107981
 41
0.0107981
  0
VERTEX
  8
0
 10
1.02105
 20
7.65614
 30
0.0
 40
0.0107981
 41
0.0107981
  0
VERTEX
  8
0
 10
0.995008
 20
7.69476
 30
0.0
 40
0.0107981
 41
0.0107981
  0
VERTEX
  8
0
 10
0.98546
 20
7.74208
 30
0.0
 40
0.0107981
 41
0.0107981
  0
VERTEX
  8
0
 10
0.995008
 20
7.78939
 30
0.0
 40
0.0107981
 41
0.0107981
  0
VERTEX
  8
0
 10
1.02105
 20
7.82801
 30
0.0
 40
0.0107981
 41
0.0107981
  0
VERTEX
  8
0
 10
1.05968
 20
7.85406
 30
0.0
 40
0.0107981
 41
0.0107981
  0
VERTEX
  8
0
 10
1.10704
 20
7.86361
 30
0.0
 40
0.0107981
 41
0.0107981
  0
VERTEX
  8
0
 10
1.1543
 20
7.85406
 30
0.0
 40
0.0107981
 41
0.0107981
  0
VERTEX
  8
0
 10
1.19293
 20
7.82801
 30
0.0
 40
0.0107981
 41
0.0107981
  0
VERTEX
  8
0
 10
1.21897
 20
7.78939
 30
0.0
 40
0.0107981
 41
0.0107981
  0
VERTEX
  8
0
 10
1.22857
 20
7.74208
 30
0.0
 40
0.0107981
 41
0.0107981
  0
SEQEND
 8
0
  0
POLYLINE
  8
0
 62
     0
 66
     1
 10
0
 20
0
 30
0.0
 70
     1
 40
0.777461
 41
0.777461
  0
VERTEX
  8
0
 10
1.22857
 20
6.71283
 30
0.0
 40
0.0107981
 41
0.0107981
  0
VERTEX
  8
0
 10
1.21897
 20
6.66558
 30
0.0
 40
0.0107981
 41
0.0107981
  0
VERTEX
  8
0
 10
1.19293
 20
6.62696
 30
0.0
 40
0.0107981
 41
0.0107981
  0
VERTEX
  8
0
 10
1.1543
 20
6.60092
 30
0.0
 40
0.0107981
 41
0.0107981
  0
VERTEX
  8
0
 10
1.10704
 20
6.59131
 30
0.0
 40
0.0107981
 41
0.0107981
  0
VERTEX
  8
0
 10
1.05968
 20
6.60092
 30
0.0
 40
0.0107981
 41
0.0107981
  0
VERTEX
  8
0
 10
1.02105
 20
6.62696
 30
0.0
 40
0.0107981
 41
0.0107981
  0
VERTEX
  8
0
 10
0.995008
 20
6.66558
 30
0.0
 40
0.0107981
 41
0.0107981
  0
VERTEX
  8
0
 10
0.98546
 20
6.71283
 30
0.0
 40
0.0107981
 41
0.0107981
  0
VERTEX
  8
0
 10
0.995008
 20
6.76019
 30
0.0
 40
0.0107981
 41
0.0107981
  0
VERTEX
  8
0
 10
1.02105
 20
6.79883
 30
0.0
 40
0.0107981
 41
0.0107981
  0
VERTEX
  8
0
 10
1.05968
 20
6.82487
 30
0.0
 40
0.0107981
 41
0.0107981
  0
VERTEX
  8
0
 10
1.10704
 20
6.83442
 30
0.0
 40
0.0107981
 41
0.0107981
  0
VERTEX
  8
0
 10
1.1543
 20
6.82487
 30
0.0
 40
0.0107981
 41
0.0107981
  0
VERTEX
  8
0
 10
1.19293
 20
6.79883
 30
0.0
 40
0.0107981
 41
0.0107981
  0
VERTEX
  8
0
 10
1.21897
 20
6.76019
 30
0.0
 40
0.0107981
 41
0.0107981
  0
VERTEX
  8
0
 10
1.22857
 20
6.71283
 30
0.0
 40
0.0107981
 41
0.0107981
  0
SEQEND
 8
0
  0
POLYLINE
  8
0
 62
     0
 66
     1
 10
0
 20
0
 30
0.0
 70
     1
 40
0.777461
 41
0.777461
  0
VERTEX
  8
0
 10
1.22857
 20
5.66493
 30
0.0
 40
0.0107981
 41
0.0107981
  0
VERTEX
  8
0
 10
1.21897
 20
5.61768
 30
0.0
 40
0.0107981
 41
0.0107981
  0
VERTEX
  8
0
 10
1.19293
 20
5.57904
 30
0.0
 40
0.0107981
 41
0.0107981
  0
VERTEX
  8
0
 10
1.1543
 20
5.553
 30
0.0
 40
0.0107981
 41
0.0107981
  0
VERTEX
  8
0
 10
1.10704
 20
5.5434
 30
0.0
 40
0.0107981
 41
0.0107981
  0
VERTEX
  8
0
 10
1.05968
 20
5.553
 30
0.0
 40
0.0107981
 41
0.0107981
  0
VERTEX
  8
0
 10
1.02105
 20
5.57904
 30
0.0
 40
0.0107981
 41
0.0107981
  0
VERTEX
  8
0
 10
0.995008
 20
5.61768
 30
0.0
 40
0.0107981
 41
0.0107981
  0
VERTEX
  8
0
 10
0.98546
 20
5.66493
 30
0.0
 40
0.0107981
 41
0.0107981
  0
VERTEX
  8
0
 10
0.995008
 20
5.71229
 30
0.0
 40
0.0107981
 41
0.0107981
  0
VERTEX
  8
0
 10
1.02105
 20
5.75092
 30
0.0
 40
0.0107981
 41
0.0107981
  0
VERTEX
  8
0
 10
1.05968
 20
5.77696
 30
0.0
 40
0.0107981
 41
0.0107981
  0
VERTEX
  8
0
 10
1.10704
 20
5.78651
 30
0.0
 40
0.0107981
 41
0.0107981
  0
VERTEX
  8
0
 10
1.1543
 20
5.77696
 30
0.0
 40
0.0107981
 41
0.0107981
  0
VERTEX
  8
0
 10
1.19293
 20
5.75092
 30
0.0
 40
0.0107981
 41
0.0107981
  0
VERTEX
  8
0
 10
1.21897
 20
5.71229
 30
0.0
 40
0.0107981
 41
0.0107981
  0
VERTEX
  8
0
 10
1.22857
 20
5.66493
 30
0.0
 40
0.0107981
 41
0.0107981
  0
SEQEND
 8
0
  0
POLYLINE
  8
0
 62
     0
 66
     1
 10
0
 20
0
 30
0.0
 40
0.8
 41
0.8
  0
VERTEX
  8
0
 10
5.96733
 20
2.13194
 30
0.0
 40
0.0111111
 41
0.0111111
  0
VERTEX
  8
0
 10
5.96733
 20
1.50993
 30
0.0
 40
0.0111111
 41
0.0111111
  0
VERTEX
  8
0
 10
6.09233
 20
1.50993
 30
0.0
 40
0.0111111
 41
0.0111111
  0
VERTEX
  8
0
 10
6.09233
 20
0.753961
 30
0.0
 40
0.0111111
 41
0.0111111
  0
VERTEX
  8
0
 10
5.96733
 20
0.753961
 30
0.0
 40
0.0111111
 41
0.0111111
  0
VERTEX
  8
0
 10
5.96733
 20
0.131944
 30
0.0
 40
0.0111111
 41
0.0111111
  0
SEQEND
 8
0
  0
POLYLINE
  8
0
 62
     0
 66
     1
 10
0
 20
0
 30
0.0
 40
0.8
 41
0.8
  0
VERTEX
  8
0
 10
3.21733
 20
0.131944
 30
0.0
 40
0.0111111
 41
0.0111111
  0
VERTEX
  8
0
 10
3.21733
 20
0.753961
 30
0.0
 40
0.0111111
 41
0.0111111
  0
VERTEX
  8
0
 10
3.09233
 20
0.753961
 30
0.0
 40
0.0111111
 41
0.0111111
  0
VERTEX
  8
0
 10
3.09233
 20
1.50993
 30
0.0
 40
0.0111111
 41
0.0111111
  0
VERTEX
  8
0
 10
3.21733
 20
1.50993
 30
0.0
 40
0.0111111
 41
0.0111111
  0
VERTEX
  8
0
 10
3.21733
 20
2.13194
 30
0.0
 40
0.0111111
 41
0.0111111
  0
SEQEND
 8
0
  0
POLYLINE
  8
0
 62
     0
 66
     1
 10
0
 20
0
 30
0.0
 40
0.8
 41
0.8
  0
VERTEX
  8
0
 10
3.21733
 20
2.13194
 30
0.0
 40
0.0111111
 41
0.0111111
  0
VERTEX
  8
0
 10
3.68935
 20
2.13194
 30
0.0
 40
0.0111111
 41
0.0111111
  0
VERTEX
  8
0
 10
3.68935
 20
2.25694
 30
0.0
 40
0.0111111
 41
0.0111111
  0
VERTEX
  8
0
 10
4.29536
 20
2.25694
 30
0.0
 40
0.0111111
 41
0.0111111
  0
VERTEX
  8
0
 10
4.29536
 20
2.13194
 30
0.0
 40
0.0111111
 41
0.0111111
  0
VERTEX
  8
0
 10
4.88938
 20
2.13194
 30
0.0
 40
0.0111111
 41
0.0111111
  0
VERTEX
  8
0
 10
4.88938
 20
2.25694
 30
0.0
 40
0.0111111
 41
0.0111111
  0
VERTEX
  8
0
 10
5.49533
 20
2.25694
 30
0.0
 40
0.0111111
 41
0.0111111
  0
VERTEX
  8
0
 10
5.49533
 20
2.13194
 30
0.0
 40
0.0111111
 41
0.0111111
  0
VERTEX
  8
0
 10
5.96733
 20
2.13194
 30
0.0
 40
0.0111111
 41
0.0111111
  0
SEQEND
 8
0
  0
POLYLINE
  8
0
 62
     0
 66
     1
 10
0
 20
0
 30
0.0
 40
0.8
 41
0.8
  0
VERTEX
  8
0
 10
5.96733
 20
0.131944
 30
0.0
 40
0.0111111
 41
0.0111111
  0
VERTEX
  8
0
 10
5.49533
 20
0.131944
 30
0.0
 40
0.0111111
 41
0.0111111
  0
VERTEX
  8
0
 10
5.49533
 20
0.00694444
 30
0.0
 40
0.0111111
 41
0.0111111
  0
VERTEX
  8
0
 10
4.88938
 20
0.00694444
 30
0.0
 40
0.0111111
 41
0.0111111
  0
VERTEX
  8
0
 10
4.88938
 20
0.131944
 30
0.0
 40
0.0111111
 41
0.0111111
  0
VERTEX
  8
0
 10
4.29536
 20
0.131944
 30
0.0
 40
0.0111111
 41
0.0111111
  0
VERTEX
  8
0
 10
4.29536
 20
0.00694444
 30
0.0
 40
0.0111111
 41
0.0111111
  0
VERTEX
  8
0
 10
3.68935
 20
0.00694444
 30
0.0
 40
0.0111111
 41
0.0111111
  0
VERTEX
  8
0
 10
3.68935
 20
0.131944
 30
0.0
 40
0.0111111
 41
0.0111111
  0
VERTEX
  8
0
 10
3.21733
 20
0.131944
 30
0.0
 40
0.0111111
 41
0.0111111
  0
SEQEND
 8
0
  0
POLYLINE
  8
0
 62
     0
 66
     1
 10
0
 20
0
 30
0.0
 40
0.8
 41
0.8
  0
VERTEX
  8
0
 10
2.90072
 20
2.13053
 30
0.0
 40
0.0111111
 41
0.0111111
  0
VERTEX
  8
0
 10
2.90072
 20
1.50857
 30
0.0
 40
0.0111111
 41
0.0111111
  0
VERTEX
  8
0
 10
3.02572
 20
1.50857
 30
0.0
 40
0.0111111
 41
0.0111111
  0
VERTEX
  8
0
 10
3.02572
 20
0.75255
 30
0.0
 40
0.0111111
 41
0.0111111
  0
VERTEX
  8
0
 10
2.90072
 20
0.75255
 30
0.0
 40
0.0111111
 41
0.0111111
  0
VERTEX
  8
0
 10
2.90072
 20
0.130534
 30
0.0
 40
0.0111111
 41
0.0111111
  0
SEQEND
 8
0
  0
POLYLINE
  8
0
 62
     0
 66
     1
 10
0
 20
0
 30
0.0
 40
0.8
 41
0.8
  0
VERTEX
  8
0
 10
2.90072
 20
0.130534
 30
0.0
 40
0.0111111
 41
0.0111111
  0
VERTEX
  8
0
 10
2.42871
 20
0.130534
 30
0.0
 40
0.0111111
 41
0.0111111
  0
VERTEX
  8
0
 10
2.42871
 20
0.00553386
 30
0.0
 40
0.0111111
 41
0.0111111
  0
VERTEX
  8
0
 10
1.82269
 20
0.00553386
 30
0.0
 40
0.0111111
 41
0.0111111
  0
VERTEX
  8
0
 10
1.82269
 20
0.130534
 30
0.0
 40
0.0111111
 41
0.0111111
  0
VERTEX
  8
0
 10
1.22868
 20
0.130534
 30
0.0
 40
0.0111111
 41
0.0111111
  0
VERTEX
  8
0
 10
1.22868
 20
0.00553386
 30
0.0
 40
0.0111111
 41
0.0111111
  0
VERTEX
  8
0
 10
0.622721
 20
0.00553386
 30
0.0
 40
0.0111111
 41
0.0111111
  0
VERTEX
  8
0
 10
0.622721
 20
0.130534
 30
0.0
 40
0.0111111
 41
0.0111111
  0
VERTEX
  8
0
 10
0.150717
 20
0.130534
 30
0.0
 40
0.0111111
 41
0.0111111
  0
SEQEND
 8
0
  0
POLYLINE
  8
0
 62
     0
 66
     1
 10
0
 20
0
 30
0.0
 40
0.8
 41
0.8
  0
VERTEX
  8
0
 10
0.150717
 20
0.130534
 30
0.0
 40
0.0111111
 41
0.0111111
  0
VERTEX
  8
0
 10
0.150717
 20
0.75255
 30
0.0
 40
0.0111111
 41
0.0111111
  0
VERTEX
  8
0
 10
0.0257161
 20
0.75255
 30
0.0
 40
0.0111111
 41
0.0111111
  0
VERTEX
  8
0
 10
0.0257161
 20
1.50857
 30
0.0
 40
0.0111111
 41
0.0111111
  0
VERTEX
  8
0
 10
0.150717
 20
1.50857
 30
0.0
 40
0.0111111
 41
0.0111111
  0
VERTEX
  8
0
 10
0.150717
 20
2.13053
 30
0.0
 40
0.0111111
 41
0.0111111
  0
SEQEND
 8
0
  0
POLYLINE
  8
0
 62
     0
 66
     1
 10
0
 20
0
 30
0.0
 40
0.8
 41
0.8
  0
VERTEX
  8
0
 10
0.150717
 20
2.13053
 30
0.0
 40
0.0111111
 41
0.0111111
  0
VERTEX
  8
0
 10
0.622721
 20
2.13053
 30
0.0
 40
0.0111111
 41
0.0111111
  0
VERTEX
  8
0
 10
0.622721
 20
2.25553
 30
0.0
 40
0.0111111
 41
0.0111111
  0
VERTEX
  8
0
 10
1.22868
 20
2.25553
 30
0.0
 40
0.0111111
 41
0.0111111
  0
VERTEX
  8
0
 10
1.22868
 20
2.13053
 30
0.0
 40
0.0111111
 41
0.0111111
  0
VERTEX
  8
0
 10
1.82269
 20
2.13053
 30
0.0
 40
0.0111111
 41
0.0111111
  0
VERTEX
  8
0
 10
1.82269
 20
2.25553
 30
0.0
 40
0.0111111
 41
0.0111111
  0
VERTEX
  8
0
 10
2.42871
 20
2.25553
 30
0.0
 40
0.0111111
 41
0.0111111
  0
VERTEX
  8
0
 10
2.42871
 20
2.13053
 30
0.0
 40
0.0111111
 41
0.0111111
  0
VERTEX
  8
0
 10
2.90072
 20
2.13053
 30
0.0
 40
0.0111111
 41
0.0111111
  0
SEQEND
 8
0
  0
POLYLINE
  8
0
 62
     0
 66
     1
 10
0
 20
0
 30
0.0
 70
     1
 40
0.8
 41
0.8
  0
VERTEX
  8
0
 10
5.96815
 20
1.88661
 30
0.0
 40
0.0111111
 41
0.0111111
  0
VERTEX
  8
0
 10
5.92529
 20
1.88687
 30
0.0
 40
0.0111111
 41
0.0111111
  0
VERTEX
  8
0
 10
5.90847
 20
1.8865
 30
0.0
 40
0.0111111
 41
0.0111111
  0
VERTEX
  8
0
 10
5.90213
 20
1.88574
 30
0.0
 40
0.0111111
 41
0.0111111
  0
VERTEX
  8
0
 10
5.89063
 20
1.88471
 30
0.0
 40
0.0111111
 41
0.0111111
  0
VERTEX
  8
0
 10
5.86285
 20
1.87674
 30
0.0
 40
0.0111111
 41
0.0111111
  0
VERTEX
  8
0
 10
5.84283
 20
1.85726
 30
0.0
 40
0.0111111
 41
0.0111111
  0
VERTEX
  8
0
 10
5.83057
 20
1.83024
 30
0.0
 40
0.0111111
 41
0.0111111
  0
VERTEX
  8
0
 10
5.82617
 20
1.79949
 30
0.0
 40
0.0111111
 41
0.0111111
  0
VERTEX
  8
0
 10
5.82981
 20
1.76888
 30
0.0
 40
0.0111111
 41
0.0111111
  0
VERTEX
  8
0
 10
5.84142
 20
1.74229
 30
0.0
 40
0.0111111
 41
0.0111111
  0
VERTEX
  8
0
 10
5.86122
 20
1.72358
 30
0.0
 40
0.0111111
 41
0.0111111
  0
VERTEX
  8
0
 10
5.88921
 20
1.71664
 30
0.0
 40
0.0111111
 41
0.0111111
  0
VERTEX
  8
0
 10
5.91319
 20
1.71701
 30
0.0
 40
0.0111111
 41
0.0111111
  0
VERTEX
  8
0
 10
5.92681
 20
1.71718
 30
0.0
 40
0.0111111
 41
0.0111111
  0
VERTEX
  8
0
 10
5.93321
 20
1.71724
 30
0.0
 40
0.0111111
 41
0.0111111
  0
VERTEX
  8
0
 10
5.93565
 20
1.71729
 30
0.0
 40
0.0111111
 41
0.0111111
  0
VERTEX
  8
0
 10
5.93733
 20
1.71739
 30
0.0
 40
0.0111111
 41
0.0111111
  0
VERTEX
  8
0
 10
5.9414
 20
1.71761
 30
0.0
 40
0.0111111
 41
0.0111111
  0
VERTEX
  8
0
 10
5.95107
 20
1.71804
 30
0.0
 40
0.0111111
 41
0.0111111
  0
VERTEX
  8
0
 10
5.96962
 20
1.71875
 30
0.0
 40
0.0111111
 41
0.0111111
  0
VERTEX
  8
0
 10
5.9694
 20
1.72254
 30
0.0
 40
0.0111111
 41
0.0111111
  0
VERTEX
  8
0
 10
5.96918
 20
1.72678
 30
0.0
 40
0.0111111
 41
0.0111111
  0
VERTEX
  8
0
 10
5.96897
 20
1.73361
 30
0.0
 40
0.0111111
 41
0.0111111
  0
VERTEX
  8
0
 10
5.96869
 20
1.74539
 30
0.0
 40
0.0111111
 41
0.0111111
  0
VERTEX
  8
0
 10
5.96847
 20
1.76438
 30
0.0
 40
0.0111111
 41
0.0111111
  0
VERTEX
  8
0
 10
5.96832
 20
1.79269
 30
0.0
 40
0.0111111
 41
0.0111111
  0
VERTEX
  8
0
 10
5.96815
 20
1.83274
 30
0.0
 40
0.0111111
 41
0.0111111
  0
VERTEX
  8
0
 10
5.96815
 20
1.88661
 30
0.0
 40
0.0111111
 41
0.0111111
  0
SEQEND
 8
0
  0
POLYLINE
  8
0
 62
     0
 66
     1
 10
0
 20
0
 30
0.0
 40
0.2368
 41
0.2368
  0
VERTEX
  8
0
 10
1.10704
 20
8.74089
 30
0.0
 40
0.00328889
 41
0.00328889
  0
VERTEX
  8
0
 10
1.10704
 20
9.10508
 30
0.0
 40
0.00328889
 41
0.00328889
  0
SEQEND
 8
0
  0
POLYLINE
  8
0
 62
     0
 66
     1
 10
0
 20
0
 30
0.0
 70
     1
 40
0
 41
0
  0
VERTEX
  8
0
 10
1.28668
 20
9.16433
 30
0.0
 40
0
 41
0
  0
VERTEX
  8
0
 10
1.28928
 20
9.15457
 30
0.0
 40
0
 41
0
  0
VERTEX
  8
0
 10
1.29796
 20
9.15132
 30
0.0
 40
0
 41
0
  0
VERTEX
  8
0
 10
1.30556
 20
9.15261
 30
0.0
 40
0
 41
0
  0
VERTEX
  8
0
 10
1.31142
 20
9.15653
 30
0.0
 40
0
 41
0
  0
VERTEX
  8
0
 10
1.3151
 20
9.1626
 30
0.0
 40
0
 41
0
  0
VERTEX
  8
0
 10
1.31641
 20
9.17062
 30
0.0
 40
0
 41
0
  0
VERTEX
  8
0
 10
1.31641
 20
9.18192
 30
0.0
 40
0
 41
0
  0
VERTEX
  8
0
 10
1.30751
 20
9.18147
 30
0.0
 40
0
 41
0
  0
VERTEX
  8
0
 10
1.29753
 20
9.17996
 30
0.0
 40
0
 41
0
  0
VERTEX
  8
0
 10
1.29123
 20
9.17671
 30
0.0
 40
0
 41
0
  0
VERTEX
  8
0
 10
1.28776
 20
9.1715
 30
0.0
 40
0
 41
0
  0
VERTEX
  8
0
 10
1.28668
 20
9.16433
 30
0.0
 40
0
 41
0
  0
SEQEND
 8
0
  0
POLYLINE
  8
0
 62
     0
 66
     1
 10
0
 20
0
 30
0.0
 70
     1
 40
0
 41
0
  0
VERTEX
  8
0
 10
1.3036
 20
9.21317
 30
0.0
 40
0
 41
0
  0
VERTEX
  8
0
 10
1.29688
 20
9.21186
 30
0.0
 40
0
 41
0
  0
VERTEX
  8
0
 10
1.29319
 20
9.20861
 30
0.0
 40
0
 41
0
  0
VERTEX
  8
0
 10
1.29123
 20
9.20383
 30
0.0
 40
0
 41
0
  0
VERTEX
  8
0
 10
1.2908
 20
9.19797
 30
0.0
 40
0
 41
0
  0
VERTEX
  8
0
 10
1.28212
 20
9.19993
 30
0.0
 40
0
 41
0
  0
VERTEX
  8
0
 10
1.27908
 20
9.20665
 30
0.0
 40
0
 41
0
  0
VERTEX
  8
0
 10
1.28103
 20
9.21272
 30
0.0
 40
0
 41
0
  0
VERTEX
  8
0
 10
1.28624
 20
9.21685
 30
0.0
 40
0
 41
0
  0
VERTEX
  8
0
 10
1.29427
 20
9.21924
 30
0.0
 40
0
 41
0
  0
VERTEX
  8
0
 10
1.30404
 20
9.21989
 30
0.0
 40
0
 41
0
  0
VERTEX
  8
0
 10
1.3151
 20
9.21858
 30
0.0
 40
0
 41
0
  0
VERTEX
  8
0
 10
1.32313
 20
9.21468
 30
0.0
 40
0
 41
0
  0
VERTEX
  8
0
 10
1.32791
 20
9.20708
 30
0.0
 40
0
 41
0
  0
VERTEX
  8
0
 10
1.32943
 20
9.19601
 30
0.0
 40
0
 41
0
  0
VERTEX
  8
0
 10
1.32943
 20
9.16
 30
0.0
 40
0
 41
0
  0
VERTEX
  8
0
 10
1.32986
 20
9.155
 30
0.0
 40
0
 41
0
  0
VERTEX
  8
0
 10
1.33138
 20
9.15196
 30
0.0
 40
0
 41
0
  0
VERTEX
  8
0
 10
1.33398
 20
9.15044
 30
0.0
 40
0
 41
0
  0
VERTEX
  8
0
 10
1.33811
 20
9.15001
 30
0.0
 40
0
 41
0
  0
VERTEX
  8
0
 10
1.33854
 20
9.15001
 30
0.0
 40
0
 41
0
  0
VERTEX
  8
0
 10
1.33854
 20
9.14415
 30
0.0
 40
0
 41
0
  0
VERTEX
  8
0
 10
1.31966
 20
9.14415
 30
0.0
 40
0
 41
0
  0
VERTEX
  8
0
 10
1.31749
 20
9.15608
 30
0.0
 40
0
 41
0
  0
VERTEX
  8
0
 10
1.31641
 20
9.15608
 30
0.0
 40
0
 41
0
  0
VERTEX
  8
0
 10
1.31207
 20
9.15067
 30
0.0
 40
0
 41
0
  0
VERTEX
  8
0
 10
1.30773
 20
9.14654
 30
0.0
 40
0
 41
0
  0
VERTEX
  8
0
 10
1.30208
 20
9.14393
 30
0.0
 40
0
 41
0
  0
VERTEX
  8
0
 10
1.29471
 20
9.14285
 30
0.0
 40
0
 41
0
  0
VERTEX
  8
0
 10
1.28603
 20
9.14415
 30
0.0
 40
0
 41
0
  0
VERTEX
  8
0
 10
1.2793
 20
9.14806
 30
0.0
 40
0
 41
0
  0
VERTEX
  8
0
 10
1.27474
 20
9.155
 30
0.0
 40
0
 41
0
  0
VERTEX
  8
0
 10
1.27322
 20
9.16499
 30
0.0
 40
0
 41
0
  0
VERTEX
  8
0
 10
1.28103
 20
9.18126
 30
0.0
 40
0
 41
0
  0
VERTEX
  8
0
 10
1.3049
 20
9.18713
 30
0.0
 40
0
 41
0
  0
VERTEX
  8
0
 10
1.31641
 20
9.18756
 30
0.0
 40
0
 41
0
  0
VERTEX
  8
0
 10
1.31641
 20
9.19601
 30
0.0
 40
0
 41
0
  0
VERTEX
  8
0
 10
1.31597
 20
9.20275
 30
0.0
 40
0
 41
0
  0
VERTEX
  8
0
 10
1.31424
 20
9.20817
 30
0.0
 40
0
 41
0
  0
VERTEX
  8
0
 10
1.31033
 20
9.21186
 30
0.0
 40
0
 41
0
  0
VERTEX
  8
0
 10
1.3036
 20
9.21317
 30
0.0
 40
0
 41
0
  0
SEQEND
 8
0
  0
POLYLINE
  8
0
 62
     0
 66
     1
 10
0
 20
0
 30
0.0
 70
     1
 40
0
 41
0
  0
VERTEX
  8
0
 10
1.39963
 20
9.17128
 30
0.0
 40
0
 41
0
  0
VERTEX
  8
0
 10
1.39963
 20
9.16
 30
0.0
 40
0
 41
0
  0
VERTEX
  8
0
 10
1.4005
 20
9.15479
 30
0.0
 40
0
 41
0
  0
VERTEX
  8
0
 10
1.4031
 20
9.15175
 30
0.0
 40
0
 41
0
  0
VERTEX
  8
0
 10
1.40657
 20
9.15022
 30
0.0
 40
0
 41
0
  0
VERTEX
  8
0
 10
1.41114
 20
9.15001
 30
0.0
 40
0
 41
0
  0
VERTEX
  8
0
 10
1.41287
 20
9.15001
 30
0.0
 40
0
 41
0
  0
VERTEX
  8
0
 10
1.41287
 20
9.14415
 30
0.0
 40
0
 41
0
  0
VERTEX
  8
0
 10
1.3712
 20
9.14415
 30
0.0
 40
0
 41
0
  0
VERTEX
  8
0
 10
1.3712
 20
9.15001
 30
0.0
 40
0
 41
0
  0
VERTEX
  8
0
 10
1.37511
 20
9.15001
 30
0.0
 40
0
 41
0
  0
VERTEX
  8
0
 10
1.37945
 20
9.15022
 30
0.0
 40
0
 41
0
  0
VERTEX
  8
0
 10
1.38314
 20
9.15175
 30
0.0
 40
0
 41
0
  0
VERTEX
  8
0
 10
1.38552
 20
9.15479
 30
0.0
 40
0
 41
0
  0
VERTEX
  8
0
 10
1.38639
 20
9.16
 30
0.0
 40
0
 41
0
  0
VERTEX
  8
0
 10
1.38639
 20
9.17128
 30
0.0
 40
0
 41
0
  0
VERTEX
  8
0
 10
1.34364
 20
9.17128
 30
0.0
 40
0
 41
0
  0
VERTEX
  8
0
 10
1.34364
 20
9.17714
 30
0.0
 40
0
 41
0
  0
VERTEX
  8
0
 10
1.38661
 20
9.24333
 30
0.0
 40
0
 41
0
  0
VERTEX
  8
0
 10
1.39963
 20
9.24333
 30
0.0
 40
0
 41
0
  0
VERTEX
  8
0
 10
1.39963
 20
9.1791
 30
0.0
 40
0
 41
0
  0
VERTEX
  8
0
 10
1.41699
 20
9.1791
 30
0.0
 40
0
 41
0
  0
VERTEX
  8
0
 10
1.41699
 20
9.17128
 30
0.0
 40
0
 41
0
  0
VERTEX
  8
0
 10
1.39963
 20
9.17128
 30
0.0
 40
0
 41
0
  0
SEQEND
 8
0
  0
POLYLINE
  8
0
 62
     0
 66
     1
 10
0
 20
0
 30
0.0
 70
     1
 40
0
 41
0
  0
VERTEX
  8
0
 10
1.38639
 20
9.20492
 30
0.0
 40
0
 41
0
  0
VERTEX
  8
0
 10
1.38639
 20
9.21164
 30
0.0
 40
0
 41
0
  0
VERTEX
  8
0
 10
1.38661
 20
9.21903
 30
0.0
 40
0
 41
0
  0
VERTEX
  8
0
 10
1.38683
 20
9.22661
 30
0.0
 40
0
 41
0
  0
VERTEX
  8
0
 10
1.38748
 20
9.23356
 30
0.0
 40
0
 41
0
  0
VERTEX
  8
0
 10
1.38596
 20
9.23096
 30
0.0
 40
0
 41
0
  0
VERTEX
  8
0
 10
1.38401
 20
9.22749
 30
0.0
 40
0
 41
0
  0
VERTEX
  8
0
 10
1.38162
 20
9.22336
 30
0.0
 40
0
 41
0
  0
VERTEX
  8
0
 10
1.37902
 20
9.21903
 30
0.0
 40
0
 41
0
  0
VERTEX
  8
0
 10
1.37684
 20
9.21511
 30
0.0
 40
0
 41
0
  0
VERTEX
  8
0
 10
1.37489
 20
9.21229
 30
0.0
 40
0
 41
0
  0
VERTEX
  8
0
 10
1.35362
 20
9.1791
 30
0.0
 40
0
 41
0
  0
VERTEX
  8
0
 10
1.38639
 20
9.1791
 30
0.0
 40
0
 41
0
  0
VERTEX
  8
0
 10
1.38639
 20
9.20492
 30
0.0
 40
0
 41
0
  0
SEQEND
 8
0
  0
POLYLINE
  8
0
 62
     0
 66
     1
 10
0
 20
0
 30
0.0
 70
     1
 40
0
 41
0
  0
VERTEX
  8
0
 10
1.48324
 20
8.98101
 30
0.0
 40
0
 41
0
  0
VERTEX
  8
0
 10
1.48757
 20
8.98122
 30
0.0
 40
0
 41
0
  0
VERTEX
  8
0
 10
1.49126
 20
8.98275
 30
0.0
 40
0
 41
0
  0
VERTEX
  8
0
 10
1.49365
 20
8.98579
 30
0.0
 40
0
 41
0
  0
VERTEX
  8
0
 10
1.49451
 20
8.991
 30
0.0
 40
0
 41
0
  0
VERTEX
  8
0
 10
1.49451
 20
9.06543
 30
0.0
 40
0
 41
0
  0
VERTEX
  8
0
 10
1.49365
 20
9.07021
 30
0.0
 40
0
 41
0
  0
VERTEX
  8
0
 10
1.49104
 20
9.07324
 30
0.0
 40
0
 41
0
  0
VERTEX
  8
0
 10
1.48736
 20
9.07454
 30
0.0
 40
0
 41
0
  0
VERTEX
  8
0
 10
1.48324
 20
9.07476
 30
0.0
 40
0
 41
0
  0
VERTEX
  8
0
 10
1.48128
 20
9.07476
 30
0.0
 40
0
 41
0
  0
VERTEX
  8
0
 10
1.48128
 20
9.08062
 30
0.0
 40
0
 41
0
  0
VERTEX
  8
0
 10
1.50754
 20
9.08062
 30
0.0
 40
0
 41
0
  0
VERTEX
  8
0
 10
1.50754
 20
8.991
 30
0.0
 40
0
 41
0
  0
VERTEX
  8
0
 10
1.5084
 20
8.98579
 30
0.0
 40
0
 41
0
  0
VERTEX
  8
0
 10
1.51101
 20
8.98275
 30
0.0
 40
0
 41
0
  0
VERTEX
  8
0
 10
1.51449
 20
8.98122
 30
0.0
 40
0
 41
0
  0
VERTEX
  8
0
 10
1.51904
 20
8.98101
 30
0.0
 40
0
 41
0
  0
VERTEX
  8
0
 10
1.52078
 20
8.98101
 30
0.0
 40
0
 41
0
  0
VERTEX
  8
0
 10
1.52078
 20
8.97515
 30
0.0
 40
0
 41
0
  0
VERTEX
  8
0
 10
1.48128
 20
8.97515
 30
0.0
 40
0
 41
0
  0
VERTEX
  8
0
 10
1.48128
 20
8.98101
 30
0.0
 40
0
 41
0
  0
VERTEX
  8
0
 10
1.48324
 20
8.98101
 30
0.0
 40
0
 41
0
  0
SEQEND
 8
0
  0
POLYLINE
  8
0
 62
     0
 66
     1
 10
0
 20
0
 30
0.0
 70
     1
 40
0
 41
0
  0
VERTEX
  8
0
 10
1.59407
 20
9.04676
 30
0.0
 40
0
 41
0
  0
VERTEX
  8
0
 10
1.59364
 20
9.04394
 30
0.0
 40
0
 41
0
  0
VERTEX
  8
0
 10
1.59213
 20
9.04156
 30
0.0
 40
0
 41
0
  0
VERTEX
  8
0
 10
1.58996
 20
9.04004
 30
0.0
 40
0
 41
0
  0
VERTEX
  8
0
 10
1.58669
 20
9.03939
 30
0.0
 40
0
 41
0
  0
VERTEX
  8
0
 10
1.58649
 20
9.04113
 30
0.0
 40
0
 41
0
  0
VERTEX
  8
0
 10
1.58561
 20
9.04264
 30
0.0
 40
0
 41
0
  0
VERTEX
  8
0
 10
1.58431
 20
9.04372
 30
0.0
 40
0
 41
0
  0
VERTEX
  8
0
 10
1.58214
 20
9.04417
 30
0.0
 40
0
 41
0
  0
VERTEX
  8
0
 10
1.57867
 20
9.04372
 30
0.0
 40
0
 41
0
  0
VERTEX
  8
0
 10
1.57607
 20
9.04243
 30
0.0
 40
0
 41
0
  0
VERTEX
  8
0
 10
1.57997
 20
9.03549
 30
0.0
 40
0
 41
0
  0
VERTEX
  8
0
 10
1.58149
 20
9.02572
 30
0.0
 40
0
 41
0
  0
VERTEX
  8
0
 10
1.57997
 20
9.01617
 30
0.0
 40
0
 41
0
  0
VERTEX
  8
0
 10
1.57519
 20
9.00857
 30
0.0
 40
0
 41
0
  0
VERTEX
  8
0
 10
1.56739
 20
9.00358
 30
0.0
 40
0
 41
0
  0
VERTEX
  8
0
 10
1.55653
 20
9.00185
 30
0.0
 40
0
 41
0
  0
VERTEX
  8
0
 10
1.55458
 20
9.00185
 30
0.0
 40
0
 41
0
  0
VERTEX
  8
0
 10
1.55263
 20
9.00185
 30
0.0
 40
0
 41
0
  0
VERTEX
  8
0
 10
1.55067
 20
9.00185
 30
0.0
 40
0
 41
0
  0
VERTEX
  8
0
 10
1.54938
 20
9.00228
 30
0.0
 40
0
 41
0
  0
VERTEX
  8
0
 10
1.54656
 20
9.00076
 30
0.0
 40
0
 41
0
  0
VERTEX
  8
0
 10
1.5446
 20
8.99881
 30
0.0
 40
0
 41
0
  0
VERTEX
  8
0
 10
1.54308
 20
8.99664
 30
0.0
 40
0
 41
0
  0
VERTEX
  8
0
 10
1.54264
 20
8.99382
 30
0.0
 40
0
 41
0
  0
VERTEX
  8
0
 10
1.54329
 20
8.991
 30
0.0
 40
0
 41
0
  0
VERTEX
  8
0
 10
1.54503
 20
8.98926
 30
0.0
 40
0
 41
0
  0
VERTEX
  8
0
 10
1.54764
 20
8.98861
 30
0.0
 40
0
 41
0
  0
VERTEX
  8
0
 10
1.55111
 20
8.98861
 30
0.0
 40
0
 41
0
  0
VERTEX
  8
0
 10
1.56694
 20
8.98861
 30
0.0
 40
0
 41
0
  0
VERTEX
  8
0
 10
1.57758
 20
8.98687
 30
0.0
 40
0
 41
0
  0
VERTEX
  8
0
 10
1.58453
 20
8.98253
 30
0.0
 40
0
 41
0
  0
VERTEX
  8
0
 10
1.58865
 20
8.97601
 30
0.0
 40
0
 41
0
  0
VERTEX
  8
0
 10
1.58996
 20
8.96778
 30
0.0
 40
0
 41
0
  0
VERTEX
  8
0
 10
1.58757
 20
8.95692
 30
0.0
 40
0
 41
0
  0
VERTEX
  8
0
 10
1.58083
 20
8.94889
 30
0.0
 40
0
 41
0
  0
VERTEX
  8
0
 10
1.56933
 20
8.94368
 30
0.0
 40
0
 41
0
  0
VERTEX
  8
0
 10
1.55306
 20
8.94174
 30
0.0
 40
0
 41
0
  0
VERTEX
  8
0
 10
1.53136
 20
8.94715
 30
0.0
 40
0
 41
0
  0
VERTEX
  8
0
 10
1.52419
 20
8.96213
 30
0.0
 40
0
 41
0
  0
VERTEX
  8
0
 10
1.5255
 20
8.96929
 30
0.0
 40
0
 41
0
  0
VERTEX
  8
0
 10
1.5294
 20
8.9745
 30
0.0
 40
0
 41
0
  0
VERTEX
  8
0
 10
1.53483
 20
8.97797
 30
0.0
 40
0
 41
0
  0
VERTEX
  8
0
 10
1.54156
 20
8.97993
 30
0.0
 40
0
 41
0
  0
VERTEX
  8
0
 10
1.53874
 20
8.98144
 30
0.0
 40
0
 41
0
  0
VERTEX
  8
0
 10
1.53635
 20
8.98383
 30
0.0
 40
0
 41
0
  0
VERTEX
  8
0
 10
1.5344
 20
8.98708
 30
0.0
 40
0
 41
0
  0
VERTEX
  8
0
 10
1.53375
 20
8.99121
 30
0.0
 40
0
 41
0
  0
VERTEX
  8
0
 10
1.53592
 20
8.99838
 30
0.0
 40
0
 41
0
  0
VERTEX
  8
0
 10
1.54286
 20
9.00424
 30
0.0
 40
0
 41
0
  0
VERTEX
  8
0
 10
1.53765
 20
9.00771
 30
0.0
 40
0
 41
0
  0
VERTEX
  8
0
 10
1.53353
 20
9.01247
 30
0.0
 40
0
 41
0
  0
VERTEX
  8
0
 10
1.53114
 20
9.01856
 30
0.0
 40
0
 41
0
  0
VERTEX
  8
0
 10
1.53028
 20
9.02528
 30
0.0
 40
0
 41
0
  0
VERTEX
  8
0
 10
1.53179
 20
9.03614
 30
0.0
 40
0
 41
0
  0
VERTEX
  8
0
 10
1.53678
 20
9.04417
 30
0.0
 40
0
 41
0
  0
VERTEX
  8
0
 10
1.54482
 20
9.04915
 30
0.0
 40
0
 41
0
  0
VERTEX
  8
0
 10
1.55653
 20
9.05089
 30
0.0
 40
0
 41
0
  0
VERTEX
  8
0
 10
1.56131
 20
9.05046
 30
0.0
 40
0
 41
0
  0
VERTEX
  8
0
 10
1.56586
 20
9.04958
 30
0.0
 40
0
 41
0
  0
VERTEX
  8
0
 10
1.56956
 20
9.04807
 30
0.0
 40
0
 41
0
  0
VERTEX
  8
0
 10
1.57237
 20
9.04633
 30
0.0
 40
0
 41
0
  0
VERTEX
  8
0
 10
1.57476
 20
9.04872
 30
0.0
 40
0
 41
0
  0
VERTEX
  8
0
 10
1.57781
 20
9.05132
 30
0.0
 40
0
 41
0
  0
VERTEX
  8
0
 10
1.58149
 20
9.05306
 30
0.0
 40
0
 41
0
  0
VERTEX
  8
0
 10
1.58583
 20
9.05393
 30
0.0
 40
0
 41
0
  0
VERTEX
  8
0
 10
1.58931
 20
9.05328
 30
0.0
 40
0
 41
0
  0
VERTEX
  8
0
 10
1.5919
 20
9.05176
 30
0.0
 40
0
 41
0
  0
VERTEX
  8
0
 10
1.59343
 20
9.04937
 30
0.0
 40
0
 41
0
  0
VERTEX
  8
0
 10
1.59407
 20
9.04676
 30
0.0
 40
0
 41
0
  0
SEQEND
 8
0
  0
POLYLINE
  8
0
 62
     0
 66
     1
 10
0
 20
0
 30
0.0
 70
     1
 40
0
 41
0
  0
VERTEX
  8
0
 10
1.53549
 20
8.963
 30
0.0
 40
0
 41
0
  0
VERTEX
  8
0
 10
1.53614
 20
8.95736
 30
0.0
 40
0
 41
0
  0
VERTEX
  8
0
 10
1.53896
 20
8.95281
 30
0.0
 40
0
 41
0
  0
VERTEX
  8
0
 10
1.5446
 20
8.94976
 30
0.0
 40
0
 41
0
  0
VERTEX
  8
0
 10
1.55328
 20
8.94868
 30
0.0
 40
0
 41
0
  0
VERTEX
  8
0
 10
1.56543
 20
8.94997
 30
0.0
 40
0
 41
0
  0
VERTEX
  8
0
 10
1.57324
 20
8.95344
 30
0.0
 40
0
 41
0
  0
VERTEX
  8
0
 10
1.57715
 20
8.95865
 30
0.0
 40
0
 41
0
  0
VERTEX
  8
0
 10
1.57844
 20
8.96539
 30
0.0
 40
0
 41
0
  0
VERTEX
  8
0
 10
1.57758
 20
8.97081
 30
0.0
 40
0
 41
0
  0
VERTEX
  8
0
 10
1.57476
 20
8.97407
 30
0.0
 40
0
 41
0
  0
VERTEX
  8
0
 10
1.57042
 20
8.97558
 30
0.0
 40
0
 41
0
  0
VERTEX
  8
0
 10
1.56435
 20
8.97601
 30
0.0
 40
0
 41
0
  0
VERTEX
  8
0
 10
1.55067
 20
8.97601
 30
0.0
 40
0
 41
0
  0
VERTEX
  8
0
 10
1.54482
 20
8.97558
 30
0.0
 40
0
 41
0
  0
VERTEX
  8
0
 10
1.54004
 20
8.97385
 30
0.0
 40
0
 41
0
  0
VERTEX
  8
0
 10
1.53657
 20
8.96972
 30
0.0
 40
0
 41
0
  0
VERTEX
  8
0
 10
1.53549
 20
8.963
 30
0.0
 40
0
 41
0
  0
SEQEND
 8
0
  0
POLYLINE
  8
0
 62
     0
 66
     1
 10
0
 20
0
 30
0.0
 70
     1
 40
0
 41
0
  0
VERTEX
  8
0
 10
1.54351
 20
9.02572
 30
0.0
 40
0
 41
0
  0
VERTEX
  8
0
 10
1.54633
 20
9.01269
 30
0.0
 40
0
 41
0
  0
VERTEX
  8
0
 10
1.5561
 20
9.00857
 30
0.0
 40
0
 41
0
  0
VERTEX
  8
0
 10
1.56174
 20
9.00944
 30
0.0
 40
0
 41
0
  0
VERTEX
  8
0
 10
1.56565
 20
9.01269
 30
0.0
 40
0
 41
0
  0
VERTEX
  8
0
 10
1.56782
 20
9.01812
 30
0.0
 40
0
 41
0
  0
VERTEX
  8
0
 10
1.56847
 20
9.02593
 30
0.0
 40
0
 41
0
  0
VERTEX
  8
0
 10
1.56565
 20
9.03961
 30
0.0
 40
0
 41
0
  0
VERTEX
  8
0
 10
1.55588
 20
9.04417
 30
0.0
 40
0
 41
0
  0
VERTEX
  8
0
 10
1.54633
 20
9.03961
 30
0.0
 40
0
 41
0
  0
VERTEX
  8
0
 10
1.54351
 20
9.02572
 30
0.0
 40
0
 41
0
  0
SEQEND
 8
0
  0
POLYLINE
  8
0
 62
     0
 66
     1
 10
0
 20
0
 30
0.0
 70
     1
 40
0
 41
0
  0
VERTEX
  8
0
 10
1.59651
 20
8.98101
 30
0.0
 40
0
 41
0
  0
VERTEX
  8
0
 10
1.60086
 20
8.98122
 30
0.0
 40
0
 41
0
  0
VERTEX
  8
0
 10
1.60454
 20
8.98275
 30
0.0
 40
0
 41
0
  0
VERTEX
  8
0
 10
1.60693
 20
8.98579
 30
0.0
 40
0
 41
0
  0
VERTEX
  8
0
 10
1.60781
 20
8.991
 30
0.0
 40
0
 41
0
  0
VERTEX
  8
0
 10
1.60781
 20
9.06543
 30
0.0
 40
0
 41
0
  0
VERTEX
  8
0
 10
1.60693
 20
9.07021
 30
0.0
 40
0
 41
0
  0
VERTEX
  8
0
 10
1.60433
 20
9.07324
 30
0.0
 40
0
 41
0
  0
VERTEX
  8
0
 10
1.60064
 20
9.07454
 30
0.0
 40
0
 41
0
  0
VERTEX
  8
0
 10
1.59651
 20
9.07476
 30
0.0
 40
0
 41
0
  0
VERTEX
  8
0
 10
1.59457
 20
9.07476
 30
0.0
 40
0
 41
0
  0
VERTEX
  8
0
 10
1.59457
 20
9.08062
 30
0.0
 40
0
 41
0
  0
VERTEX
  8
0
 10
1.62082
 20
9.08062
 30
0.0
 40
0
 41
0
  0
VERTEX
  8
0
 10
1.62082
 20
8.991
 30
0.0
 40
0
 41
0
  0
VERTEX
  8
0
 10
1.62169
 20
8.98579
 30
0.0
 40
0
 41
0
  0
VERTEX
  8
0
 10
1.62429
 20
8.98275
 30
0.0
 40
0
 41
0
  0
VERTEX
  8
0
 10
1.62776
 20
8.98122
 30
0.0
 40
0
 41
0
  0
VERTEX
  8
0
 10
1.63232
 20
8.98101
 30
0.0
 40
0
 41
0
  0
VERTEX
  8
0
 10
1.63406
 20
8.98101
 30
0.0
 40
0
 41
0
  0
VERTEX
  8
0
 10
1.63406
 20
8.97515
 30
0.0
 40
0
 41
0
  0
VERTEX
  8
0
 10
1.59457
 20
8.97515
 30
0.0
 40
0
 41
0
  0
VERTEX
  8
0
 10
1.59457
 20
8.98101
 30
0.0
 40
0
 41
0
  0
VERTEX
  8
0
 10
1.59651
 20
8.98101
 30
0.0
 40
0
 41
0
  0
SEQEND
 8
0
  0
POLYLINE
  8
0
 62
     0
 66
     1
 10
0
 20
0
 30
0.0
 40
0.2368
 41
0.2368
  0
VERTEX
  8
0
 10
1.10938
 20
8.74311
 30
0.0
 40
0.00328889
 41
0.00328889
  0
VERTEX
  8
0
 10
1.28423
 20
9.0664
 30
0.0
 40
0.00328889
 41
0.00328889
  0
SEQEND
 8
0
  0
POLYLINE
  8
0
 62
     0
 66
     1
 10
0
 20
0
 30
0.0
 40
0.2368
 41
0.2368
  0
VERTEX
  8
0
 10
1.11572
 20
8.74078
 30
0.0
 40
0.00328889
 41
0.00328889
  0
VERTEX
  8
0
 10
1.4126
 20
8.9369
 30
0.0
 40
0.00328889
 41
0.00328889
  0
SEQEND
 8
0
  0
POLYLINE
  8
0
 62
     0
 66
     1
 10
0
 20
0
 30
0.0
 40
0.2368
 41
0.2368
  0
VERTEX
  8
0
 10
1.10731
 20
8.73953
 30
0.0
 40
0.00328889
 41
0.00328889
  0
VERTEX
  8
0
 10
1.46593
 20
8.73953
 30
0.0
 40
0.00328889
 41
0.00328889
  0
SEQEND
 8
0
  0
POLYLINE
  8
0
 62
     0
 66
     1
 10
0
 20
0
 30
0.0
 70
     1
 40
0
 41
0
  0
VERTEX
  8
0
 10
1.59537
 20
8.71881
 30
0.0
 40
0
 41
0
  0
VERTEX
  8
0
 10
1.59537
 20
8.71294
 30
0.0
 40
0
 41
0
  0
VERTEX
  8
0
 10
1.55806
 20
8.71294
 30
0.0
 40
0
 41
0
  0
VERTEX
  8
0
 10
1.55806
 20
8.71881
 30
0.0
 40
0
 41
0
  0
VERTEX
  8
0
 10
1.55979
 20
8.71881
 30
0.0
 40
0
 41
0
  0
VERTEX
  8
0
 10
1.56412
 20
8.71903
 30
0.0
 40
0
 41
0
  0
VERTEX
  8
0
 10
1.56739
 20
8.72054
 30
0.0
 40
0
 41
0
  0
VERTEX
  8
0
 10
1.56976
 20
8.72358
 30
0.0
 40
0
 41
0
  0
VERTEX
  8
0
 10
1.57064
 20
8.72879
 30
0.0
 40
0
 41
0
  0
VERTEX
  8
0
 10
1.57064
 20
8.77219
 30
0.0
 40
0
 41
0
  0
VERTEX
  8
0
 10
1.56976
 20
8.77696
 30
0.0
 40
0
 41
0
  0
VERTEX
  8
0
 10
1.56739
 20
8.77979
 30
0.0
 40
0
 41
0
  0
VERTEX
  8
0
 10
1.56412
 20
8.78108
 30
0.0
 40
0
 41
0
  0
VERTEX
  8
0
 10
1.55979
 20
8.78153
 30
0.0
 40
0
 41
0
  0
VERTEX
  8
0
 10
1.55935
 20
8.78153
 30
0.0
 40
0
 41
0
  0
VERTEX
  8
0
 10
1.55935
 20
8.78737
 30
0.0
 40
0
 41
0
  0
VERTEX
  8
0
 10
1.58128
 20
8.78737
 30
0.0
 40
0
 41
0
  0
VERTEX
  8
0
 10
1.58301
 20
8.7761
 30
0.0
 40
0
 41
0
  0
VERTEX
  8
0
 10
1.58365
 20
8.7761
 30
0.0
 40
0
 41
0
  0
VERTEX
  8
0
 10
1.588
 20
8.78239
 30
0.0
 40
0
 41
0
  0
VERTEX
  8
0
 10
1.59299
 20
8.78629
 30
0.0
 40
0
 41
0
  0
VERTEX
  8
0
 10
1.59842
 20
8.78825
 30
0.0
 40
0
 41
0
  0
VERTEX
  8
0
 10
1.60471
 20
8.78868
 30
0.0
 40
0
 41
0
  0
VERTEX
  8
0
 10
1.611
 20
8.78803
 30
0.0
 40
0
 41
0
  0
VERTEX
  8
0
 10
1.61686
 20
8.78586
 30
0.0
 40
0
 41
0
  0
VERTEX
  8
0
 10
1.62142
 20
8.78196
 30
0.0
 40
0
 41
0
  0
VERTEX
  8
0
 10
1.62489
 20
8.7761
 30
0.0
 40
0
 41
0
  0
VERTEX
  8
0
 10
1.62597
 20
8.7761
 30
0.0
 40
0
 41
0
  0
VERTEX
  8
0
 10
1.63053
 20
8.78239
 30
0.0
 40
0
 41
0
  0
VERTEX
  8
0
 10
1.63553
 20
8.78629
 30
0.0
 40
0
 41
0
  0
VERTEX
  8
0
 10
1.64139
 20
8.78825
 30
0.0
 40
0
 41
0
  0
VERTEX
  8
0
 10
1.64768
 20
8.78868
 30
0.0
 40
0
 41
0
  0
VERTEX
  8
0
 10
1.65722
 20
8.78717
 30
0.0
 40
0
 41
0
  0
VERTEX
  8
0
 10
1.66417
 20
8.78217
 30
0.0
 40
0
 41
0
  0
VERTEX
  8
0
 10
1.66872
 20
8.77371
 30
0.0
 40
0
 41
0
  0
VERTEX
  8
0
 10
1.67046
 20
8.76156
 30
0.0
 40
0
 41
0
  0
VERTEX
  8
0
 10
1.67046
 20
8.72879
 30
0.0
 40
0
 41
0
  0
VERTEX
  8
0
 10
1.67111
 20
8.72358
 30
0.0
 40
0
 41
0
  0
VERTEX
  8
0
 10
1.67329
 20
8.72054
 30
0.0
 40
0
 41
0
  0
VERTEX
  8
0
 10
1.67676
 20
8.71903
 30
0.0
 40
0
 41
0
  0
VERTEX
  8
0
 10
1.6811
 20
8.71881
 30
0.0
 40
0
 41
0
  0
VERTEX
  8
0
 10
1.68153
 20
8.71881
 30
0.0
 40
0
 41
0
  0
VERTEX
  8
0
 10
1.68153
 20
8.71294
 30
0.0
 40
0
 41
0
  0
VERTEX
  8
0
 10
1.65744
 20
8.71294
 30
0.0
 40
0
 41
0
  0
VERTEX
  8
0
 10
1.65744
 20
8.7609
 30
0.0
 40
0
 41
0
  0
VERTEX
  8
0
 10
1.65657
 20
8.76893
 30
0.0
 40
0
 41
0
  0
VERTEX
  8
0
 10
1.65397
 20
8.77479
 30
0.0
 40
0
 41
0
  0
VERTEX
  8
0
 10
1.64963
 20
8.77849
 30
0.0
 40
0
 41
0
  0
VERTEX
  8
0
 10
1.64268
 20
8.77979
 30
0.0
 40
0
 41
0
  0
VERTEX
  8
0
 10
1.63531
 20
8.77806
 30
0.0
 40
0
 41
0
  0
VERTEX
  8
0
 10
1.63053
 20
8.77371
 30
0.0
 40
0
 41
0
  0
VERTEX
  8
0
 10
1.62793
 20
8.76719
 30
0.0
 40
0
 41
0
  0
VERTEX
  8
0
 10
1.62728
 20
8.75917
 30
0.0
 40
0
 41
0
  0
VERTEX
  8
0
 10
1.62728
 20
8.72879
 30
0.0
 40
0
 41
0
  0
VERTEX
  8
0
 10
1.62815
 20
8.72358
 30
0.0
 40
0
 41
0
  0
VERTEX
  8
0
 10
1.63032
 20
8.72054
 30
0.0
 40
0
 41
0
  0
VERTEX
  8
0
 10
1.63379
 20
8.71903
 30
0.0
 40
0
 41
0
  0
VERTEX
  8
0
 10
1.63813
 20
8.71881
 30
0.0
 40
0
 41
0
  0
VERTEX
  8
0
 10
1.63835
 20
8.71881
 30
0.0
 40
0
 41
0
  0
VERTEX
  8
0
 10
1.63835
 20
8.71294
 30
0.0
 40
0
 41
0
  0
VERTEX
  8
0
 10
1.61426
 20
8.71294
 30
0.0
 40
0
 41
0
  0
VERTEX
  8
0
 10
1.61426
 20
8.7609
 30
0.0
 40
0
 41
0
  0
VERTEX
  8
0
 10
1.61339
 20
8.76893
 30
0.0
 40
0
 41
0
  0
VERTEX
  8
0
 10
1.611
 20
8.77479
 30
0.0
 40
0
 41
0
  0
VERTEX
  8
0
 10
1.60644
 20
8.77849
 30
0.0
 40
0
 41
0
  0
VERTEX
  8
0
 10
1.59972
 20
8.77979
 30
0.0
 40
0
 41
0
  0
VERTEX
  8
0
 10
1.59213
 20
8.77806
 30
0.0
 40
0
 41
0
  0
VERTEX
  8
0
 10
1.58713
 20
8.77306
 30
0.0
 40
0
 41
0
  0
VERTEX
  8
0
 10
1.58431
 20
8.7659
 30
0.0
 40
0
 41
0
  0
VERTEX
  8
0
 10
1.58365
 20
8.75743
 30
0.0
 40
0
 41
0
  0
VERTEX
  8
0
 10
1.58365
 20
8.72814
 30
0.0
 40
0
 41
0
  0
VERTEX
  8
0
 10
1.58453
 20
8.72314
 30
0.0
 40
0
 41
0
  0
VERTEX
  8
0
 10
1.58692
 20
8.72032
 30
0.0
 40
0
 41
0
  0
VERTEX
  8
0
 10
1.5906
 20
8.71903
 30
0.0
 40
0
 41
0
  0
VERTEX
  8
0
 10
1.59494
 20
8.71881
 30
0.0
 40
0
 41
0
  0
VERTEX
  8
0
 10
1.59537
 20
8.71881
 30
0.0
 40
0
 41
0
  0
SEQEND
 8
0
  0
POLYLINE
  8
0
 62
     0
 66
     1
 10
0
 20
0
 30
0.0
 70
     1
 40
0
 41
0
  0
VERTEX
  8
0
 10
1.70057
 20
8.73312
 30
0.0
 40
0
 41
0
  0
VERTEX
  8
0
 10
1.70318
 20
8.72336
 30
0.0
 40
0
 41
0
  0
VERTEX
  8
0
 10
1.71186
 20
8.72011
 30
0.0
 40
0
 41
0
  0
VERTEX
  8
0
 10
1.71946
 20
8.7214
 30
0.0
 40
0
 41
0
  0
VERTEX
  8
0
 10
1.72532
 20
8.72532
 30
0.0
 40
0
 41
0
  0
VERTEX
  8
0
 10
1.729
 20
8.73139
 30
0.0
 40
0
 41
0
  0
VERTEX
  8
0
 10
1.73031
 20
8.73942
 30
0.0
 40
0
 41
0
  0
VERTEX
  8
0
 10
1.73031
 20
8.75071
 30
0.0
 40
0
 41
0
  0
VERTEX
  8
0
 10
1.7214
 20
8.75028
 30
0.0
 40
0
 41
0
  0
VERTEX
  8
0
 10
1.71143
 20
8.74875
 30
0.0
 40
0
 41
0
  0
VERTEX
  8
0
 10
1.70514
 20
8.7455
 30
0.0
 40
0
 41
0
  0
VERTEX
  8
0
 10
1.70167
 20
8.74029
 30
0.0
 40
0
 41
0
  0
VERTEX
  8
0
 10
1.70057
 20
8.73312
 30
0.0
 40
0
 41
0
  0
SEQEND
 8
0
  0
POLYLINE
  8
0
 62
     0
 66
     1
 10
0
 20
0
 30
0.0
 70
     1
 40
0
 41
0
  0
VERTEX
  8
0
 10
1.7175
 20
8.78196
 30
0.0
 40
0
 41
0
  0
VERTEX
  8
0
 10
1.71078
 20
8.78065
 30
0.0
 40
0
 41
0
  0
VERTEX
  8
0
 10
1.70708
 20
8.7774
 30
0.0
 40
0
 41
0
  0
VERTEX
  8
0
 10
1.70514
 20
8.77263
 30
0.0
 40
0
 41
0
  0
VERTEX
  8
0
 10
1.70469
 20
8.76676
 30
0.0
 40
0
 41
0
  0
VERTEX
  8
0
 10
1.69601
 20
8.76872
 30
0.0
 40
0
 41
0
  0
VERTEX
  8
0
 10
1.69299
 20
8.77544
 30
0.0
 40
0
 41
0
  0
VERTEX
  8
0
 10
1.69493
 20
8.78153
 30
0.0
 40
0
 41
0
  0
VERTEX
  8
0
 10
1.70014
 20
8.78564
 30
0.0
 40
0
 41
0
  0
VERTEX
  8
0
 10
1.70817
 20
8.78803
 30
0.0
 40
0
 41
0
  0
VERTEX
  8
0
 10
1.71793
 20
8.78868
 30
0.0
 40
0
 41
0
  0
VERTEX
  8
0
 10
1.729
 20
8.78737
 30
0.0
 40
0
 41
0
  0
VERTEX
  8
0
 10
1.73703
 20
8.78347
 30
0.0
 40
0
 41
0
  0
VERTEX
  8
0
 10
1.74181
 20
8.77587
 30
0.0
 40
0
 41
0
  0
VERTEX
  8
0
 10
1.74333
 20
8.76481
 30
0.0
 40
0
 41
0
  0
VERTEX
  8
0
 10
1.74333
 20
8.72879
 30
0.0
 40
0
 41
0
  0
VERTEX
  8
0
 10
1.74376
 20
8.72379
 30
0.0
 40
0
 41
0
  0
VERTEX
  8
0
 10
1.74528
 20
8.72076
 30
0.0
 40
0
 41
0
  0
VERTEX
  8
0
 10
1.74789
 20
8.71924
 30
0.0
 40
0
 41
0
  0
VERTEX
  8
0
 10
1.75201
 20
8.71881
 30
0.0
 40
0
 41
0
  0
VERTEX
  8
0
 10
1.75244
 20
8.71881
 30
0.0
 40
0
 41
0
  0
VERTEX
  8
0
 10
1.75244
 20
8.71294
 30
0.0
 40
0
 41
0
  0
VERTEX
  8
0
 10
1.73356
 20
8.71294
 30
0.0
 40
0
 41
0
  0
VERTEX
  8
0
 10
1.73139
 20
8.72487
 30
0.0
 40
0
 41
0
  0
VERTEX
  8
0
 10
1.73031
 20
8.72487
 30
0.0
 40
0
 41
0
  0
VERTEX
  8
0
 10
1.72597
 20
8.71946
 30
0.0
 40
0
 41
0
  0
VERTEX
  8
0
 10
1.72163
 20
8.71533
 30
0.0
 40
0
 41
0
  0
VERTEX
  8
0
 10
1.71599
 20
8.71272
 30
0.0
 40
0
 41
0
  0
VERTEX
  8
0
 10
1.70861
 20
8.71164
 30
0.0
 40
0
 41
0
  0
VERTEX
  8
0
 10
1.69993
 20
8.71294
 30
0.0
 40
0
 41
0
  0
VERTEX
  8
0
 10
1.69319
 20
8.71685
 30
0.0
 40
0
 41
0
  0
VERTEX
  8
0
 10
1.68864
 20
8.72379
 30
0.0
 40
0
 41
0
  0
VERTEX
  8
0
 10
1.68713
 20
8.73378
 30
0.0
 40
0
 41
0
  0
VERTEX
  8
0
 10
1.69493
 20
8.75006
 30
0.0
 40
0
 41
0
  0
VERTEX
  8
0
 10
1.71881
 20
8.75592
 30
0.0
 40
0
 41
0
  0
VERTEX
  8
0
 10
1.73031
 20
8.75635
 30
0.0
 40
0
 41
0
  0
VERTEX
  8
0
 10
1.73031
 20
8.76481
 30
0.0
 40
0
 41
0
  0
VERTEX
  8
0
 10
1.72988
 20
8.77154
 30
0.0
 40
0
 41
0
  0
VERTEX
  8
0
 10
1.72814
 20
8.77696
 30
0.0
 40
0
 41
0
  0
VERTEX
  8
0
 10
1.72424
 20
8.78065
 30
0.0
 40
0
 41
0
  0
VERTEX
  8
0
 10
1.7175
 20
8.78196
 30
0.0
 40
0
 41
0
  0
SEQEND
 8
0
  0
POLYLINE
  8
0
 62
     0
 66
     1
 10
0
 20
0
 30
0.0
 70
     1
 40
0
 41
0
  0
VERTEX
  8
0
 10
1.8086
 20
8.77761
 30
0.0
 40
0
 41
0
  0
VERTEX
  8
0
 10
1.80643
 20
8.78065
 30
0.0
 40
0
 41
0
  0
VERTEX
  8
0
 10
1.801
 20
8.78153
 30
0.0
 40
0
 41
0
  0
VERTEX
  8
0
 10
1.80057
 20
8.78153
 30
0.0
 40
0
 41
0
  0
VERTEX
  8
0
 10
1.80057
 20
8.78737
 30
0.0
 40
0
 41
0
  0
VERTEX
  8
0
 10
1.83094
 20
8.78737
 30
0.0
 40
0
 41
0
  0
VERTEX
  8
0
 10
1.83094
 20
8.78153
 30
0.0
 40
0
 41
0
  0
VERTEX
  8
0
 10
1.82986
 20
8.78153
 30
0.0
 40
0
 41
0
  0
VERTEX
  8
0
 10
1.82596
 20
8.78108
 30
0.0
 40
0
 41
0
  0
VERTEX
  8
0
 10
1.82269
 20
8.77979
 30
0.0
 40
0
 41
0
  0
VERTEX
  8
0
 10
1.81944
 20
8.77718
 30
0.0
 40
0
 41
0
  0
VERTEX
  8
0
 10
1.81575
 20
8.77263
 30
0.0
 40
0
 41
0
  0
VERTEX
  8
0
 10
1.80143
 20
8.75375
 30
0.0
 40
0
 41
0
  0
VERTEX
  8
0
 10
1.82183
 20
8.72618
 30
0.0
 40
0
 41
0
  0
VERTEX
  8
0
 10
1.82769
 20
8.72032
 30
0.0
 40
0
 41
0
  0
VERTEX
  8
0
 10
1.8329
 20
8.71881
 30
0.0
 40
0
 41
0
  0
VERTEX
  8
0
 10
1.83485
 20
8.71881
 30
0.0
 40
0
 41
0
  0
VERTEX
  8
0
 10
1.83485
 20
8.71294
 30
0.0
 40
0
 41
0
  0
VERTEX
  8
0
 10
1.79904
 20
8.71294
 30
0.0
 40
0
 41
0
  0
VERTEX
  8
0
 10
1.79904
 20
8.71881
 30
0.0
 40
0
 41
0
  0
VERTEX
  8
0
 10
1.79969
 20
8.71881
 30
0.0
 40
0
 41
0
  0
VERTEX
  8
0
 10
1.80794
 20
8.72336
 30
0.0
 40
0
 41
0
  0
VERTEX
  8
0
 10
1.80772
 20
8.72487
 30
0.0
 40
0
 41
0
  0
VERTEX
  8
0
 10
1.80686
 20
8.72661
 30
0.0
 40
0
 41
0
  0
VERTEX
  8
0
 10
1.80533
 20
8.72922
 30
0.0
 40
0
 41
0
  0
VERTEX
  8
0
 10
1.80274
 20
8.73292
 30
0.0
 40
0
 41
0
  0
VERTEX
  8
0
 10
1.7934
 20
8.7455
 30
0.0
 40
0
 41
0
  0
VERTEX
  8
0
 10
1.78364
 20
8.73182
 30
0.0
 40
0
 41
0
  0
VERTEX
  8
0
 10
1.78233
 20
8.72988
 30
0.0
 40
0
 41
0
  0
VERTEX
  8
0
 10
1.78103
 20
8.72771
 30
0.0
 40
0
 41
0
  0
VERTEX
  8
0
 10
1.78017
 20
8.72532
 30
0.0
 40
0
 41
0
  0
VERTEX
  8
0
 10
1.77994
 20
8.72314
 30
0.0
 40
0
 41
0
  0
VERTEX
  8
0
 10
1.7819
 20
8.71967
 30
0.0
 40
0
 41
0
  0
VERTEX
  8
0
 10
1.78863
 20
8.71881
 30
0.0
 40
0
 41
0
  0
VERTEX
  8
0
 10
1.78907
 20
8.71881
 30
0.0
 40
0
 41
0
  0
VERTEX
  8
0
 10
1.78907
 20
8.71294
 30
0.0
 40
0
 41
0
  0
VERTEX
  8
0
 10
1.75586
 20
8.71294
 30
0.0
 40
0
 41
0
  0
VERTEX
  8
0
 10
1.75586
 20
8.71881
 30
0.0
 40
0
 41
0
  0
VERTEX
  8
0
 10
1.75717
 20
8.71881
 30
0.0
 40
0
 41
0
  0
VERTEX
  8
0
 10
1.7615
 20
8.71924
 30
0.0
 40
0
 41
0
  0
VERTEX
  8
0
 10
1.76519
 20
8.72054
 30
0.0
 40
0
 41
0
  0
VERTEX
  8
0
 10
1.76844
 20
8.72336
 30
0.0
 40
0
 41
0
  0
VERTEX
  8
0
 10
1.77235
 20
8.72771
 30
0.0
 40
0
 41
0
  0
VERTEX
  8
0
 10
1.78971
 20
8.75028
 30
0.0
 40
0
 41
0
  0
VERTEX
  8
0
 10
1.77235
 20
8.77414
 30
0.0
 40
0
 41
0
  0
VERTEX
  8
0
 10
1.76628
 20
8.77957
 30
0.0
 40
0
 41
0
  0
VERTEX
  8
0
 10
1.76042
 20
8.78153
 30
0.0
 40
0
 41
0
  0
VERTEX
  8
0
 10
1.75846
 20
8.78153
 30
0.0
 40
0
 41
0
  0
VERTEX
  8
0
 10
1.75846
 20
8.78737
 30
0.0
 40
0
 41
0
  0
VERTEX
  8
0
 10
1.79383
 20
8.78737
 30
0.0
 40
0
 41
0
  0
VERTEX
  8
0
 10
1.79383
 20
8.78153
 30
0.0
 40
0
 41
0
  0
VERTEX
  8
0
 10
1.7934
 20
8.78153
 30
0.0
 40
0
 41
0
  0
VERTEX
  8
0
 10
1.7895
 20
8.78108
 30
0.0
 40
0
 41
0
  0
VERTEX
  8
0
 10
1.78711
 20
8.78022
 30
0.0
 40
0
 41
0
  0
VERTEX
  8
0
 10
1.78581
 20
8.77892
 30
0.0
 40
0
 41
0
  0
VERTEX
  8
0
 10
1.78537
 20
8.77761
 30
0.0
 40
0
 41
0
  0
VERTEX
  8
0
 10
1.78624
 20
8.77458
 30
0.0
 40
0
 41
0
  0
VERTEX
  8
0
 10
1.78863
 20
8.77111
 30
0.0
 40
0
 41
0
  0
VERTEX
  8
0
 10
1.79796
 20
8.75874
 30
0.0
 40
0
 41
0
  0
VERTEX
  8
0
 10
1.80512
 20
8.76893
 30
0.0
 40
0
 41
0
  0
VERTEX
  8
0
 10
1.80751
 20
8.77349
 30
0.0
 40
0
 41
0
  0
VERTEX
  8
0
 10
1.8086
 20
8.77761
 30
0.0
 40
0
 41
0
  0
SEQEND
 8
0
  0
POLYLINE
  8
0
 62
     0
 66
     1
 10
0
 20
0
 30
0.0
 70
     1
 40
0
 41
0
  0
VERTEX
  8
0
 10
1.03147
 20
9.21089
 30
0.0
 40
0
 41
0
  0
VERTEX
  8
0
 10
1.03581
 20
9.2111
 30
0.0
 40
0
 41
0
  0
VERTEX
  8
0
 10
1.0395
 20
9.21263
 30
0.0
 40
0
 41
0
  0
VERTEX
  8
0
 10
1.04188
 20
9.21565
 30
0.0
 40
0
 41
0
  0
VERTEX
  8
0
 10
1.04275
 20
9.22086
 30
0.0
 40
0
 41
0
  0
VERTEX
  8
0
 10
1.04275
 20
9.29531
 30
0.0
 40
0
 41
0
  0
VERTEX
  8
0
 10
1.04188
 20
9.30007
 30
0.0
 40
0
 41
0
  0
VERTEX
  8
0
 10
1.03928
 20
9.30311
 30
0.0
 40
0
 41
0
  0
VERTEX
  8
0
 10
1.03559
 20
9.30442
 30
0.0
 40
0
 41
0
  0
VERTEX
  8
0
 10
1.03147
 20
9.30464
 30
0.0
 40
0
 41
0
  0
VERTEX
  8
0
 10
1.02951
 20
9.30464
 30
0.0
 40
0
 41
0
  0
VERTEX
  8
0
 10
1.02951
 20
9.31049
 30
0.0
 40
0
 41
0
  0
VERTEX
  8
0
 10
1.05577
 20
9.31049
 30
0.0
 40
0
 41
0
  0
VERTEX
  8
0
 10
1.05577
 20
9.22086
 30
0.0
 40
0
 41
0
  0
VERTEX
  8
0
 10
1.05664
 20
9.21565
 30
0.0
 40
0
 41
0
  0
VERTEX
  8
0
 10
1.05924
 20
9.21263
 30
0.0
 40
0
 41
0
  0
VERTEX
  8
0
 10
1.06272
 20
9.2111
 30
0.0
 40
0
 41
0
  0
VERTEX
  8
0
 10
1.06728
 20
9.21089
 30
0.0
 40
0
 41
0
  0
VERTEX
  8
0
 10
1.06901
 20
9.21089
 30
0.0
 40
0
 41
0
  0
VERTEX
  8
0
 10
1.06901
 20
9.20503
 30
0.0
 40
0
 41
0
  0
VERTEX
  8
0
 10
1.02951
 20
9.20503
 30
0.0
 40
0
 41
0
  0
VERTEX
  8
0
 10
1.02951
 20
9.21089
 30
0.0
 40
0
 41
0
  0
VERTEX
  8
0
 10
1.03147
 20
9.21089
 30
0.0
 40
0
 41
0
  0
SEQEND
 8
0
  0
POLYLINE
  8
0
 62
     0
 66
     1
 10
0
 20
0
 30
0.0
 70
     1
 40
0
 41
0
  0
VERTEX
  8
0
 10
1.10607
 20
9.2111
 30
0.0
 40
0
 41
0
  0
VERTEX
  8
0
 10
1.11062
 20
9.21132
 30
0.0
 40
0
 41
0
  0
VERTEX
  8
0
 10
1.11496
 20
9.21197
 30
0.0
 40
0
 41
0
  0
VERTEX
  8
0
 10
1.11496
 20
9.20589
 30
0.0
 40
0
 41
0
  0
VERTEX
  8
0
 10
1.11258
 20
9.20503
 30
0.0
 40
0
 41
0
  0
VERTEX
  8
0
 10
1.10932
 20
9.20438
 30
0.0
 40
0
 41
0
  0
VERTEX
  8
0
 10
1.10585
 20
9.20394
 30
0.0
 40
0
 41
0
  0
VERTEX
  8
0
 10
1.10259
 20
9.20372
 30
0.0
 40
0
 41
0
  0
VERTEX
  8
0
 10
1.09326
 20
9.20481
 30
0.0
 40
0
 41
0
  0
VERTEX
  8
0
 10
1.08718
 20
9.20828
 30
0.0
 40
0
 41
0
  0
VERTEX
  8
0
 10
1.0835
 20
9.215
 30
0.0
 40
0
 41
0
  0
VERTEX
  8
0
 10
1.08241
 20
9.22521
 30
0.0
 40
0
 41
0
  0
VERTEX
  8
0
 10
1.08241
 20
9.27165
 30
0.0
 40
0
 41
0
  0
VERTEX
  8
0
 10
1.07178
 20
9.27165
 30
0.0
 40
0
 41
0
  0
VERTEX
  8
0
 10
1.07178
 20
9.27707
 30
0.0
 40
0
 41
0
  0
VERTEX
  8
0
 10
1.07742
 20
9.27815
 30
0.0
 40
0
 41
0
  0
VERTEX
  8
0
 10
1.08263
 20
9.28162
 30
0.0
 40
0
 41
0
  0
VERTEX
  8
0
 10
1.08653
 20
9.28749
 30
0.0
 40
0
 41
0
  0
VERTEX
  8
0
 10
1.08914
 20
9.2966
 30
0.0
 40
0
 41
0
  0
VERTEX
  8
0
 10
1.09543
 20
9.2966
 30
0.0
 40
0
 41
0
  0
VERTEX
  8
0
 10
1.09543
 20
9.27946
 30
0.0
 40
0
 41
0
  0
VERTEX
  8
0
 10
1.11366
 20
9.27946
 30
0.0
 40
0
 41
0
  0
VERTEX
  8
0
 10
1.11366
 20
9.27165
 30
0.0
 40
0
 41
0
  0
VERTEX
  8
0
 10
1.09543
 20
9.27165
 30
0.0
 40
0
 41
0
  0
VERTEX
  8
0
 10
1.09543
 20
9.22478
 30
0.0
 40
0
 41
0
  0
VERTEX
  8
0
 10
1.09825
 20
9.21436
 30
0.0
 40
0
 41
0
  0
VERTEX
  8
0
 10
1.10607
 20
9.2111
 30
0.0
 40
0
 41
0
  0
SEQEND
 8
0
  0
POLYLINE
  8
0
 62
     0
 66
     1
 10
0
 20
0
 30
0.0
 70
     1
 40
0
 41
0
  0
VERTEX
  8
0
 10
1.16075
 20
9.20503
 30
0.0
 40
0
 41
0
  0
VERTEX
  8
0
 10
1.12061
 20
9.20503
 30
0.0
 40
0
 41
0
  0
VERTEX
  8
0
 10
1.12061
 20
9.21089
 30
0.0
 40
0
 41
0
  0
VERTEX
  8
0
 10
1.12104
 20
9.21089
 30
0.0
 40
0
 41
0
  0
VERTEX
  8
0
 10
1.12538
 20
9.2111
 30
0.0
 40
0
 41
0
  0
VERTEX
  8
0
 10
1.12907
 20
9.21263
 30
0.0
 40
0
 41
0
  0
VERTEX
  8
0
 10
1.13146
 20
9.21565
 30
0.0
 40
0
 41
0
  0
VERTEX
  8
0
 10
1.13254
 20
9.22086
 30
0.0
 40
0
 41
0
  0
VERTEX
  8
0
 10
1.13254
 20
9.26426
 30
0.0
 40
0
 41
0
  0
VERTEX
  8
0
 10
1.13146
 20
9.26904
 30
0.0
 40
0
 41
0
  0
VERTEX
  8
0
 10
1.12907
 20
9.27186
 30
0.0
 40
0
 41
0
  0
VERTEX
  8
0
 10
1.12538
 20
9.27317
 30
0.0
 40
0
 41
0
  0
VERTEX
  8
0
 10
1.12104
 20
9.2736
 30
0.0
 40
0
 41
0
  0
VERTEX
  8
0
 10
1.12061
 20
9.2736
 30
0.0
 40
0
 41
0
  0
VERTEX
  8
0
 10
1.12061
 20
9.27946
 30
0.0
 40
0
 41
0
  0
VERTEX
  8
0
 10
1.14209
 20
9.27946
 30
0.0
 40
0
 41
0
  0
VERTEX
  8
0
 10
1.14469
 20
9.26579
 30
0.0
 40
0
 41
0
  0
VERTEX
  8
0
 10
1.14534
 20
9.26579
 30
0.0
 40
0
 41
0
  0
VERTEX
  8
0
 10
1.14795
 20
9.27143
 30
0.0
 40
0
 41
0
  0
VERTEX
  8
0
 10
1.15142
 20
9.27621
 30
0.0
 40
0
 41
0
  0
VERTEX
  8
0
 10
1.15663
 20
9.27946
 30
0.0
 40
0
 41
0
  0
VERTEX
  8
0
 10
1.16444
 20
9.28076
 30
0.0
 40
0
 41
0
  0
VERTEX
  8
0
 10
1.17573
 20
9.27815
 30
0.0
 40
0
 41
0
  0
VERTEX
  8
0
 10
1.17942
 20
9.27078
 30
0.0
 40
0
 41
0
  0
VERTEX
  8
0
 10
1.17855
 20
9.26665
 30
0.0
 40
0
 41
0
  0
VERTEX
  8
0
 10
1.17638
 20
9.26361
 30
0.0
 40
0
 41
0
  0
VERTEX
  8
0
 10
1.17225
 20
9.26144
 30
0.0
 40
0
 41
0
  0
VERTEX
  8
0
 10
1.1664
 20
9.26079
 30
0.0
 40
0
 41
0
  0
VERTEX
  8
0
 10
1.16466
 20
9.26904
 30
0.0
 40
0
 41
0
  0
VERTEX
  8
0
 10
1.15902
 20
9.27165
 30
0.0
 40
0
 41
0
  0
VERTEX
  8
0
 10
1.15446
 20
9.27012
 30
0.0
 40
0
 41
0
  0
VERTEX
  8
0
 10
1.15099
 20
9.26644
 30
0.0
 40
0
 41
0
  0
VERTEX
  8
0
 10
1.14838
 20
9.26079
 30
0.0
 40
0
 41
0
  0
VERTEX
  8
0
 10
1.14665
 20
9.2545
 30
0.0
 40
0
 41
0
  0
VERTEX
  8
0
 10
1.14578
 20
9.24799
 30
0.0
 40
0
 41
0
  0
VERTEX
  8
0
 10
1.14556
 20
9.24192
 30
0.0
 40
0
 41
0
  0
VERTEX
  8
0
 10
1.14556
 20
9.22021
 30
0.0
 40
0
 41
0
  0
VERTEX
  8
0
 10
1.14643
 20
9.21522
 30
0.0
 40
0
 41
0
  0
VERTEX
  8
0
 10
1.14882
 20
9.2124
 30
0.0
 40
0
 41
0
  0
VERTEX
  8
0
 10
1.15251
 20
9.2111
 30
0.0
 40
0
 41
0
  0
VERTEX
  8
0
 10
1.15685
 20
9.21089
 30
0.0
 40
0
 41
0
  0
VERTEX
  8
0
 10
1.16075
 20
9.21089
 30
0.0
 40
0
 41
0
  0
VERTEX
  8
0
 10
1.16075
 20
9.20503
 30
0.0
 40
0
 41
0
  0
SEQEND
 8
0
  0
POLYLINE
  8
0
 62
     0
 66
     1
 10
0
 20
0
 30
0.0
 40
0.236421
 41
0.236421
  0
VERTEX
  8
0
 10
0.733669
 20
7.73817
 30
0.0
 40
0.00328363
 41
0.00328363
  0
VERTEX
  8
0
 10
1.48036
 20
7.74599
 30
0.0
 40
0.00328363
 41
0.00328363
  0
SEQEND
 8
0
  0
POLYLINE
  8
0
 62
     0
 66
     1
 10
0
 20
0
 30
0.0
 70
     1
 40
0
 41
0
  0
VERTEX
  8
0
 10
1.60297
 20
7.7736
 30
0.0
 40
0
 41
0
  0
VERTEX
  8
0
 10
1.59386
 20
7.77186
 30
0.0
 40
0
 41
0
  0
VERTEX
  8
0
 10
1.58822
 20
7.76644
 30
0.0
 40
0
 41
0
  0
VERTEX
  8
0
 10
1.58496
 20
7.75711
 30
0.0
 40
0
 41
0
  0
VERTEX
  8
0
 10
1.5841
 20
7.74408
 30
0.0
 40
0
 41
0
  0
VERTEX
  8
0
 10
1.58496
 20
7.73128
 30
0.0
 40
0
 41
0
  0
VERTEX
  8
0
 10
1.58822
 20
7.72194
 30
0.0
 40
0
 41
0
  0
VERTEX
  8
0
 10
1.59407
 20
7.71631
 30
0.0
 40
0
 41
0
  0
VERTEX
  8
0
 10
1.60319
 20
7.71436
 30
0.0
 40
0
 41
0
  0
VERTEX
  8
0
 10
1.611
 20
7.71631
 30
0.0
 40
0
 41
0
  0
VERTEX
  8
0
 10
1.61621
 20
7.72194
 30
0.0
 40
0
 41
0
  0
VERTEX
  8
0
 10
1.61925
 20
7.73128
 30
0.0
 40
0
 41
0
  0
VERTEX
  8
0
 10
1.62033
 20
7.74431
 30
0.0
 40
0
 41
0
  0
VERTEX
  8
0
 10
1.61925
 20
7.75711
 30
0.0
 40
0
 41
0
  0
VERTEX
  8
0
 10
1.61621
 20
7.76644
 30
0.0
 40
0
 41
0
  0
VERTEX
  8
0
 10
1.611
 20
7.77186
 30
0.0
 40
0
 41
0
  0
VERTEX
  8
0
 10
1.60297
 20
7.7736
 30
0.0
 40
0
 41
0
  0
SEQEND
 8
0
  0
POLYLINE
  8
0
 62
     0
 66
     1
 10
0
 20
0
 30
0.0
 70
     1
 40
0
 41
0
  0
VERTEX
  8
0
 10
1.63379
 20
7.74408
 30
0.0
 40
0
 41
0
  0
VERTEX
  8
0
 10
1.63183
 20
7.72672
 30
0.0
 40
0
 41
0
  0
VERTEX
  8
0
 10
1.62642
 20
7.71457
 30
0.0
 40
0
 41
0
  0
VERTEX
  8
0
 10
1.61751
 20
7.70762
 30
0.0
 40
0
 41
0
  0
VERTEX
  8
0
 10
1.60536
 20
7.70546
 30
0.0
 40
0
 41
0
  0
VERTEX
  8
0
 10
1.59819
 20
7.70632
 30
0.0
 40
0
 41
0
  0
VERTEX
  8
0
 10
1.59233
 20
7.70871
 30
0.0
 40
0
 41
0
  0
VERTEX
  8
0
 10
1.58757
 20
7.71263
 30
0.0
 40
0
 41
0
  0
VERTEX
  8
0
 10
1.5841
 20
7.71761
 30
0.0
 40
0
 41
0
  0
VERTEX
  8
0
 10
1.58365
 20
7.71761
 30
0.0
 40
0
 41
0
  0
VERTEX
  8
0
 10
1.58388
 20
7.71089
 30
0.0
 40
0
 41
0
  0
VERTEX
  8
0
 10
1.58388
 20
7.70806
 30
0.0
 40
0
 41
0
  0
VERTEX
  8
0
 10
1.5841
 20
7.70568
 30
0.0
 40
0
 41
0
  0
VERTEX
  8
0
 10
1.5841
 20
7.7035
 30
0.0
 40
0
 41
0
  0
VERTEX
  8
0
 10
1.5841
 20
7.70176
 30
0.0
 40
0
 41
0
  0
VERTEX
  8
0
 10
1.5841
 20
7.68853
 30
0.0
 40
0
 41
0
  0
VERTEX
  8
0
 10
1.58496
 20
7.68375
 30
0.0
 40
0
 41
0
  0
VERTEX
  8
0
 10
1.58757
 20
7.68093
 30
0.0
 40
0
 41
0
  0
VERTEX
  8
0
 10
1.59104
 20
7.67964
 30
0.0
 40
0
 41
0
  0
VERTEX
  8
0
 10
1.5956
 20
7.67919
 30
0.0
 40
0
 41
0
  0
VERTEX
  8
0
 10
1.59603
 20
7.67919
 30
0.0
 40
0
 41
0
  0
VERTEX
  8
0
 10
1.59603
 20
7.67333
 30
0.0
 40
0
 41
0
  0
VERTEX
  8
0
 10
1.55871
 20
7.67333
 30
0.0
 40
0
 41
0
  0
VERTEX
  8
0
 10
1.55871
 20
7.67919
 30
0.0
 40
0
 41
0
  0
VERTEX
  8
0
 10
1.55979
 20
7.67919
 30
0.0
 40
0
 41
0
  0
VERTEX
  8
0
 10
1.56412
 20
7.67964
 30
0.0
 40
0
 41
0
  0
VERTEX
  8
0
 10
1.56782
 20
7.68093
 30
0.0
 40
0
 41
0
  0
VERTEX
  8
0
 10
1.57021
 20
7.68397
 30
0.0
 40
0
 41
0
  0
VERTEX
  8
0
 10
1.57107
 20
7.68918
 30
0.0
 40
0
 41
0
  0
VERTEX
  8
0
 10
1.57107
 20
7.766
 30
0.0
 40
0
 41
0
  0
VERTEX
  8
0
 10
1.57021
 20
7.77078
 30
0.0
 40
0
 41
0
  0
VERTEX
  8
0
 10
1.5676
 20
7.7736
 30
0.0
 40
0
 41
0
  0
VERTEX
  8
0
 10
1.56392
 20
7.7749
 30
0.0
 40
0
 41
0
  0
VERTEX
  8
0
 10
1.55979
 20
7.77533
 30
0.0
 40
0
 41
0
  0
VERTEX
  8
0
 10
1.55783
 20
7.77533
 30
0.0
 40
0
 41
0
  0
VERTEX
  8
0
 10
1.55783
 20
7.78119
 30
0.0
 40
0
 41
0
  0
VERTEX
  8
0
 10
1.58214
 20
7.78119
 30
0.0
 40
0
 41
0
  0
VERTEX
  8
0
 10
1.58365
 20
7.76861
 30
0.0
 40
0
 41
0
  0
VERTEX
  8
0
 10
1.5841
 20
7.76861
 30
0.0
 40
0
 41
0
  0
VERTEX
  8
0
 10
1.58778
 20
7.77447
 30
0.0
 40
0
 41
0
  0
VERTEX
  8
0
 10
1.59213
 20
7.77881
 30
0.0
 40
0
 41
0
  0
VERTEX
  8
0
 10
1.59799
 20
7.78142
 30
0.0
 40
0
 41
0
  0
VERTEX
  8
0
 10
1.60536
 20
7.7825
 30
0.0
 40
0
 41
0
  0
VERTEX
  8
0
 10
1.61751
 20
7.78011
 30
0.0
 40
0
 41
0
  0
VERTEX
  8
0
 10
1.62642
 20
7.77317
 30
0.0
 40
0
 41
0
  0
VERTEX
  8
0
 10
1.63183
 20
7.76124
 30
0.0
 40
0
 41
0
  0
VERTEX
  8
0
 10
1.63379
 20
7.74408
 30
0.0
 40
0
 41
0
  0
SEQEND
 8
0
  0
POLYLINE
  8
0
 62
     0
 66
     1
 10
0
 20
0
 30
0.0
 70
     1
 40
0
 41
0
  0
VERTEX
  8
0
 10
1.70817
 20
7.72194
 30
0.0
 40
0
 41
0
  0
VERTEX
  8
0
 10
1.70904
 20
7.71696
 30
0.0
 40
0
 41
0
  0
VERTEX
  8
0
 10
1.71143
 20
7.71414
 30
0.0
 40
0
 41
0
  0
VERTEX
  8
0
 10
1.71511
 20
7.71283
 30
0.0
 40
0
 41
0
  0
VERTEX
  8
0
 10
1.71946
 20
7.71263
 30
0.0
 40
0
 41
0
  0
VERTEX
  8
0
 10
1.72076
 20
7.71263
 30
0.0
 40
0
 41
0
  0
VERTEX
  8
0
 10
1.72076
 20
7.70676
 30
0.0
 40
0
 41
0
  0
VERTEX
  8
0
 10
1.6971
 20
7.70676
 30
0.0
 40
0
 41
0
  0
VERTEX
  8
0
 10
1.69558
 20
7.71935
 30
0.0
 40
0
 41
0
  0
VERTEX
  8
0
 10
1.69515
 20
7.71935
 30
0.0
 40
0
 41
0
  0
VERTEX
  8
0
 10
1.69146
 20
7.71349
 30
0.0
 40
0
 41
0
  0
VERTEX
  8
0
 10
1.6869
 20
7.70915
 30
0.0
 40
0
 41
0
  0
VERTEX
  8
0
 10
1.68104
 20
7.70654
 30
0.0
 40
0
 41
0
  0
VERTEX
  8
0
 10
1.67389
 20
7.70546
 30
0.0
 40
0
 41
0
  0
VERTEX
  8
0
 10
1.66151
 20
7.70762
 30
0.0
 40
0
 41
0
  0
VERTEX
  8
0
 10
1.65261
 20
7.71457
 30
0.0
 40
0
 41
0
  0
VERTEX
  8
0
 10
1.64719
 20
7.72651
 30
0.0
 40
0
 41
0
  0
VERTEX
  8
0
 10
1.64546
 20
7.74388
 30
0.0
 40
0
 41
0
  0
VERTEX
  8
0
 10
1.64719
 20
7.76124
 30
0.0
 40
0
 41
0
  0
VERTEX
  8
0
 10
1.65261
 20
7.77317
 30
0.0
 40
0
 41
0
  0
VERTEX
  8
0
 10
1.66151
 20
7.78011
 30
0.0
 40
0
 41
0
  0
VERTEX
  8
0
 10
1.67389
 20
7.7825
 30
0.0
 40
0
 41
0
  0
VERTEX
  8
0
 10
1.68104
 20
7.78162
 30
0.0
 40
0
 41
0
  0
VERTEX
  8
0
 10
1.6869
 20
7.77903
 30
0.0
 40
0
 41
0
  0
VERTEX
  8
0
 10
1.69146
 20
7.77533
 30
0.0
 40
0
 41
0
  0
VERTEX
  8
0
 10
1.69515
 20
7.77035
 30
0.0
 40
0
 41
0
  0
VERTEX
  8
0
 10
1.69601
 20
7.77035
 30
0.0
 40
0
 41
0
  0
VERTEX
  8
0
 10
1.69558
 20
7.77686
 30
0.0
 40
0
 41
0
  0
VERTEX
  8
0
 10
1.69515
 20
7.78185
 30
0.0
 40
0
 41
0
  0
VERTEX
  8
0
 10
1.69515
 20
7.78554
 30
0.0
 40
0
 41
0
  0
VERTEX
  8
0
 10
1.69515
 20
7.79704
 30
0.0
 40
0
 41
0
  0
VERTEX
  8
0
 10
1.69407
 20
7.80181
 30
0.0
 40
0
 41
0
  0
VERTEX
  8
0
 10
1.69168
 20
7.80485
 30
0.0
 40
0
 41
0
  0
VERTEX
  8
0
 10
1.68799
 20
7.80615
 30
0.0
 40
0
 41
0
  0
VERTEX
  8
0
 10
1.68365
 20
7.80638
 30
0.0
 40
0
 41
0
  0
VERTEX
  8
0
 10
1.68257
 20
7.80638
 30
0.0
 40
0
 41
0
  0
VERTEX
  8
0
 10
1.68257
 20
7.81222
 30
0.0
 40
0
 41
0
  0
VERTEX
  8
0
 10
1.70817
 20
7.81222
 30
0.0
 40
0
 41
0
  0
VERTEX
  8
0
 10
1.70817
 20
7.72194
 30
0.0
 40
0
 41
0
  0
SEQEND
 8
0
  0
POLYLINE
  8
0
 62
     0
 66
     1
 10
0
 20
0
 30
0.0
 70
     1
 40
0
 41
0
  0
VERTEX
  8
0
 10
1.67626
 20
7.71436
 30
0.0
 40
0
 41
0
  0
VERTEX
  8
0
 10
1.68517
 20
7.7161
 30
0.0
 40
0
 41
0
  0
VERTEX
  8
0
 10
1.69103
 20
7.72151
 30
0.0
 40
0
 41
0
  0
VERTEX
  8
0
 10
1.69407
 20
7.73062
 30
0.0
 40
0
 41
0
  0
VERTEX
  8
0
 10
1.69515
 20
7.74388
 30
0.0
 40
0
 41
0
  0
VERTEX
  8
0
 10
1.69407
 20
7.75667
 30
0.0
 40
0
 41
0
  0
VERTEX
  8
0
 10
1.69103
 20
7.766
 30
0.0
 40
0
 41
0
  0
VERTEX
  8
0
 10
1.68517
 20
7.77165
 30
0.0
 40
0
 41
0
  0
VERTEX
  8
0
 10
1.67606
 20
7.7736
 30
0.0
 40
0
 41
0
  0
VERTEX
  8
0
 10
1.66824
 20
7.77165
 30
0.0
 40
0
 41
0
  0
VERTEX
  8
0
 10
1.66282
 20
7.76579
 30
0.0
 40
0
 41
0
  0
VERTEX
  8
0
 10
1.65978
 20
7.75646
 30
0.0
 40
0
 41
0
  0
VERTEX
  8
0
 10
1.6589
 20
7.74365
 30
0.0
 40
0
 41
0
  0
VERTEX
  8
0
 10
1.66282
 20
7.72151
 30
0.0
 40
0
 41
0
  0
VERTEX
  8
0
 10
1.67626
 20
7.71436
 30
0.0
 40
0
 41
0
  0
SEQEND
 8
0
  0
POLYLINE
  8
0
 62
     0
 66
     1
 10
0
 20
0
 30
0.0
 70
     1
 40
0
 41
0
  0
VERTEX
  8
0
 10
1.76633
 20
7.71263
 30
0.0
 40
0
 41
0
  0
VERTEX
  8
0
 10
1.76633
 20
7.70676
 30
0.0
 40
0
 41
0
  0
VERTEX
  8
0
 10
1.72336
 20
7.70676
 30
0.0
 40
0
 41
0
  0
VERTEX
  8
0
 10
1.72336
 20
7.71263
 30
0.0
 40
0
 41
0
  0
VERTEX
  8
0
 10
1.72532
 20
7.71263
 30
0.0
 40
0
 41
0
  0
VERTEX
  8
0
 10
1.72965
 20
7.71283
 30
0.0
 40
0
 41
0
  0
VERTEX
  8
0
 10
1.73335
 20
7.71436
 30
0.0
 40
0
 41
0
  0
VERTEX
  8
0
 10
1.73574
 20
7.71739
 30
0.0
 40
0
 41
0
  0
VERTEX
  8
0
 10
1.7366
 20
7.7226
 30
0.0
 40
0
 41
0
  0
VERTEX
  8
0
 10
1.7366
 20
7.77468
 30
0.0
 40
0
 41
0
  0
VERTEX
  8
0
 10
1.72401
 20
7.77468
 30
0.0
 40
0
 41
0
  0
VERTEX
  8
0
 10
1.72401
 20
7.78119
 30
0.0
 40
0
 41
0
  0
VERTEX
  8
0
 10
1.7366
 20
7.78119
 30
0.0
 40
0
 41
0
  0
VERTEX
  8
0
 10
1.7366
 20
7.78814
 30
0.0
 40
0
 41
0
  0
VERTEX
  8
0
 10
1.73833
 20
7.79921
 30
0.0
 40
0
 41
0
  0
VERTEX
  8
0
 10
1.74311
 20
7.80724
 30
0.0
 40
0
 41
0
  0
VERTEX
  8
0
 10
1.75092
 20
7.81201
 30
0.0
 40
0
 41
0
  0
VERTEX
  8
0
 10
1.76113
 20
7.81375
 30
0.0
 40
0
 41
0
  0
VERTEX
  8
0
 10
1.77024
 20
7.81287
 30
0.0
 40
0
 41
0
  0
VERTEX
  8
0
 10
1.77632
 20
7.81093
 30
0.0
 40
0
 41
0
  0
VERTEX
  8
0
 10
1.77957
 20
7.80789
 30
0.0
 40
0
 41
0
  0
VERTEX
  8
0
 10
1.78065
 20
7.80399
 30
0.0
 40
0
 41
0
  0
VERTEX
  8
0
 10
1.77979
 20
7.80051
 30
0.0
 40
0
 41
0
  0
VERTEX
  8
0
 10
1.7774
 20
7.79813
 30
0.0
 40
0
 41
0
  0
VERTEX
  8
0
 10
1.77371
 20
7.7966
 30
0.0
 40
0
 41
0
  0
VERTEX
  8
0
 10
1.76915
 20
7.79617
 30
0.0
 40
0
 41
0
  0
VERTEX
  8
0
 10
1.76872
 20
7.80029
 30
0.0
 40
0
 41
0
  0
VERTEX
  8
0
 10
1.76719
 20
7.80376
 30
0.0
 40
0
 41
0
  0
VERTEX
  8
0
 10
1.76438
 20
7.80638
 30
0.0
 40
0
 41
0
  0
VERTEX
  8
0
 10
1.76004
 20
7.80724
 30
0.0
 40
0
 41
0
  0
VERTEX
  8
0
 10
1.75504
 20
7.80615
 30
0.0
 40
0
 41
0
  0
VERTEX
  8
0
 10
1.75179
 20
7.80268
 30
0.0
 40
0
 41
0
  0
VERTEX
  8
0
 10
1.75006
 20
7.79704
 30
0.0
 40
0
 41
0
  0
VERTEX
  8
0
 10
1.74963
 20
7.78944
 30
0.0
 40
0
 41
0
  0
VERTEX
  8
0
 10
1.74963
 20
7.78119
 30
0.0
 40
0
 41
0
  0
VERTEX
  8
0
 10
1.76915
 20
7.78119
 30
0.0
 40
0
 41
0
  0
VERTEX
  8
0
 10
1.76915
 20
7.77468
 30
0.0
 40
0
 41
0
  0
VERTEX
  8
0
 10
1.74963
 20
7.77468
 30
0.0
 40
0
 41
0
  0
VERTEX
  8
0
 10
1.74963
 20
7.7226
 30
0.0
 40
0
 41
0
  0
VERTEX
  8
0
 10
1.75049
 20
7.71739
 30
0.0
 40
0
 41
0
  0
VERTEX
  8
0
 10
1.7531
 20
7.71436
 30
0.0
 40
0
 41
0
  0
VERTEX
  8
0
 10
1.75657
 20
7.71283
 30
0.0
 40
0
 41
0
  0
VERTEX
  8
0
 10
1.76113
 20
7.71263
 30
0.0
 40
0
 41
0
  0
VERTEX
  8
0
 10
1.76633
 20
7.71263
 30
0.0
 40
0
 41
0
  0
SEQEND
 8
0
  0
POLYLINE
  8
0
 62
     0
 66
     1
 10
0
 20
0
 30
0.0
 70
     1
 40
0
 41
0
  0
VERTEX
  8
0
 10
0.487033
 20
7.78185
 30
0.0
 40
0
 41
0
  0
VERTEX
  8
0
 10
0.487033
 20
7.70632
 30
0.0
 40
0
 41
0
  0
VERTEX
  8
0
 10
0.485081
 20
7.69092
 30
0.0
 40
0
 41
0
  0
VERTEX
  8
0
 10
0.479438
 20
7.68093
 30
0.0
 40
0
 41
0
  0
VERTEX
  8
0
 10
0.47054
 20
7.67572
 30
0.0
 40
0
 41
0
  0
VERTEX
  8
0
 10
0.45969
 20
7.67399
 30
0.0
 40
0
 41
0
  0
VERTEX
  8
0
 10
0.457303
 20
7.67399
 30
0.0
 40
0
 41
0
  0
VERTEX
  8
0
 10
0.457303
 20
7.68072
 30
0.0
 40
0
 41
0
  0
VERTEX
  8
0
 10
0.458387
 20
7.68072
 30
0.0
 40
0
 41
0
  0
VERTEX
  8
0
 10
0.464899
 20
7.68201
 30
0.0
 40
0
 41
0
  0
VERTEX
  8
0
 10
0.469889
 20
7.68614
 30
0.0
 40
0
 41
0
  0
VERTEX
  8
0
 10
0.472928
 20
7.69396
 30
0.0
 40
0
 41
0
  0
VERTEX
  8
0
 10
0.474012
 20
7.70611
 30
0.0
 40
0
 41
0
  0
VERTEX
  8
0
 10
0.474012
 20
7.76665
 30
0.0
 40
0
 41
0
  0
VERTEX
  8
0
 10
0.473144
 20
7.77143
 30
0.0
 40
0
 41
0
  0
VERTEX
  8
0
 10
0.47054
 20
7.77425
 30
0.0
 40
0
 41
0
  0
VERTEX
  8
0
 10
0.466851
 20
7.77556
 30
0.0
 40
0
 41
0
  0
VERTEX
  8
0
 10
0.462728
 20
7.77599
 30
0.0
 40
0
 41
0
  0
VERTEX
  8
0
 10
0.462294
 20
7.77599
 30
0.0
 40
0
 41
0
  0
VERTEX
  8
0
 10
0.462294
 20
7.78185
 30
0.0
 40
0
 41
0
  0
VERTEX
  8
0
 10
0.487033
 20
7.78185
 30
0.0
 40
0
 41
0
  0
SEQEND
 8
0
  0
POLYLINE
  8
0
 62
     0
 66
     1
 10
0
 20
0
 30
0.0
 70
     1
 40
0
 41
0
  0
VERTEX
  8
0
 10
0.47206
 20
7.80442
 30
0.0
 40
0
 41
0
  0
VERTEX
  8
0
 10
0.472711
 20
7.80832
 30
0.0
 40
0
 41
0
  0
VERTEX
  8
0
 10
0.474447
 20
7.81114
 30
0.0
 40
0
 41
0
  0
VERTEX
  8
0
 10
0.476833
 20
7.81244
 30
0.0
 40
0
 41
0
  0
VERTEX
  8
0
 10
0.480089
 20
7.81287
 30
0.0
 40
0
 41
0
  0
VERTEX
  8
0
 10
0.483128
 20
7.81244
 30
0.0
 40
0
 41
0
  0
VERTEX
  8
0
 10
0.485514
 20
7.81114
 30
0.0
 40
0
 41
0
  0
VERTEX
  8
0
 10
0.48725
 20
7.80832
 30
0.0
 40
0
 41
0
  0
VERTEX
  8
0
 10
0.487901
 20
7.80442
 30
0.0
 40
0
 41
0
  0
VERTEX
  8
0
 10
0.48725
 20
7.80029
 30
0.0
 40
0
 41
0
  0
VERTEX
  8
0
 10
0.485514
 20
7.79769
 30
0.0
 40
0
 41
0
  0
VERTEX
  8
0
 10
0.483128
 20
7.79617
 30
0.0
 40
0
 41
0
  0
VERTEX
  8
0
 10
0.480089
 20
7.79574
 30
0.0
 40
0
 41
0
  0
VERTEX
  8
0
 10
0.476833
 20
7.79617
 30
0.0
 40
0
 41
0
  0
VERTEX
  8
0
 10
0.474447
 20
7.79769
 30
0.0
 40
0
 41
0
  0
VERTEX
  8
0
 10
0.472711
 20
7.80029
 30
0.0
 40
0
 41
0
  0
VERTEX
  8
0
 10
0.47206
 20
7.80442
 30
0.0
 40
0
 41
0
  0
SEQEND
 8
0
  0
POLYLINE
  8
0
 62
     0
 66
     1
 10
0
 20
0
 30
0.0
 70
     1
 40
0
 41
0
  0
VERTEX
  8
0
 10
0.546061
 20
7.77425
 30
0.0
 40
0
 41
0
  0
VERTEX
  8
0
 10
0.536947
 20
7.77251
 30
0.0
 40
0
 41
0
  0
VERTEX
  8
0
 10
0.531304
 20
7.76708
 30
0.0
 40
0
 41
0
  0
VERTEX
  8
0
 10
0.528049
 20
7.75776
 30
0.0
 40
0
 41
0
  0
VERTEX
  8
0
 10
0.527181
 20
7.74474
 30
0.0
 40
0
 41
0
  0
VERTEX
  8
0
 10
0.528049
 20
7.73193
 30
0.0
 40
0
 41
0
  0
VERTEX
  8
0
 10
0.531304
 20
7.7226
 30
0.0
 40
0
 41
0
  0
VERTEX
  8
0
 10
0.537164
 20
7.71696
 30
0.0
 40
0
 41
0
  0
VERTEX
  8
0
 10
0.546278
 20
7.715
 30
0.0
 40
0
 41
0
  0
VERTEX
  8
0
 10
0.55409
 20
7.71696
 30
0.0
 40
0
 41
0
  0
VERTEX
  8
0
 10
0.559299
 20
7.7226
 30
0.0
 40
0
 41
0
  0
VERTEX
  8
0
 10
0.562338
 20
7.73193
 30
0.0
 40
0
 41
0
  0
VERTEX
  8
0
 10
0.563422
 20
7.74496
 30
0.0
 40
0
 41
0
  0
VERTEX
  8
0
 10
0.562338
 20
7.75776
 30
0.0
 40
0
 41
0
  0
VERTEX
  8
0
 10
0.559299
 20
7.76708
 30
0.0
 40
0
 41
0
  0
VERTEX
  8
0
 10
0.55409
 20
7.77251
 30
0.0
 40
0
 41
0
  0
VERTEX
  8
0
 10
0.546061
 20
7.77425
 30
0.0
 40
0
 41
0
  0
SEQEND
 8
0
  0
POLYLINE
  8
0
 62
     0
 66
     1
 10
0
 20
0
 30
0.0
 70
     1
 40
0
 41
0
  0
VERTEX
  8
0
 10
0.576878
 20
7.74474
 30
0.0
 40
0
 41
0
  0
VERTEX
  8
0
 10
0.574924
 20
7.72737
 30
0.0
 40
0
 41
0
  0
VERTEX
  8
0
 10
0.569499
 20
7.71522
 30
0.0
 40
0
 41
0
  0
VERTEX
  8
0
 10
0.560601
 20
7.70828
 30
0.0
 40
0
 41
0
  0
VERTEX
  8
0
 10
0.548449
 20
7.70611
 30
0.0
 40
0
 41
0
  0
VERTEX
  8
0
 10
0.541287
 20
7.70697
 30
0.0
 40
0
 41
0
  0
VERTEX
  8
0
 10
0.535428
 20
7.70936
 30
0.0
 40
0
 41
0
  0
VERTEX
  8
0
 10
0.530653
 20
7.71326
 30
0.0
 40
0
 41
0
  0
VERTEX
  8
0
 10
0.527181
 20
7.71826
 30
0.0
 40
0
 41
0
  0
VERTEX
  8
0
 10
0.526747
 20
7.71826
 30
0.0
 40
0
 41
0
  0
VERTEX
  8
0
 10
0.526964
 20
7.71153
 30
0.0
 40
0
 41
0
  0
VERTEX
  8
0
 10
0.526964
 20
7.70871
 30
0.0
 40
0
 41
0
  0
VERTEX
  8
0
 10
0.527181
 20
7.70632
 30
0.0
 40
0
 41
0
  0
VERTEX
  8
0
 10
0.527181
 20
7.70415
 30
0.0
 40
0
 41
0
  0
VERTEX
  8
0
 10
0.527181
 20
7.70242
 30
0.0
 40
0
 41
0
  0
VERTEX
  8
0
 10
0.527181
 20
7.68918
 30
0.0
 40
0
 41
0
  0
VERTEX
  8
0
 10
0.528049
 20
7.6844
 30
0.0
 40
0
 41
0
  0
VERTEX
  8
0
 10
0.530653
 20
7.68158
 30
0.0
 40
0
 41
0
  0
VERTEX
  8
0
 10
0.534125
 20
7.68028
 30
0.0
 40
0
 41
0
  0
VERTEX
  8
0
 10
0.538683
 20
7.67985
 30
0.0
 40
0
 41
0
  0
VERTEX
  8
0
 10
0.539117
 20
7.67985
 30
0.0
 40
0
 41
0
  0
VERTEX
  8
0
 10
0.539117
 20
7.67399
 30
0.0
 40
0
 41
0
  0
VERTEX
  8
0
 10
0.50179
 20
7.67399
 30
0.0
 40
0
 41
0
  0
VERTEX
  8
0
 10
0.50179
 20
7.67985
 30
0.0
 40
0
 41
0
  0
VERTEX
  8
0
 10
0.502875
 20
7.67985
 30
0.0
 40
0
 41
0
  0
VERTEX
  8
0
 10
0.507215
 20
7.68028
 30
0.0
 40
0
 41
0
  0
VERTEX
  8
0
 10
0.510906
 20
7.68158
 30
0.0
 40
0
 41
0
  0
VERTEX
  8
0
 10
0.513292
 20
7.68463
 30
0.0
 40
0
 41
0
  0
VERTEX
  8
0
 10
0.51416
 20
7.68983
 30
0.0
 40
0
 41
0
  0
VERTEX
  8
0
 10
0.51416
 20
7.76665
 30
0.0
 40
0
 41
0
  0
VERTEX
  8
0
 10
0.513292
 20
7.77143
 30
0.0
 40
0
 41
0
  0
VERTEX
  8
0
 10
0.510688
 20
7.77425
 30
0.0
 40
0
 41
0
  0
VERTEX
  8
0
 10
0.506999
 20
7.77556
 30
0.0
 40
0
 41
0
  0
VERTEX
  8
0
 10
0.502875
 20
7.77599
 30
0.0
 40
0
 41
0
  0
VERTEX
  8
0
 10
0.500922
 20
7.77599
 30
0.0
 40
0
 41
0
  0
VERTEX
  8
0
 10
0.500922
 20
7.78185
 30
0.0
 40
0
 41
0
  0
VERTEX
  8
0
 10
0.525228
 20
7.78185
 30
0.0
 40
0
 41
0
  0
VERTEX
  8
0
 10
0.526747
 20
7.76926
 30
0.0
 40
0
 41
0
  0
VERTEX
  8
0
 10
0.527181
 20
7.76926
 30
0.0
 40
0
 41
0
  0
VERTEX
  8
0
 10
0.530871
 20
7.77513
 30
0.0
 40
0
 41
0
  0
VERTEX
  8
0
 10
0.535211
 20
7.77946
 30
0.0
 40
0
 41
0
  0
VERTEX
  8
0
 10
0.541069
 20
7.78207
 30
0.0
 40
0
 41
0
  0
VERTEX
  8
0
 10
0.548449
 20
7.78315
 30
0.0
 40
0
 41
0
  0
VERTEX
  8
0
 10
0.560601
 20
7.78076
 30
0.0
 40
0
 41
0
  0
VERTEX
  8
0
 10
0.569499
 20
7.77382
 30
0.0
 40
0
 41
0
  0
VERTEX
  8
0
 10
0.574924
 20
7.76187
 30
0.0
 40
0
 41
0
  0
VERTEX
  8
0
 10
0.576878
 20
7.74474
 30
0.0
 40
0
 41
0
  0
SEQEND
 8
0
  0
POLYLINE
  8
0
 62
     0
 66
     1
 10
0
 20
0
 30
0.0
 70
     1
 40
0
 41
0
  0
VERTEX
  8
0
 10
0.654081
 20
7.77903
 30
0.0
 40
0
 41
0
  0
VERTEX
  8
0
 10
0.653646
 20
7.77621
 30
0.0
 40
0
 41
0
  0
VERTEX
  8
0
 10
0.652126
 20
7.77382
 30
0.0
 40
0
 41
0
  0
VERTEX
  8
0
 10
0.649957
 20
7.77229
 30
0.0
 40
0
 41
0
  0
VERTEX
  8
0
 10
0.646701
 20
7.77165
 30
0.0
 40
0
 41
0
  0
VERTEX
  8
0
 10
0.646485
 20
7.77339
 30
0.0
 40
0
 41
0
  0
VERTEX
  8
0
 10
0.645617
 20
7.7749
 30
0.0
 40
0
 41
0
  0
VERTEX
  8
0
 10
0.644314
 20
7.77599
 30
0.0
 40
0
 41
0
  0
VERTEX
  8
0
 10
0.642144
 20
7.77642
 30
0.0
 40
0
 41
0
  0
VERTEX
  8
0
 10
0.638672
 20
7.77599
 30
0.0
 40
0
 41
0
  0
VERTEX
  8
0
 10
0.636068
 20
7.77468
 30
0.0
 40
0
 41
0
  0
VERTEX
  8
0
 10
0.639974
 20
7.76774
 30
0.0
 40
0
 41
0
  0
VERTEX
  8
0
 10
0.641493
 20
7.75797
 30
0.0
 40
0
 41
0
  0
VERTEX
  8
0
 10
0.639974
 20
7.74843
 30
0.0
 40
0
 41
0
  0
VERTEX
  8
0
 10
0.6352
 20
7.74083
 30
0.0
 40
0
 41
0
  0
VERTEX
  8
0
 10
0.627388
 20
7.73583
 30
0.0
 40
0
 41
0
  0
VERTEX
  8
0
 10
0.616536
 20
7.7341
 30
0.0
 40
0
 41
0
  0
VERTEX
  8
0
 10
0.614583
 20
7.7341
 30
0.0
 40
0
 41
0
  0
VERTEX
  8
0
 10
0.612631
 20
7.7341
 30
0.0
 40
0
 41
0
  0
VERTEX
  8
0
 10
0.610678
 20
7.7341
 30
0.0
 40
0
 41
0
  0
VERTEX
  8
0
 10
0.609375
 20
7.73454
 30
0.0
 40
0
 41
0
  0
VERTEX
  8
0
 10
0.606554
 20
7.73301
 30
0.0
 40
0
 41
0
  0
VERTEX
  8
0
 10
0.604601
 20
7.73107
 30
0.0
 40
0
 41
0
  0
VERTEX
  8
0
 10
0.603082
 20
7.72889
 30
0.0
 40
0
 41
0
  0
VERTEX
  8
0
 10
0.602647
 20
7.72607
 30
0.0
 40
0
 41
0
  0
VERTEX
  8
0
 10
0.603299
 20
7.72325
 30
0.0
 40
0
 41
0
  0
VERTEX
  8
0
 10
0.605035
 20
7.72151
 30
0.0
 40
0
 41
0
  0
VERTEX
  8
0
 10
0.607639
 20
7.72086
 30
0.0
 40
0
 41
0
  0
VERTEX
  8
0
 10
0.611111
 20
7.72086
 30
0.0
 40
0
 41
0
  0
VERTEX
  8
0
 10
0.626953
 20
7.72086
 30
0.0
 40
0
 41
0
  0
VERTEX
  8
0
 10
0.637587
 20
7.71912
 30
0.0
 40
0
 41
0
  0
VERTEX
  8
0
 10
0.644532
 20
7.71479
 30
0.0
 40
0
 41
0
  0
VERTEX
  8
0
 10
0.648654
 20
7.70828
 30
0.0
 40
0
 41
0
  0
VERTEX
  8
0
 10
0.649957
 20
7.70003
 30
0.0
 40
0
 41
0
  0
VERTEX
  8
0
 10
0.647569
 20
7.68918
 30
0.0
 40
0
 41
0
  0
VERTEX
  8
0
 10
0.640842
 20
7.68115
 30
0.0
 40
0
 41
0
  0
VERTEX
  8
0
 10
0.62934
 20
7.67594
 30
0.0
 40
0
 41
0
  0
VERTEX
  8
0
 10
0.613064
 20
7.67399
 30
0.0
 40
0
 41
0
  0
VERTEX
  8
0
 10
0.591362
 20
7.67942
 30
0.0
 40
0
 41
0
  0
VERTEX
  8
0
 10
0.584201
 20
7.69439
 30
0.0
 40
0
 41
0
  0
VERTEX
  8
0
 10
0.585504
 20
7.70156
 30
0.0
 40
0
 41
0
  0
VERTEX
  8
0
 10
0.58941
 20
7.70676
 30
0.0
 40
0
 41
0
  0
VERTEX
  8
0
 10
0.594835
 20
7.71024
 30
0.0
 40
0
 41
0
  0
VERTEX
  8
0
 10
0.601563
 20
7.71218
 30
0.0
 40
0
 41
0
  0
VERTEX
  8
0
 10
0.598742
 20
7.71371
 30
0.0
 40
0
 41
0
  0
VERTEX
  8
0
 10
0.596354
 20
7.7161
 30
0.0
 40
0
 41
0
  0
VERTEX
  8
0
 10
0.594401
 20
7.71935
 30
0.0
 40
0
 41
0
  0
VERTEX
  8
0
 10
0.59375
 20
7.72347
 30
0.0
 40
0
 41
0
  0
VERTEX
  8
0
 10
0.595921
 20
7.73062
 30
0.0
 40
0
 41
0
  0
VERTEX
  8
0
 10
0.602865
 20
7.73649
 30
0.0
 40
0
 41
0
  0
VERTEX
  8
0
 10
0.597657
 20
7.73996
 30
0.0
 40
0
 41
0
  0
VERTEX
  8
0
 10
0.593533
 20
7.74474
 30
0.0
 40
0
 41
0
  0
VERTEX
  8
0
 10
0.591146
 20
7.75082
 30
0.0
 40
0
 41
0
  0
VERTEX
  8
0
 10
0.590278
 20
7.75754
 30
0.0
 40
0
 41
0
  0
VERTEX
  8
0
 10
0.591797
 20
7.76839
 30
0.0
 40
0
 41
0
  0
VERTEX
  8
0
 10
0.596789
 20
7.77642
 30
0.0
 40
0
 41
0
  0
VERTEX
  8
0
 10
0.604818
 20
7.78142
 30
0.0
 40
0
 41
0
  0
VERTEX
  8
0
 10
0.616536
 20
7.78315
 30
0.0
 40
0
 41
0
  0
VERTEX
  8
0
 10
0.621311
 20
7.78271
 30
0.0
 40
0
 41
0
  0
VERTEX
  8
0
 10
0.625868
 20
7.78185
 30
0.0
 40
0
 41
0
  0
VERTEX
  8
0
 10
0.629557
 20
7.78033
 30
0.0
 40
0
 41
0
  0
VERTEX
  8
0
 10
0.632379
 20
7.7786
 30
0.0
 40
0
 41
0
  0
VERTEX
  8
0
 10
0.634765
 20
7.78097
 30
0.0
 40
0
 41
0
  0
VERTEX
  8
0
 10
0.637804
 20
7.78358
 30
0.0
 40
0
 41
0
  0
VERTEX
  8
0
 10
0.641493
 20
7.78532
 30
0.0
 40
0
 41
0
  0
VERTEX
  8
0
 10
0.645833
 20
7.78618
 30
0.0
 40
0
 41
0
  0
VERTEX
  8
0
 10
0.649306
 20
7.78554
 30
0.0
 40
0
 41
0
  0
VERTEX
  8
0
 10
0.65191
 20
7.78401
 30
0.0
 40
0
 41
0
  0
VERTEX
  8
0
 10
0.653429
 20
7.78162
 30
0.0
 40
0
 41
0
  0
VERTEX
  8
0
 10
0.654081
 20
7.77903
 30
0.0
 40
0
 41
0
  0
SEQEND
 8
0
  0
POLYLINE
  8
0
 62
     0
 66
     1
 10
0
 20
0
 30
0.0
 70
     1
 40
0
 41
0
  0
VERTEX
  8
0
 10
0.595486
 20
7.69526
 30
0.0
 40
0
 41
0
  0
VERTEX
  8
0
 10
0.596138
 20
7.68961
 30
0.0
 40
0
 41
0
  0
VERTEX
  8
0
 10
0.598958
 20
7.68506
 30
0.0
 40
0
 41
0
  0
VERTEX
  8
0
 10
0.604601
 20
7.68201
 30
0.0
 40
0
 41
0
  0
VERTEX
  8
0
 10
0.613282
 20
7.68093
 30
0.0
 40
0
 41
0
  0
VERTEX
  8
0
 10
0.625435
 20
7.68224
 30
0.0
 40
0
 41
0
  0
VERTEX
  8
0
 10
0.633247
 20
7.68571
 30
0.0
 40
0
 41
0
  0
VERTEX
  8
0
 10
0.637153
 20
7.69092
 30
0.0
 40
0
 41
0
  0
VERTEX
  8
0
 10
0.638456
 20
7.69764
 30
0.0
 40
0
 41
0
  0
VERTEX
  8
0
 10
0.637587
 20
7.70307
 30
0.0
 40
0
 41
0
  0
VERTEX
  8
0
 10
0.634765
 20
7.70632
 30
0.0
 40
0
 41
0
  0
VERTEX
  8
0
 10
0.630425
 20
7.70785
 30
0.0
 40
0
 41
0
  0
VERTEX
  8
0
 10
0.624349
 20
7.70828
 30
0.0
 40
0
 41
0
  0
VERTEX
  8
0
 10
0.610678
 20
7.70828
 30
0.0
 40
0
 41
0
  0
VERTEX
  8
0
 10
0.604818
 20
7.70785
 30
0.0
 40
0
 41
0
  0
VERTEX
  8
0
 10
0.600043
 20
7.70611
 30
0.0
 40
0
 41
0
  0
VERTEX
  8
0
 10
0.596571
 20
7.70199
 30
0.0
 40
0
 41
0
  0
VERTEX
  8
0
 10
0.595486
 20
7.69526
 30
0.0
 40
0
 41
0
  0
SEQEND
 8
0
  0
POLYLINE
  8
0
 62
     0
 66
     1
 10
0
 20
0
 30
0.0
 70
     1
 40
0
 41
0
  0
VERTEX
  8
0
 10
0.603515
 20
7.75797
 30
0.0
 40
0
 41
0
  0
VERTEX
  8
0
 10
0.606337
 20
7.74496
 30
0.0
 40
0
 41
0
  0
VERTEX
  8
0
 10
0.616103
 20
7.74083
 30
0.0
 40
0
 41
0
  0
VERTEX
  8
0
 10
0.621744
 20
7.74169
 30
0.0
 40
0
 41
0
  0
VERTEX
  8
0
 10
0.625651
 20
7.74496
 30
0.0
 40
0
 41
0
  0
VERTEX
  8
0
 10
0.627821
 20
7.75037
 30
0.0
 40
0
 41
0
  0
VERTEX
  8
0
 10
0.628472
 20
7.75819
 30
0.0
 40
0
 41
0
  0
VERTEX
  8
0
 10
0.625651
 20
7.77186
 30
0.0
 40
0
 41
0
  0
VERTEX
  8
0
 10
0.615886
 20
7.77642
 30
0.0
 40
0
 41
0
  0
VERTEX
  8
0
 10
0.606337
 20
7.77186
 30
0.0
 40
0
 41
0
  0
VERTEX
  8
0
 10
0.603515
 20
7.75797
 30
0.0
 40
0
 41
0
  0
SEQEND
 8
0
  0
POLYLINE
  8
0
 62
     0
 66
     1
 10
0
 20
0
 30
0.0
 40
0.236421
 41
0.236421
  0
VERTEX
  8
0
 10
1.11035
 20
6.70893
 30
0.0
 40
0.00328363
 41
0.00328363
  0
VERTEX
  8
0
 10
1.49197
 20
6.71674
 30
0.0
 40
0.00328363
 41
0.00328363
  0
SEQEND
 8
0
  0
POLYLINE
  8
0
 62
     0
 66
     1
 10
0
 20
0
 30
0.0
 70
     1
 40
0
 41
0
  0
VERTEX
  8
0
 10
1.58979
 20
6.67692
 30
0.0
 40
0
 41
0
  0
VERTEX
  8
0
 10
1.57699
 20
6.67888
 30
0.0
 40
0
 41
0
  0
VERTEX
  8
0
 10
1.567
 20
6.6856
 30
0.0
 40
0
 41
0
  0
VERTEX
  8
0
 10
1.56049
 20
6.69754
 30
0.0
 40
0
 41
0
  0
VERTEX
  8
0
 10
1.55811
 20
6.71511
 30
0.0
 40
0
 41
0
  0
VERTEX
  8
0
 10
1.56049
 20
6.73356
 30
0.0
 40
0
 41
0
  0
VERTEX
  8
0
 10
1.567
 20
6.74571
 30
0.0
 40
0
 41
0
  0
VERTEX
  8
0
 10
1.57676
 20
6.75201
 30
0.0
 40
0
 41
0
  0
VERTEX
  8
0
 10
1.58914
 20
6.75396
 30
0.0
 40
0
 41
0
  0
VERTEX
  8
0
 10
1.59782
 20
6.7531
 30
0.0
 40
0
 41
0
  0
VERTEX
  8
0
 10
1.60542
 20
6.75049
 30
0.0
 40
0
 41
0
  0
VERTEX
  8
0
 10
1.61106
 20
6.74615
 30
0.0
 40
0
 41
0
  0
VERTEX
  8
0
 10
1.61322
 20
6.73986
 30
0.0
 40
0
 41
0
  0
VERTEX
  8
0
 10
1.61019
 20
6.73313
 30
0.0
 40
0
 41
0
  0
VERTEX
  8
0
 10
1.60086
 20
6.73118
 30
0.0
 40
0
 41
0
  0
VERTEX
  8
0
 10
1.60021
 20
6.73725
 30
0.0
 40
0
 41
0
  0
VERTEX
  8
0
 10
1.59847
 20
6.74246
 30
0.0
 40
0
 41
0
  0
VERTEX
  8
0
 10
1.59478
 20
6.74593
 30
0.0
 40
0
 41
0
  0
VERTEX
  8
0
 10
1.58914
 20
6.74724
 30
0.0
 40
0
 41
0
  0
VERTEX
  8
0
 10
1.58176
 20
6.74571
 30
0.0
 40
0
 41
0
  0
VERTEX
  8
0
 10
1.57633
 20
6.7405
 30
0.0
 40
0
 41
0
  0
VERTEX
  8
0
 10
1.57264
 20
6.73053
 30
0.0
 40
0
 41
0
  0
VERTEX
  8
0
 10
1.57156
 20
6.71511
 30
0.0
 40
0
 41
0
  0
VERTEX
  8
0
 10
1.57656
 20
6.69299
 30
0.0
 40
0
 41
0
  0
VERTEX
  8
0
 10
1.59261
 20
6.68582
 30
0.0
 40
0
 41
0
  0
VERTEX
  8
0
 10
1.60389
 20
6.68842
 30
0.0
 40
0
 41
0
  0
VERTEX
  8
0
 10
1.61106
 20
6.69558
 30
0.0
 40
0
 41
0
  0
VERTEX
  8
0
 10
1.61279
 20
6.69342
 30
0.0
 40
0
 41
0
  0
VERTEX
  8
0
 10
1.61344
 20
6.69015
 30
0.0
 40
0
 41
0
  0
VERTEX
  8
0
 10
1.61193
 20
6.68539
 30
0.0
 40
0
 41
0
  0
VERTEX
  8
0
 10
1.60736
 20
6.68104
 30
0.0
 40
0
 41
0
  0
VERTEX
  8
0
 10
1.59999
 20
6.67822
 30
0.0
 40
0
 41
0
  0
VERTEX
  8
0
 10
1.58979
 20
6.67692
 30
0.0
 40
0
 41
0
  0
SEQEND
 8
0
  0
POLYLINE
  8
0
 62
     0
 66
     1
 10
0
 20
0
 30
0.0
 70
     1
 40
0
 41
0
  0
VERTEX
  8
0
 10
1.66086
 20
6.67822
 30
0.0
 40
0
 41
0
  0
VERTEX
  8
0
 10
1.62071
 20
6.67822
 30
0.0
 40
0
 41
0
  0
VERTEX
  8
0
 10
1.62071
 20
6.68408
 30
0.0
 40
0
 41
0
  0
VERTEX
  8
0
 10
1.62115
 20
6.68408
 30
0.0
 40
0
 41
0
  0
VERTEX
  8
0
 10
1.62549
 20
6.68431
 30
0.0
 40
0
 41
0
  0
VERTEX
  8
0
 10
1.62918
 20
6.68582
 30
0.0
 40
0
 41
0
  0
VERTEX
  8
0
 10
1.63157
 20
6.68886
 30
0.0
 40
0
 41
0
  0
VERTEX
  8
0
 10
1.63265
 20
6.69407
 30
0.0
 40
0
 41
0
  0
VERTEX
  8
0
 10
1.63265
 20
6.73747
 30
0.0
 40
0
 41
0
  0
VERTEX
  8
0
 10
1.63157
 20
6.74224
 30
0.0
 40
0
 41
0
  0
VERTEX
  8
0
 10
1.62918
 20
6.74507
 30
0.0
 40
0
 41
0
  0
VERTEX
  8
0
 10
1.62549
 20
6.74636
 30
0.0
 40
0
 41
0
  0
VERTEX
  8
0
 10
1.62115
 20
6.74681
 30
0.0
 40
0
 41
0
  0
VERTEX
  8
0
 10
1.62071
 20
6.74681
 30
0.0
 40
0
 41
0
  0
VERTEX
  8
0
 10
1.62071
 20
6.75265
 30
0.0
 40
0
 41
0
  0
VERTEX
  8
0
 10
1.64219
 20
6.75265
 30
0.0
 40
0
 41
0
  0
VERTEX
  8
0
 10
1.64481
 20
6.73899
 30
0.0
 40
0
 41
0
  0
VERTEX
  8
0
 10
1.64546
 20
6.73899
 30
0.0
 40
0
 41
0
  0
VERTEX
  8
0
 10
1.64806
 20
6.74463
 30
0.0
 40
0
 41
0
  0
VERTEX
  8
0
 10
1.65153
 20
6.7494
 30
0.0
 40
0
 41
0
  0
VERTEX
  8
0
 10
1.65674
 20
6.75265
 30
0.0
 40
0
 41
0
  0
VERTEX
  8
0
 10
1.66456
 20
6.75396
 30
0.0
 40
0
 41
0
  0
VERTEX
  8
0
 10
1.67583
 20
6.75136
 30
0.0
 40
0
 41
0
  0
VERTEX
  8
0
 10
1.67953
 20
6.74397
 30
0.0
 40
0
 41
0
  0
VERTEX
  8
0
 10
1.67865
 20
6.73986
 30
0.0
 40
0
 41
0
  0
VERTEX
  8
0
 10
1.67649
 20
6.73682
 30
0.0
 40
0
 41
0
  0
VERTEX
  8
0
 10
1.67236
 20
6.73465
 30
0.0
 40
0
 41
0
  0
VERTEX
  8
0
 10
1.6665
 20
6.734
 30
0.0
 40
0
 41
0
  0
VERTEX
  8
0
 10
1.66476
 20
6.74224
 30
0.0
 40
0
 41
0
  0
VERTEX
  8
0
 10
1.65913
 20
6.74485
 30
0.0
 40
0
 41
0
  0
VERTEX
  8
0
 10
1.65457
 20
6.74333
 30
0.0
 40
0
 41
0
  0
VERTEX
  8
0
 10
1.6511
 20
6.73964
 30
0.0
 40
0
 41
0
  0
VERTEX
  8
0
 10
1.64849
 20
6.734
 30
0.0
 40
0
 41
0
  0
VERTEX
  8
0
 10
1.64675
 20
6.72771
 30
0.0
 40
0
 41
0
  0
VERTEX
  8
0
 10
1.64589
 20
6.72119
 30
0.0
 40
0
 41
0
  0
VERTEX
  8
0
 10
1.64567
 20
6.71511
 30
0.0
 40
0
 41
0
  0
VERTEX
  8
0
 10
1.64567
 20
6.69342
 30
0.0
 40
0
 41
0
  0
VERTEX
  8
0
 10
1.64654
 20
6.68842
 30
0.0
 40
0
 41
0
  0
VERTEX
  8
0
 10
1.64893
 20
6.6856
 30
0.0
 40
0
 41
0
  0
VERTEX
  8
0
 10
1.65261
 20
6.68431
 30
0.0
 40
0
 41
0
  0
VERTEX
  8
0
 10
1.65696
 20
6.68408
 30
0.0
 40
0
 41
0
  0
VERTEX
  8
0
 10
1.66086
 20
6.68408
 30
0.0
 40
0
 41
0
  0
VERTEX
  8
0
 10
1.66086
 20
6.67822
 30
0.0
 40
0
 41
0
  0
SEQEND
 8
0
  0
POLYLINE
  8
0
 62
     0
 66
     1
 10
0
 20
0
 30
0.0
 70
     1
 40
0
 41
0
  0
VERTEX
  8
0
 10
1.75136
 20
6.71556
 30
0.0
 40
0
 41
0
  0
VERTEX
  8
0
 10
1.74311
 20
6.68647
 30
0.0
 40
0
 41
0
  0
VERTEX
  8
0
 10
1.71881
 20
6.67692
 30
0.0
 40
0
 41
0
  0
VERTEX
  8
0
 10
1.70514
 20
6.67931
 30
0.0
 40
0
 41
0
  0
VERTEX
  8
0
 10
1.69515
 20
6.68647
 30
0.0
 40
0
 41
0
  0
VERTEX
  8
0
 10
1.68864
 20
6.6984
 30
0.0
 40
0
 41
0
  0
VERTEX
  8
0
 10
1.68647
 20
6.71556
 30
0.0
 40
0
 41
0
  0
VERTEX
  8
0
 10
1.69472
 20
6.74442
 30
0.0
 40
0
 41
0
  0
VERTEX
  8
0
 10
1.71924
 20
6.75396
 30
0.0
 40
0
 41
0
  0
VERTEX
  8
0
 10
1.73247
 20
6.75157
 30
0.0
 40
0
 41
0
  0
VERTEX
  8
0
 10
1.74268
 20
6.74463
 30
0.0
 40
0
 41
0
  0
VERTEX
  8
0
 10
1.74918
 20
6.73247
 30
0.0
 40
0
 41
0
  0
VERTEX
  8
0
 10
1.75136
 20
6.71556
 30
0.0
 40
0
 41
0
  0
SEQEND
 8
0
  0
POLYLINE
  8
0
 62
     0
 66
     1
 10
0
 20
0
 30
0.0
 70
     1
 40
0
 41
0
  0
VERTEX
  8
0
 10
1.69993
 20
6.71556
 30
0.0
 40
0
 41
0
  0
VERTEX
  8
0
 10
1.70101
 20
6.70188
 30
0.0
 40
0
 41
0
  0
VERTEX
  8
0
 10
1.70426
 20
6.69211
 30
0.0
 40
0
 41
0
  0
VERTEX
  8
0
 10
1.71012
 20
6.68604
 30
0.0
 40
0
 41
0
  0
VERTEX
  8
0
 10
1.71903
 20
6.68408
 30
0.0
 40
0
 41
0
  0
VERTEX
  8
0
 10
1.72771
 20
6.68604
 30
0.0
 40
0
 41
0
  0
VERTEX
  8
0
 10
1.73356
 20
6.69211
 30
0.0
 40
0
 41
0
  0
VERTEX
  8
0
 10
1.73682
 20
6.70188
 30
0.0
 40
0
 41
0
  0
VERTEX
  8
0
 10
1.7379
 20
6.71556
 30
0.0
 40
0
 41
0
  0
VERTEX
  8
0
 10
1.73682
 20
6.72922
 30
0.0
 40
0
 41
0
  0
VERTEX
  8
0
 10
1.73356
 20
6.73899
 30
0.0
 40
0
 41
0
  0
VERTEX
  8
0
 10
1.72771
 20
6.74485
 30
0.0
 40
0
 41
0
  0
VERTEX
  8
0
 10
1.71881
 20
6.74681
 30
0.0
 40
0
 41
0
  0
VERTEX
  8
0
 10
1.7099
 20
6.74485
 30
0.0
 40
0
 41
0
  0
VERTEX
  8
0
 10
1.70426
 20
6.73899
 30
0.0
 40
0
 41
0
  0
VERTEX
  8
0
 10
1.70101
 20
6.72922
 30
0.0
 40
0
 41
0
  0
VERTEX
  8
0
 10
1.69993
 20
6.71556
 30
0.0
 40
0
 41
0
  0
SEQEND
 8
0
  0
POLYLINE
  8
0
 62
     0
 66
     1
 10
0
 20
0
 30
0.0
 70
     1
 40
0
 41
0
  0
VERTEX
  8
0
 10
1.80285
 20
6.74507
 30
0.0
 40
0
 41
0
  0
VERTEX
  8
0
 10
1.79372
 20
6.74333
 30
0.0
 40
0
 41
0
  0
VERTEX
  8
0
 10
1.78808
 20
6.7379
 30
0.0
 40
0
 41
0
  0
VERTEX
  8
0
 10
1.78483
 20
6.72857
 30
0.0
 40
0
 41
0
  0
VERTEX
  8
0
 10
1.78396
 20
6.71556
 30
0.0
 40
0
 41
0
  0
VERTEX
  8
0
 10
1.78483
 20
6.70275
 30
0.0
 40
0
 41
0
  0
VERTEX
  8
0
 10
1.78808
 20
6.69342
 30
0.0
 40
0
 41
0
  0
VERTEX
  8
0
 10
1.79394
 20
6.68778
 30
0.0
 40
0
 41
0
  0
VERTEX
  8
0
 10
1.80306
 20
6.68582
 30
0.0
 40
0
 41
0
  0
VERTEX
  8
0
 10
1.81087
 20
6.68778
 30
0.0
 40
0
 41
0
  0
VERTEX
  8
0
 10
1.81608
 20
6.69342
 30
0.0
 40
0
 41
0
  0
VERTEX
  8
0
 10
1.81913
 20
6.70275
 30
0.0
 40
0
 41
0
  0
VERTEX
  8
0
 10
1.82021
 20
6.71576
 30
0.0
 40
0
 41
0
  0
VERTEX
  8
0
 10
1.81913
 20
6.72857
 30
0.0
 40
0
 41
0
  0
VERTEX
  8
0
 10
1.81608
 20
6.7379
 30
0.0
 40
0
 41
0
  0
VERTEX
  8
0
 10
1.81087
 20
6.74333
 30
0.0
 40
0
 41
0
  0
VERTEX
  8
0
 10
1.80285
 20
6.74507
 30
0.0
 40
0
 41
0
  0
SEQEND
 8
0
  0
POLYLINE
  8
0
 62
     0
 66
     1
 10
0
 20
0
 30
0.0
 70
     1
 40
0
 41
0
  0
VERTEX
  8
0
 10
1.83365
 20
6.71556
 30
0.0
 40
0
 41
0
  0
VERTEX
  8
0
 10
1.83171
 20
6.69819
 30
0.0
 40
0
 41
0
  0
VERTEX
  8
0
 10
1.82628
 20
6.68604
 30
0.0
 40
0
 41
0
  0
VERTEX
  8
0
 10
1.81739
 20
6.6791
 30
0.0
 40
0
 41
0
  0
VERTEX
  8
0
 10
1.80524
 20
6.67692
 30
0.0
 40
0
 41
0
  0
VERTEX
  8
0
 10
1.79807
 20
6.67779
 30
0.0
 40
0
 41
0
  0
VERTEX
  8
0
 10
1.79221
 20
6.68018
 30
0.0
 40
0
 41
0
  0
VERTEX
  8
0
 10
1.78743
 20
6.68408
 30
0.0
 40
0
 41
0
  0
VERTEX
  8
0
 10
1.78396
 20
6.68907
 30
0.0
 40
0
 41
0
  0
VERTEX
  8
0
 10
1.78353
 20
6.68907
 30
0.0
 40
0
 41
0
  0
VERTEX
  8
0
 10
1.78375
 20
6.68235
 30
0.0
 40
0
 41
0
  0
VERTEX
  8
0
 10
1.78375
 20
6.67953
 30
0.0
 40
0
 41
0
  0
VERTEX
  8
0
 10
1.78396
 20
6.67714
 30
0.0
 40
0
 41
0
  0
VERTEX
  8
0
 10
1.78396
 20
6.67497
 30
0.0
 40
0
 41
0
  0
VERTEX
  8
0
 10
1.78396
 20
6.67324
 30
0.0
 40
0
 41
0
  0
VERTEX
  8
0
 10
1.78396
 20
6.66
 30
0.0
 40
0
 41
0
  0
VERTEX
  8
0
 10
1.78483
 20
6.65522
 30
0.0
 40
0
 41
0
  0
VERTEX
  8
0
 10
1.78743
 20
6.6524
 30
0.0
 40
0
 41
0
  0
VERTEX
  8
0
 10
1.7909
 20
6.6511
 30
0.0
 40
0
 41
0
  0
VERTEX
  8
0
 10
1.79546
 20
6.65067
 30
0.0
 40
0
 41
0
  0
VERTEX
  8
0
 10
1.7959
 20
6.65067
 30
0.0
 40
0
 41
0
  0
VERTEX
  8
0
 10
1.7959
 20
6.64481
 30
0.0
 40
0
 41
0
  0
VERTEX
  8
0
 10
1.75857
 20
6.64481
 30
0.0
 40
0
 41
0
  0
VERTEX
  8
0
 10
1.75857
 20
6.65067
 30
0.0
 40
0
 41
0
  0
VERTEX
  8
0
 10
1.75965
 20
6.65067
 30
0.0
 40
0
 41
0
  0
VERTEX
  8
0
 10
1.764
 20
6.6511
 30
0.0
 40
0
 41
0
  0
VERTEX
  8
0
 10
1.76768
 20
6.6524
 30
0.0
 40
0
 41
0
  0
VERTEX
  8
0
 10
1.77007
 20
6.65543
 30
0.0
 40
0
 41
0
  0
VERTEX
  8
0
 10
1.77094
 20
6.66064
 30
0.0
 40
0
 41
0
  0
VERTEX
  8
0
 10
1.77094
 20
6.73747
 30
0.0
 40
0
 41
0
  0
VERTEX
  8
0
 10
1.77007
 20
6.74224
 30
0.0
 40
0
 41
0
  0
VERTEX
  8
0
 10
1.76747
 20
6.74507
 30
0.0
 40
0
 41
0
  0
VERTEX
  8
0
 10
1.76378
 20
6.74636
 30
0.0
 40
0
 41
0
  0
VERTEX
  8
0
 10
1.75965
 20
6.74681
 30
0.0
 40
0
 41
0
  0
VERTEX
  8
0
 10
1.75771
 20
6.74681
 30
0.0
 40
0
 41
0
  0
VERTEX
  8
0
 10
1.75771
 20
6.75265
 30
0.0
 40
0
 41
0
  0
VERTEX
  8
0
 10
1.78201
 20
6.75265
 30
0.0
 40
0
 41
0
  0
VERTEX
  8
0
 10
1.78353
 20
6.74007
 30
0.0
 40
0
 41
0
  0
VERTEX
  8
0
 10
1.78396
 20
6.74007
 30
0.0
 40
0
 41
0
  0
VERTEX
  8
0
 10
1.78765
 20
6.74593
 30
0.0
 40
0
 41
0
  0
VERTEX
  8
0
 10
1.79199
 20
6.75028
 30
0.0
 40
0
 41
0
  0
VERTEX
  8
0
 10
1.79785
 20
6.75288
 30
0.0
 40
0
 41
0
  0
VERTEX
  8
0
 10
1.80524
 20
6.75396
 30
0.0
 40
0
 41
0
  0
VERTEX
  8
0
 10
1.81739
 20
6.75157
 30
0.0
 40
0
 41
0
  0
VERTEX
  8
0
 10
1.82628
 20
6.74463
 30
0.0
 40
0
 41
0
  0
VERTEX
  8
0
 10
1.83171
 20
6.73269
 30
0.0
 40
0
 41
0
  0
VERTEX
  8
0
 10
1.83365
 20
6.71556
 30
0.0
 40
0
 41
0
  0
SEQEND
 8
0
  0
POLYLINE
  8
0
 62
     0
 66
     1
 10
0
 20
0
 30
0.0
 40
0.236421
 41
0.236421
  0
VERTEX
  8
0
 10
1.1123
 20
5.66103
 30
0.0
 40
0.00328363
 41
0.00328363
  0
VERTEX
  8
0
 10
1.47808
 20
5.66889
 30
0.0
 40
0.00328363
 41
0.00328363
  0
SEQEND
 8
0
  0
POLYLINE
  8
0
 62
     0
 66
     1
 10
0
 20
0
 30
0.0
 70
     1
 40
0
 41
0
  0
VERTEX
  8
0
 10
1.62082
 20
5.64551
 30
0.0
 40
0
 41
0
  0
VERTEX
  8
0
 10
1.62169
 20
5.64051
 30
0.0
 40
0
 41
0
  0
VERTEX
  8
0
 10
1.62408
 20
5.63769
 30
0.0
 40
0
 41
0
  0
VERTEX
  8
0
 10
1.62776
 20
5.63639
 30
0.0
 40
0
 41
0
  0
VERTEX
  8
0
 10
1.63211
 20
5.63618
 30
0.0
 40
0
 41
0
  0
VERTEX
  8
0
 10
1.6334
 20
5.63618
 30
0.0
 40
0
 41
0
  0
VERTEX
  8
0
 10
1.6334
 20
5.63032
 30
0.0
 40
0
 41
0
  0
VERTEX
  8
0
 10
1.60975
 20
5.63032
 30
0.0
 40
0
 41
0
  0
VERTEX
  8
0
 10
1.60824
 20
5.6429
 30
0.0
 40
0
 41
0
  0
VERTEX
  8
0
 10
1.60781
 20
5.6429
 30
0.0
 40
0
 41
0
  0
VERTEX
  8
0
 10
1.60411
 20
5.63704
 30
0.0
 40
0
 41
0
  0
VERTEX
  8
0
 10
1.59956
 20
5.63271
 30
0.0
 40
0
 41
0
  0
VERTEX
  8
0
 10
1.59369
 20
5.6301
 30
0.0
 40
0
 41
0
  0
VERTEX
  8
0
 10
1.58653
 20
5.62901
 30
0.0
 40
0
 41
0
  0
VERTEX
  8
0
 10
1.57417
 20
5.63118
 30
0.0
 40
0
 41
0
  0
VERTEX
  8
0
 10
1.56526
 20
5.63813
 30
0.0
 40
0
 41
0
  0
VERTEX
  8
0
 10
1.55985
 20
5.65007
 30
0.0
 40
0
 41
0
  0
VERTEX
  8
0
 10
1.55811
 20
5.66743
 30
0.0
 40
0
 41
0
  0
VERTEX
  8
0
 10
1.55985
 20
5.68479
 30
0.0
 40
0
 41
0
  0
VERTEX
  8
0
 10
1.56526
 20
5.69672
 30
0.0
 40
0
 41
0
  0
VERTEX
  8
0
 10
1.57417
 20
5.70367
 30
0.0
 40
0
 41
0
  0
VERTEX
  8
0
 10
1.58653
 20
5.70606
 30
0.0
 40
0
 41
0
  0
VERTEX
  8
0
 10
1.59369
 20
5.70518
 30
0.0
 40
0
 41
0
  0
VERTEX
  8
0
 10
1.59956
 20
5.70258
 30
0.0
 40
0
 41
0
  0
VERTEX
  8
0
 10
1.60411
 20
5.69889
 30
0.0
 40
0
 41
0
  0
VERTEX
  8
0
 10
1.60781
 20
5.6939
 30
0.0
 40
0
 41
0
  0
VERTEX
  8
0
 10
1.60867
 20
5.6939
 30
0.0
 40
0
 41
0
  0
VERTEX
  8
0
 10
1.60824
 20
5.70042
 30
0.0
 40
0
 41
0
  0
VERTEX
  8
0
 10
1.60781
 20
5.7054
 30
0.0
 40
0
 41
0
  0
VERTEX
  8
0
 10
1.60781
 20
5.7091
 30
0.0
 40
0
 41
0
  0
VERTEX
  8
0
 10
1.60781
 20
5.7206
 30
0.0
 40
0
 41
0
  0
VERTEX
  8
0
 10
1.60672
 20
5.72537
 30
0.0
 40
0
 41
0
  0
VERTEX
  8
0
 10
1.60433
 20
5.7284
 30
0.0
 40
0
 41
0
  0
VERTEX
  8
0
 10
1.60064
 20
5.72971
 30
0.0
 40
0
 41
0
  0
VERTEX
  8
0
 10
1.59631
 20
5.72993
 30
0.0
 40
0
 41
0
  0
VERTEX
  8
0
 10
1.59521
 20
5.72993
 30
0.0
 40
0
 41
0
  0
VERTEX
  8
0
 10
1.59521
 20
5.73579
 30
0.0
 40
0
 41
0
  0
VERTEX
  8
0
 10
1.62082
 20
5.73579
 30
0.0
 40
0
 41
0
  0
VERTEX
  8
0
 10
1.62082
 20
5.64551
 30
0.0
 40
0
 41
0
  0
SEQEND
 8
0
  0
POLYLINE
  8
0
 62
     0
 66
     1
 10
0
 20
0
 30
0.0
 70
     1
 40
0
 41
0
  0
VERTEX
  8
0
 10
1.58892
 20
5.63792
 30
0.0
 40
0
 41
0
  0
VERTEX
  8
0
 10
1.59782
 20
5.63965
 30
0.0
 40
0
 41
0
  0
VERTEX
  8
0
 10
1.60368
 20
5.64507
 30
0.0
 40
0
 41
0
  0
VERTEX
  8
0
 10
1.60672
 20
5.65419
 30
0.0
 40
0
 41
0
  0
VERTEX
  8
0
 10
1.60781
 20
5.66743
 30
0.0
 40
0
 41
0
  0
VERTEX
  8
0
 10
1.60672
 20
5.68024
 30
0.0
 40
0
 41
0
  0
VERTEX
  8
0
 10
1.60368
 20
5.68956
 30
0.0
 40
0
 41
0
  0
VERTEX
  8
0
 10
1.59782
 20
5.69521
 30
0.0
 40
0
 41
0
  0
VERTEX
  8
0
 10
1.58871
 20
5.69715
 30
0.0
 40
0
 41
0
  0
VERTEX
  8
0
 10
1.58089
 20
5.69521
 30
0.0
 40
0
 41
0
  0
VERTEX
  8
0
 10
1.57547
 20
5.68935
 30
0.0
 40
0
 41
0
  0
VERTEX
  8
0
 10
1.57243
 20
5.68001
 30
0.0
 40
0
 41
0
  0
VERTEX
  8
0
 10
1.57156
 20
5.66721
 30
0.0
 40
0
 41
0
  0
VERTEX
  8
0
 10
1.57547
 20
5.64507
 30
0.0
 40
0
 41
0
  0
VERTEX
  8
0
 10
1.58892
 20
5.63792
 30
0.0
 40
0
 41
0
  0
SEQEND
 8
0
  0
POLYLINE
  8
0
 62
     0
 66
     1
 10
0
 20
0
 30
0.0
 70
     1
 40
0
 41
0
  0
VERTEX
  8
0
 10
1.67046
 20
5.69868
 30
0.0
 40
0
 41
0
  0
VERTEX
  8
0
 10
1.65853
 20
5.69239
 30
0.0
 40
0
 41
0
  0
VERTEX
  8
0
 10
1.65354
 20
5.67415
 30
0.0
 40
0
 41
0
  0
VERTEX
  8
0
 10
1.68565
 20
5.67415
 30
0.0
 40
0
 41
0
  0
VERTEX
  8
0
 10
1.68479
 20
5.68414
 30
0.0
 40
0
 41
0
  0
VERTEX
  8
0
 10
1.68218
 20
5.69194
 30
0.0
 40
0
 41
0
  0
VERTEX
  8
0
 10
1.6774
 20
5.69694
 30
0.0
 40
0
 41
0
  0
VERTEX
  8
0
 10
1.67046
 20
5.69868
 30
0.0
 40
0
 41
0
  0
SEQEND
 8
0
  0
POLYLINE
  8
0
 62
     0
 66
     1
 10
0
 20
0
 30
0.0
 70
     1
 40
0
 41
0
  0
VERTEX
  8
0
 10
1.67219
 20
5.62901
 30
0.0
 40
0
 41
0
  0
VERTEX
  8
0
 10
1.65853
 20
5.6314
 30
0.0
 40
0
 41
0
  0
VERTEX
  8
0
 10
1.64854
 20
5.63878
 30
0.0
 40
0
 41
0
  0
VERTEX
  8
0
 10
1.64204
 20
5.65093
 30
0.0
 40
0
 41
0
  0
VERTEX
  8
0
 10
1.63986
 20
5.66699
 30
0.0
 40
0
 41
0
  0
VERTEX
  8
0
 10
1.64789
 20
5.69629
 30
0.0
 40
0
 41
0
  0
VERTEX
  8
0
 10
1.67068
 20
5.70606
 30
0.0
 40
0
 41
0
  0
VERTEX
  8
0
 10
1.68283
 20
5.70389
 30
0.0
 40
0
 41
0
  0
VERTEX
  8
0
 10
1.69194
 20
5.69781
 30
0.0
 40
0
 41
0
  0
VERTEX
  8
0
 10
1.6976
 20
5.68739
 30
0.0
 40
0
 41
0
  0
VERTEX
  8
0
 10
1.69954
 20
5.67307
 30
0.0
 40
0
 41
0
  0
VERTEX
  8
0
 10
1.69954
 20
5.66656
 30
0.0
 40
0
 41
0
  0
VERTEX
  8
0
 10
1.65332
 20
5.66656
 30
0.0
 40
0
 41
0
  0
VERTEX
  8
0
 10
1.65483
 20
5.65354
 30
0.0
 40
0
 41
0
  0
VERTEX
  8
0
 10
1.65896
 20
5.64442
 30
0.0
 40
0
 41
0
  0
VERTEX
  8
0
 10
1.66525
 20
5.63921
 30
0.0
 40
0
 41
0
  0
VERTEX
  8
0
 10
1.67415
 20
5.63769
 30
0.0
 40
0
 41
0
  0
VERTEX
  8
0
 10
1.68067
 20
5.63857
 30
0.0
 40
0
 41
0
  0
VERTEX
  8
0
 10
1.68631
 20
5.64074
 30
0.0
 40
0
 41
0
  0
VERTEX
  8
0
 10
1.69065
 20
5.64378
 30
0.0
 40
0
 41
0
  0
VERTEX
  8
0
 10
1.6939
 20
5.64746
 30
0.0
 40
0
 41
0
  0
VERTEX
  8
0
 10
1.69564
 20
5.64572
 30
0.0
 40
0
 41
0
  0
VERTEX
  8
0
 10
1.6965
 20
5.64268
 30
0.0
 40
0
 41
0
  0
VERTEX
  8
0
 10
1.69499
 20
5.63813
 30
0.0
 40
0
 41
0
  0
VERTEX
  8
0
 10
1.69043
 20
5.63357
 30
0.0
 40
0
 41
0
  0
VERTEX
  8
0
 10
1.68283
 20
5.63032
 30
0.0
 40
0
 41
0
  0
VERTEX
  8
0
 10
1.67219
 20
5.62901
 30
0.0
 40
0
 41
0
  0
SEQEND
 8
0
  0
POLYLINE
  8
0
 62
     0
 66
     1
 10
0
 20
0
 30
0.0
 70
     1
 40
0
 41
0
  0
VERTEX
  8
0
 10
1.73269
 20
5.62901
 30
0.0
 40
0
 41
0
  0
VERTEX
  8
0
 10
1.72314
 20
5.62989
 30
0.0
 40
0
 41
0
  0
VERTEX
  8
0
 10
1.71599
 20
5.63249
 30
0.0
 40
0
 41
0
  0
VERTEX
  8
0
 10
1.71143
 20
5.63726
 30
0.0
 40
0
 41
0
  0
VERTEX
  8
0
 10
1.7099
 20
5.64378
 30
0.0
 40
0
 41
0
  0
VERTEX
  8
0
 10
1.71078
 20
5.64833
 30
0.0
 40
0
 41
0
  0
VERTEX
  8
0
 10
1.71294
 20
5.65136
 30
0.0
 40
0
 41
0
  0
VERTEX
  8
0
 10
1.71576
 20
5.65289
 30
0.0
 40
0
 41
0
  0
VERTEX
  8
0
 10
1.71858
 20
5.65332
 30
0.0
 40
0
 41
0
  0
VERTEX
  8
0
 10
1.71924
 20
5.64638
 30
0.0
 40
0
 41
0
  0
VERTEX
  8
0
 10
1.72185
 20
5.64074
 30
0.0
 40
0
 41
0
  0
VERTEX
  8
0
 10
1.7264
 20
5.63683
 30
0.0
 40
0
 41
0
  0
VERTEX
  8
0
 10
1.73356
 20
5.63553
 30
0.0
 40
0
 41
0
  0
VERTEX
  8
0
 10
1.74007
 20
5.63639
 30
0.0
 40
0
 41
0
  0
VERTEX
  8
0
 10
1.74485
 20
5.639
 30
0.0
 40
0
 41
0
  0
VERTEX
  8
0
 10
1.74789
 20
5.64312
 30
0.0
 40
0
 41
0
  0
VERTEX
  8
0
 10
1.74897
 20
5.64833
 30
0.0
 40
0
 41
0
  0
VERTEX
  8
0
 10
1.7481
 20
5.65267
 30
0.0
 40
0
 41
0
  0
VERTEX
  8
0
 10
1.7455
 20
5.65614
 30
0.0
 40
0
 41
0
  0
VERTEX
  8
0
 10
1.74007
 20
5.6594
 30
0.0
 40
0
 41
0
  0
VERTEX
  8
0
 10
1.73182
 20
5.66331
 30
0.0
 40
0
 41
0
  0
VERTEX
  8
0
 10
1.7225
 20
5.66786
 30
0.0
 40
0
 41
0
  0
VERTEX
  8
0
 10
1.71599
 20
5.67264
 30
0.0
 40
0
 41
0
  0
VERTEX
  8
0
 10
1.71208
 20
5.6785
 30
0.0
 40
0
 41
0
  0
VERTEX
  8
0
 10
1.71078
 20
5.68631
 30
0.0
 40
0
 41
0
  0
VERTEX
  8
0
 10
1.71251
 20
5.69476
 30
0.0
 40
0
 41
0
  0
VERTEX
  8
0
 10
1.71793
 20
5.70085
 30
0.0
 40
0
 41
0
  0
VERTEX
  8
0
 10
1.72618
 20
5.70475
 30
0.0
 40
0
 41
0
  0
VERTEX
  8
0
 10
1.73703
 20
5.70606
 30
0.0
 40
0
 41
0
  0
VERTEX
  8
0
 10
1.74571
 20
5.70497
 30
0.0
 40
0
 41
0
  0
VERTEX
  8
0
 10
1.75201
 20
5.70215
 30
0.0
 40
0
 41
0
  0
VERTEX
  8
0
 10
1.75592
 20
5.69803
 30
0.0
 40
0
 41
0
  0
VERTEX
  8
0
 10
1.75722
 20
5.69325
 30
0.0
 40
0
 41
0
  0
VERTEX
  8
0
 10
1.75461
 20
5.68718
 30
0.0
 40
0
 41
0
  0
VERTEX
  8
0
 10
1.74724
 20
5.685
 30
0.0
 40
0
 41
0
  0
VERTEX
  8
0
 10
1.74419
 20
5.69564
 30
0.0
 40
0
 41
0
  0
VERTEX
  8
0
 10
1.73529
 20
5.69954
 30
0.0
 40
0
 41
0
  0
VERTEX
  8
0
 10
1.72922
 20
5.69868
 30
0.0
 40
0
 41
0
  0
VERTEX
  8
0
 10
1.7251
 20
5.6965
 30
0.0
 40
0
 41
0
  0
VERTEX
  8
0
 10
1.72271
 20
5.69282
 30
0.0
 40
0
 41
0
  0
VERTEX
  8
0
 10
1.72206
 20
5.68847
 30
0.0
 40
0
 41
0
  0
VERTEX
  8
0
 10
1.72293
 20
5.68392
 30
0.0
 40
0
 41
0
  0
VERTEX
  8
0
 10
1.72597
 20
5.68024
 30
0.0
 40
0
 41
0
  0
VERTEX
  8
0
 10
1.73139
 20
5.67719
 30
0.0
 40
0
 41
0
  0
VERTEX
  8
0
 10
1.73921
 20
5.67372
 30
0.0
 40
0
 41
0
  0
VERTEX
  8
0
 10
1.74875
 20
5.66917
 30
0.0
 40
0
 41
0
  0
VERTEX
  8
0
 10
1.75504
 20
5.66439
 30
0.0
 40
0
 41
0
  0
VERTEX
  8
0
 10
1.75896
 20
5.65831
 30
0.0
 40
0
 41
0
  0
VERTEX
  8
0
 10
1.76025
 20
5.65072
 30
0.0
 40
0
 41
0
  0
VERTEX
  8
0
 10
1.75831
 20
5.64117
 30
0.0
 40
0
 41
0
  0
VERTEX
  8
0
 10
1.75265
 20
5.63444
 30
0.0
 40
0
 41
0
  0
VERTEX
  8
0
 10
1.74397
 20
5.63032
 30
0.0
 40
0
 41
0
  0
VERTEX
  8
0
 10
1.73269
 20
5.62901
 30
0.0
 40
0
 41
0
  0
SEQEND
 8
0
  0
POLYLINE
  8
0
 62
     0
 66
     1
 10
0
 20
0
 30
0.0
 70
     1
 40
0
 41
0
  0
VERTEX
  8
0
 10
1.81087
 20
5.67503
 30
0.0
 40
0
 41
0
  0
VERTEX
  8
0
 10
1.82932
 20
5.64746
 30
0.0
 40
0
 41
0
  0
VERTEX
  8
0
 10
1.83649
 20
5.639
 30
0.0
 40
0
 41
0
  0
VERTEX
  8
0
 10
1.84472
 20
5.63618
 30
0.0
 40
0
 41
0
  0
VERTEX
  8
0
 10
1.84517
 20
5.63618
 30
0.0
 40
0
 41
0
  0
VERTEX
  8
0
 10
1.84517
 20
5.63032
 30
0.0
 40
0
 41
0
  0
VERTEX
  8
0
 10
1.84321
 20
5.63032
 30
0.0
 40
0
 41
0
  0
VERTEX
  8
0
 10
1.83322
 20
5.63053
 30
0.0
 40
0
 41
0
  0
VERTEX
  8
0
 10
1.8265
 20
5.63226
 30
0.0
 40
0
 41
0
  0
VERTEX
  8
0
 10
1.82129
 20
5.63639
 30
0.0
 40
0
 41
0
  0
VERTEX
  8
0
 10
1.81608
 20
5.64378
 30
0.0
 40
0
 41
0
  0
VERTEX
  8
0
 10
1.80219
 20
5.66569
 30
0.0
 40
0
 41
0
  0
VERTEX
  8
0
 10
1.79178
 20
5.6581
 30
0.0
 40
0
 41
0
  0
VERTEX
  8
0
 10
1.79178
 20
5.64551
 30
0.0
 40
0
 41
0
  0
VERTEX
  8
0
 10
1.79264
 20
5.64051
 30
0.0
 40
0
 41
0
  0
VERTEX
  8
0
 10
1.79525
 20
5.63769
 30
0.0
 40
0
 41
0
  0
VERTEX
  8
0
 10
1.79872
 20
5.63639
 30
0.0
 40
0
 41
0
  0
VERTEX
  8
0
 10
1.80328
 20
5.63618
 30
0.0
 40
0
 41
0
  0
VERTEX
  8
0
 10
1.80371
 20
5.63618
 30
0.0
 40
0
 41
0
  0
VERTEX
  8
0
 10
1.80371
 20
5.63032
 30
0.0
 40
0
 41
0
  0
VERTEX
  8
0
 10
1.76639
 20
5.63032
 30
0.0
 40
0
 41
0
  0
VERTEX
  8
0
 10
1.76639
 20
5.63618
 30
0.0
 40
0
 41
0
  0
VERTEX
  8
0
 10
1.76747
 20
5.63618
 30
0.0
 40
0
 41
0
  0
VERTEX
  8
0
 10
1.77181
 20
5.63639
 30
0.0
 40
0
 41
0
  0
VERTEX
  8
0
 10
1.7755
 20
5.63792
 30
0.0
 40
0
 41
0
  0
VERTEX
  8
0
 10
1.77789
 20
5.64094
 30
0.0
 40
0
 41
0
  0
VERTEX
  8
0
 10
1.77875
 20
5.64615
 30
0.0
 40
0
 41
0
  0
VERTEX
  8
0
 10
1.77875
 20
5.7206
 30
0.0
 40
0
 41
0
  0
VERTEX
  8
0
 10
1.77789
 20
5.72537
 30
0.0
 40
0
 41
0
  0
VERTEX
  8
0
 10
1.77528
 20
5.7284
 30
0.0
 40
0
 41
0
  0
VERTEX
  8
0
 10
1.7716
 20
5.72971
 30
0.0
 40
0
 41
0
  0
VERTEX
  8
0
 10
1.76747
 20
5.72993
 30
0.0
 40
0
 41
0
  0
VERTEX
  8
0
 10
1.76639
 20
5.72993
 30
0.0
 40
0
 41
0
  0
VERTEX
  8
0
 10
1.76639
 20
5.73579
 30
0.0
 40
0
 41
0
  0
VERTEX
  8
0
 10
1.79178
 20
5.73579
 30
0.0
 40
0
 41
0
  0
VERTEX
  8
0
 10
1.79178
 20
5.68218
 30
0.0
 40
0
 41
0
  0
VERTEX
  8
0
 10
1.79178
 20
5.6774
 30
0.0
 40
0
 41
0
  0
VERTEX
  8
0
 10
1.79156
 20
5.67156
 30
0.0
 40
0
 41
0
  0
VERTEX
  8
0
 10
1.79135
 20
5.66482
 30
0.0
 40
0
 41
0
  0
VERTEX
  8
0
 10
1.80871
 20
5.68371
 30
0.0
 40
0
 41
0
  0
VERTEX
  8
0
 10
1.81239
 20
5.68804
 30
0.0
 40
0
 41
0
  0
VERTEX
  8
0
 10
1.81478
 20
5.69129
 30
0.0
 40
0
 41
0
  0
VERTEX
  8
0
 10
1.81586
 20
5.6939
 30
0.0
 40
0
 41
0
  0
VERTEX
  8
0
 10
1.81629
 20
5.69607
 30
0.0
 40
0
 41
0
  0
VERTEX
  8
0
 10
1.81456
 20
5.69846
 30
0.0
 40
0
 41
0
  0
VERTEX
  8
0
 10
1.80957
 20
5.69889
 30
0.0
 40
0
 41
0
  0
VERTEX
  8
0
 10
1.80957
 20
5.70475
 30
0.0
 40
0
 41
0
  0
VERTEX
  8
0
 10
1.84017
 20
5.70475
 30
0.0
 40
0
 41
0
  0
VERTEX
  8
0
 10
1.84017
 20
5.69889
 30
0.0
 40
0
 41
0
  0
VERTEX
  8
0
 10
1.83062
 20
5.69542
 30
0.0
 40
0
 41
0
  0
VERTEX
  8
0
 10
1.82064
 20
5.68608
 30
0.0
 40
0
 41
0
  0
VERTEX
  8
0
 10
1.81087
 20
5.67503
 30
0.0
 40
0
 41
0
  0
SEQEND
 8
0
  0
POLYLINE
  8
0
 62
     0
 66
     1
 10
0
 20
0
 30
0.0
 70
     1
 40
0
 41
0
  0
VERTEX
  8
0
 10
1.8775
 20
5.69868
 30
0.0
 40
0
 41
0
  0
VERTEX
  8
0
 10
1.86556
 20
5.69239
 30
0.0
 40
0
 41
0
  0
VERTEX
  8
0
 10
1.86057
 20
5.67415
 30
0.0
 40
0
 41
0
  0
VERTEX
  8
0
 10
1.89268
 20
5.67415
 30
0.0
 40
0
 41
0
  0
VERTEX
  8
0
 10
1.89182
 20
5.68414
 30
0.0
 40
0
 41
0
  0
VERTEX
  8
0
 10
1.88921
 20
5.69194
 30
0.0
 40
0
 41
0
  0
VERTEX
  8
0
 10
1.88444
 20
5.69694
 30
0.0
 40
0
 41
0
  0
VERTEX
  8
0
 10
1.8775
 20
5.69868
 30
0.0
 40
0
 41
0
  0
SEQEND
 8
0
  0
POLYLINE
  8
0
 62
     0
 66
     1
 10
0
 20
0
 30
0.0
 70
     1
 40
0
 41
0
  0
VERTEX
  8
0
 10
1.87924
 20
5.62901
 30
0.0
 40
0
 41
0
  0
VERTEX
  8
0
 10
1.86556
 20
5.6314
 30
0.0
 40
0
 41
0
  0
VERTEX
  8
0
 10
1.85558
 20
5.63878
 30
0.0
 40
0
 41
0
  0
VERTEX
  8
0
 10
1.84907
 20
5.65093
 30
0.0
 40
0
 41
0
  0
VERTEX
  8
0
 10
1.8469
 20
5.66699
 30
0.0
 40
0
 41
0
  0
VERTEX
  8
0
 10
1.85493
 20
5.69629
 30
0.0
 40
0
 41
0
  0
VERTEX
  8
0
 10
1.87771
 20
5.70606
 30
0.0
 40
0
 41
0
  0
VERTEX
  8
0
 10
1.88986
 20
5.70389
 30
0.0
 40
0
 41
0
  0
VERTEX
  8
0
 10
1.89899
 20
5.69781
 30
0.0
 40
0
 41
0
  0
VERTEX
  8
0
 10
1.90462
 20
5.68739
 30
0.0
 40
0
 41
0
  0
VERTEX
  8
0
 10
1.90657
 20
5.67307
 30
0.0
 40
0
 41
0
  0
VERTEX
  8
0
 10
1.90657
 20
5.66656
 30
0.0
 40
0
 41
0
  0
VERTEX
  8
0
 10
1.86035
 20
5.66656
 30
0.0
 40
0
 41
0
  0
VERTEX
  8
0
 10
1.86187
 20
5.65354
 30
0.0
 40
0
 41
0
  0
VERTEX
  8
0
 10
1.866
 20
5.64442
 30
0.0
 40
0
 41
0
  0
VERTEX
  8
0
 10
1.87229
 20
5.63921
 30
0.0
 40
0
 41
0
  0
VERTEX
  8
0
 10
1.88118
 20
5.63769
 30
0.0
 40
0
 41
0
  0
VERTEX
  8
0
 10
1.88769
 20
5.63857
 30
0.0
 40
0
 41
0
  0
VERTEX
  8
0
 10
1.89333
 20
5.64074
 30
0.0
 40
0
 41
0
  0
VERTEX
  8
0
 10
1.89768
 20
5.64378
 30
0.0
 40
0
 41
0
  0
VERTEX
  8
0
 10
1.90093
 20
5.64746
 30
0.0
 40
0
 41
0
  0
VERTEX
  8
0
 10
1.90267
 20
5.64572
 30
0.0
 40
0
 41
0
  0
VERTEX
  8
0
 10
1.90354
 20
5.64268
 30
0.0
 40
0
 41
0
  0
VERTEX
  8
0
 10
1.90201
 20
5.63813
 30
0.0
 40
0
 41
0
  0
VERTEX
  8
0
 10
1.89746
 20
5.63357
 30
0.0
 40
0
 41
0
  0
VERTEX
  8
0
 10
1.88986
 20
5.63032
 30
0.0
 40
0
 41
0
  0
VERTEX
  8
0
 10
1.87924
 20
5.62901
 30
0.0
 40
0
 41
0
  0
SEQEND
 8
0
  0
POLYLINE
  8
0
 62
     0
 66
     1
 10
0
 20
0
 30
0.0
 70
     1
 40
0
 41
0
  0
VERTEX
  8
0
 10
1.97683
 20
5.70432
 30
0.0
 40
0
 41
0
  0
VERTEX
  8
0
 10
1.99072
 20
5.66331
 30
0.0
 40
0
 41
0
  0
VERTEX
  8
0
 10
1.99246
 20
5.65767
 30
0.0
 40
0
 41
0
  0
VERTEX
  8
0
 10
1.99397
 20
5.65201
 30
0.0
 40
0
 41
0
  0
VERTEX
  8
0
 10
1.9955
 20
5.64681
 30
0.0
 40
0
 41
0
  0
VERTEX
  8
0
 10
1.99658
 20
5.64247
 30
0.0
 40
0
 41
0
  0
VERTEX
  8
0
 10
1.99701
 20
5.64247
 30
0.0
 40
0
 41
0
  0
VERTEX
  8
0
 10
1.99897
 20
5.65093
 30
0.0
 40
0
 41
0
  0
VERTEX
  8
0
 10
2.00244
 20
5.66287
 30
0.0
 40
0
 41
0
  0
VERTEX
  8
0
 10
2.00939
 20
5.68522
 30
0.0
 40
0
 41
0
  0
VERTEX
  8
0
 10
2.01025
 20
5.68892
 30
0.0
 40
0
 41
0
  0
VERTEX
  8
0
 10
2.01069
 20
5.69217
 30
0.0
 40
0
 41
0
  0
VERTEX
  8
0
 10
2.00831
 20
5.69715
 30
0.0
 40
0
 41
0
  0
VERTEX
  8
0
 10
2.00136
 20
5.69889
 30
0.0
 40
0
 41
0
  0
VERTEX
  8
0
 10
2.00049
 20
5.69889
 30
0.0
 40
0
 41
0
  0
VERTEX
  8
0
 10
2.00049
 20
5.70475
 30
0.0
 40
0
 41
0
  0
VERTEX
  8
0
 10
2.03022
 20
5.70475
 30
0.0
 40
0
 41
0
  0
VERTEX
  8
0
 10
2.03022
 20
5.69889
 30
0.0
 40
0
 41
0
  0
VERTEX
  8
0
 10
2.02849
 20
5.69889
 30
0.0
 40
0
 41
0
  0
VERTEX
  8
0
 10
2.02479
 20
5.69846
 30
0.0
 40
0
 41
0
  0
VERTEX
  8
0
 10
2.02219
 20
5.69694
 30
0.0
 40
0
 41
0
  0
VERTEX
  8
0
 10
2.02001
 20
5.69368
 30
0.0
 40
0
 41
0
  0
VERTEX
  8
0
 10
2.01807
 20
5.68804
 30
0.0
 40
0
 41
0
  0
VERTEX
  8
0
 10
2.00006
 20
5.63032
 30
0.0
 40
0
 41
0
  0
VERTEX
  8
0
 10
1.98899
 20
5.63032
 30
0.0
 40
0
 41
0
  0
VERTEX
  8
0
 10
1.9725
 20
5.67914
 30
0.0
 40
0
 41
0
  0
VERTEX
  8
0
 10
1.96989
 20
5.68847
 30
0.0
 40
0
 41
0
  0
VERTEX
  8
0
 10
1.95036
 20
5.63032
 30
0.0
 40
0
 41
0
  0
VERTEX
  8
0
 10
1.93929
 20
5.63032
 30
0.0
 40
0
 41
0
  0
VERTEX
  8
0
 10
1.92106
 20
5.69151
 30
0.0
 40
0
 41
0
  0
VERTEX
  8
0
 10
1.91932
 20
5.69499
 30
0.0
 40
0
 41
0
  0
VERTEX
  8
0
 10
1.91737
 20
5.69738
 30
0.0
 40
0
 41
0
  0
VERTEX
  8
0
 10
1.91476
 20
5.69846
 30
0.0
 40
0
 41
0
  0
VERTEX
  8
0
 10
1.91129
 20
5.69889
 30
0.0
 40
0
 41
0
  0
VERTEX
  8
0
 10
1.91086
 20
5.69889
 30
0.0
 40
0
 41
0
  0
VERTEX
  8
0
 10
1.91086
 20
5.70475
 30
0.0
 40
0
 41
0
  0
VERTEX
  8
0
 10
1.94515
 20
5.70475
 30
0.0
 40
0
 41
0
  0
VERTEX
  8
0
 10
1.94515
 20
5.69889
 30
0.0
 40
0
 41
0
  0
VERTEX
  8
0
 10
1.94319
 20
5.69889
 30
0.0
 40
0
 41
0
  0
VERTEX
  8
0
 10
1.9369
 20
5.6976
 30
0.0
 40
0
 41
0
  0
VERTEX
  8
0
 10
1.93494
 20
5.69303
 30
0.0
 40
0
 41
0
  0
VERTEX
  8
0
 10
1.93517
 20
5.69021
 30
0.0
 40
0
 41
0
  0
VERTEX
  8
0
 10
1.93604
 20
5.68718
 30
0.0
 40
0
 41
0
  0
VERTEX
  8
0
 10
1.94254
 20
5.66374
 30
0.0
 40
0
 41
0
  0
VERTEX
  8
0
 10
1.94385
 20
5.65831
 30
0.0
 40
0
 41
0
  0
VERTEX
  8
0
 10
1.94536
 20
5.65224
 30
0.0
 40
0
 41
0
  0
VERTEX
  8
0
 10
1.94646
 20
5.64681
 30
0.0
 40
0
 41
0
  0
VERTEX
  8
0
 10
1.94754
 20
5.64247
 30
0.0
 40
0
 41
0
  0
VERTEX
  8
0
 10
1.94797
 20
5.64247
 30
0.0
 40
0
 41
0
  0
VERTEX
  8
0
 10
1.94862
 20
5.6466
 30
0.0
 40
0
 41
0
  0
VERTEX
  8
0
 10
1.95014
 20
5.65158
 30
0.0
 40
0
 41
0
  0
VERTEX
  8
0
 10
1.95188
 20
5.65701
 30
0.0
 40
0
 41
0
  0
VERTEX
  8
0
 10
1.95361
 20
5.66243
 30
0.0
 40
0
 41
0
  0
VERTEX
  8
0
 10
1.96793
 20
5.70432
 30
0.0
 40
0
 41
0
  0
VERTEX
  8
0
 10
1.97683
 20
5.70432
 30
0.0
 40
0
 41
0
  0
SEQEND
 8
0
  0
ENDSEC
  0
EOF
