  0
SECTION
  2
HEADER
  9
$ACADVER
  1
AC1009
  9
$EXTMIN
 10
0.0
 20
0.0
 30
0.0
  9
$EXTMAX
 10
1000.0
 20
1000.0
 30
0.0
  9
$FILLMODE
 70
 0
  9
$SPLFRAME
 70
 1
  0
ENDSEC
  0
SECTION
  2
TABLES
  0
TABLE
  2
LAYER
 70
1
  0
LAYER
  2
0
 70
     0
 62
     7
  6
CONTINUOUS
  0
ENDTAB
  0
ENDSEC
  0
SECTION
  2
ENTITIES
  0
POLYLINE
  8
0
 62
     0
 66
     1
 10
0
 20
0
 30
0.0
 40
0.0570212
 41
0.0570212
  0
VERTEX
  8
0
 10
0.000108507
 20
7.6256
 30
0.0
 40
0.000791961
 41
0.000791961
  0
VERTEX
  8
0
 10
0.756565
 20
7.6256
 30
0.0
 40
0.000791961
 41
0.000791961
  0
VERTEX
  8
0
 10
0.756565
 20
7.625
 30
0.0
 40
0.000791961
 41
0.000791961
  0
VERTEX
  8
0
 10
1.50396
 20
7.625
 30
0.0
 40
0.000791961
 41
0.000791961
  0
VERTEX
  8
0
 10
1.50396
 20
7.6256
 30
0.0
 40
0.000791961
 41
0.000791961
  0
VERTEX
  8
0
 10
2.26042
 20
7.6256
 30
0.0
 40
0.000791961
 41
0.000791961
  0
SEQEND
 8
0
  0
POLYLINE
  8
0
 62
     0
 66
     1
 10
0
 20
0
 30
0.0
 40
0.0569643
 41
0.0569643
  0
VERTEX
  8
0
 10
2.12571
 20
7.76031
 30
0.0
 40
0.000791171
 41
0.000791171
  0
VERTEX
  8
0
 10
2.12571
 20
7.23996
 30
0.0
 40
0.000791171
 41
0.000791171
  0
VERTEX
  8
0
 10
2.12511
 20
7.23996
 30
0.0
 40
0.000791171
 41
0.000791171
  0
VERTEX
  8
0
 10
2.12511
 20
6.72863
 30
0.0
 40
0.000791171
 41
0.000791171
  0
VERTEX
  8
0
 10
2.12571
 20
6.72863
 30
0.0
 40
0.000791171
 41
0.000791171
  0
VERTEX
  8
0
 10
2.12571
 20
6.20524
 30
0.0
 40
0.000791171
 41
0.000791171
  0
VERTEX
  8
0
 10
2.12511
 20
6.20524
 30
0.0
 40
0.000791171
 41
0.000791171
  0
VERTEX
  8
0
 10
2.12511
 20
5.6939
 30
0.0
 40
0.000791171
 41
0.000791171
  0
VERTEX
  8
0
 10
2.12571
 20
5.6939
 30
0.0
 40
0.000791171
 41
0.000791171
  0
VERTEX
  8
0
 10
2.12571
 20
5.17051
 30
0.0
 40
0.000791171
 41
0.000791171
  0
VERTEX
  8
0
 10
2.12511
 20
5.17051
 30
0.0
 40
0.000791171
 41
0.000791171
  0
VERTEX
  8
0
 10
2.12511
 20
4.65918
 30
0.0
 40
0.000791171
 41
0.000791171
  0
VERTEX
  8
0
 10
2.12571
 20
4.65918
 30
0.0
 40
0.000791171
 41
0.000791171
  0
VERTEX
  8
0
 10
2.12571
 20
4.13579
 30
0.0
 40
0.000791171
 41
0.000791171
  0
VERTEX
  8
0
 10
2.12511
 20
4.13579
 30
0.0
 40
0.000791171
 41
0.000791171
  0
VERTEX
  8
0
 10
2.12511
 20
3.62446
 30
0.0
 40
0.000791171
 41
0.000791171
  0
VERTEX
  8
0
 10
2.12571
 20
3.62446
 30
0.0
 40
0.000791171
 41
0.000791171
  0
VERTEX
  8
0
 10
2.12571
 20
3.10113
 30
0.0
 40
0.000791171
 41
0.000791171
  0
VERTEX
  8
0
 10
2.12511
 20
3.10113
 30
0.0
 40
0.000791171
 41
0.000791171
  0
VERTEX
  8
0
 10
2.12511
 20
2.58979
 30
0.0
 40
0.000791171
 41
0.000791171
  0
VERTEX
  8
0
 10
2.12571
 20
2.58979
 30
0.0
 40
0.000791171
 41
0.000791171
  0
VERTEX
  8
0
 10
2.12571
 20
2.0664
 30
0.0
 40
0.000791171
 41
0.000791171
  0
VERTEX
  8
0
 10
2.12511
 20
2.0664
 30
0.0
 40
0.000791171
 41
0.000791171
  0
VERTEX
  8
0
 10
2.12511
 20
1.55507
 30
0.0
 40
0.000791171
 41
0.000791171
  0
VERTEX
  8
0
 10
2.12571
 20
1.55507
 30
0.0
 40
0.000791171
 41
0.000791171
  0
VERTEX
  8
0
 10
2.12571
 20
1.03168
 30
0.0
 40
0.000791171
 41
0.000791171
  0
VERTEX
  8
0
 10
2.12511
 20
1.03168
 30
0.0
 40
0.000791171
 41
0.000791171
  0
VERTEX
  8
0
 10
2.12511
 20
0.520344
 30
0.0
 40
0.000791171
 41
0.000791171
  0
VERTEX
  8
0
 10
2.12571
 20
0.520344
 30
0.0
 40
0.000791171
 41
0.000791171
  0
VERTEX
  8
0
 10
2.12571
 20
-0
 30
0.0
 40
0.000791171
 41
0.000791171
  0
SEQEND
 8
0
  0
POLYLINE
  8
0
 62
     0
 66
     1
 10
0
 20
0
 30
0.0
 40
0.0570212
 41
0.0570212
  0
VERTEX
  8
0
 10
2.26042
 20
0.134657
 30
0.0
 40
0.000791961
 41
0.000791961
  0
VERTEX
  8
0
 10
1.50396
 20
0.134657
 30
0.0
 40
0.000791961
 41
0.000791961
  0
VERTEX
  8
0
 10
1.50396
 20
0.135308
 30
0.0
 40
0.000791961
 41
0.000791961
  0
VERTEX
  8
0
 10
0.756565
 20
0.135308
 30
0.0
 40
0.000791961
 41
0.000791961
  0
VERTEX
  8
0
 10
0.756565
 20
0.134657
 30
0.0
 40
0.000791961
 41
0.000791961
  0
VERTEX
  8
0
 10
0.000108507
 20
0.134657
 30
0.0
 40
0.000791961
 41
0.000791961
  0
SEQEND
 8
0
  0
POLYLINE
  8
0
 62
     0
 66
     1
 10
0
 20
0
 30
0.0
 40
0.0569643
 41
0.0569643
  0
VERTEX
  8
0
 10
0.134766
 20
-0
 30
0.0
 40
0.000791171
 41
0.000791171
  0
VERTEX
  8
0
 10
0.134766
 20
0.520344
 30
0.0
 40
0.000791171
 41
0.000791171
  0
VERTEX
  8
0
 10
0.135417
 20
0.520344
 30
0.0
 40
0.000791171
 41
0.000791171
  0
VERTEX
  8
0
 10
0.135417
 20
1.03168
 30
0.0
 40
0.000791171
 41
0.000791171
  0
VERTEX
  8
0
 10
0.134766
 20
1.03168
 30
0.0
 40
0.000791171
 41
0.000791171
  0
VERTEX
  8
0
 10
0.134766
 20
1.55507
 30
0.0
 40
0.000791171
 41
0.000791171
  0
VERTEX
  8
0
 10
0.135417
 20
1.55507
 30
0.0
 40
0.000791171
 41
0.000791171
  0
VERTEX
  8
0
 10
0.135417
 20
2.0664
 30
0.0
 40
0.000791171
 41
0.000791171
  0
VERTEX
  8
0
 10
0.134766
 20
2.0664
 30
0.0
 40
0.000791171
 41
0.000791171
  0
VERTEX
  8
0
 10
0.134766
 20
2.58979
 30
0.0
 40
0.000791171
 41
0.000791171
  0
VERTEX
  8
0
 10
0.135417
 20
2.58979
 30
0.0
 40
0.000791171
 41
0.000791171
  0
VERTEX
  8
0
 10
0.135417
 20
3.10113
 30
0.0
 40
0.000791171
 41
0.000791171
  0
VERTEX
  8
0
 10
0.134766
 20
3.10113
 30
0.0
 40
0.000791171
 41
0.000791171
  0
VERTEX
  8
0
 10
0.134766
 20
3.62446
 30
0.0
 40
0.000791171
 41
0.000791171
  0
VERTEX
  8
0
 10
0.135417
 20
3.62446
 30
0.0
 40
0.000791171
 41
0.000791171
  0
VERTEX
  8
0
 10
0.135417
 20
4.13579
 30
0.0
 40
0.000791171
 41
0.000791171
  0
VERTEX
  8
0
 10
0.134766
 20
4.13579
 30
0.0
 40
0.000791171
 41
0.000791171
  0
VERTEX
  8
0
 10
0.134766
 20
4.65918
 30
0.0
 40
0.000791171
 41
0.000791171
  0
VERTEX
  8
0
 10
0.135417
 20
4.65918
 30
0.0
 40
0.000791171
 41
0.000791171
  0
VERTEX
  8
0
 10
0.135417
 20
5.17051
 30
0.0
 40
0.000791171
 41
0.000791171
  0
VERTEX
  8
0
 10
0.134766
 20
5.17051
 30
0.0
 40
0.000791171
 41
0.000791171
  0
VERTEX
  8
0
 10
0.134766
 20
5.6939
 30
0.0
 40
0.000791171
 41
0.000791171
  0
VERTEX
  8
0
 10
0.135417
 20
5.6939
 30
0.0
 40
0.000791171
 41
0.000791171
  0
VERTEX
  8
0
 10
0.135417
 20
6.20524
 30
0.0
 40
0.000791171
 41
0.000791171
  0
VERTEX
  8
0
 10
0.134766
 20
6.20524
 30
0.0
 40
0.000791171
 41
0.000791171
  0
VERTEX
  8
0
 10
0.134766
 20
6.72863
 30
0.0
 40
0.000791171
 41
0.000791171
  0
VERTEX
  8
0
 10
0.135417
 20
6.72863
 30
0.0
 40
0.000791171
 41
0.000791171
  0
VERTEX
  8
0
 10
0.135417
 20
7.23996
 30
0.0
 40
0.000791171
 41
0.000791171
  0
VERTEX
  8
0
 10
0.134766
 20
7.23996
 30
0.0
 40
0.000791171
 41
0.000791171
  0
VERTEX
  8
0
 10
0.134766
 20
7.76031
 30
0.0
 40
0.000791171
 41
0.000791171
  0
SEQEND
 8
0
  0
POLYLINE
  8
0
 62
     0
 66
     1
 10
0
 20
0
 30
0.0
 70
     1
 40
0.732542
 41
0.732542
  0
VERTEX
  8
0
 10
1.28885
 20
6.44119
 30
0.0
 40
0.0101742
 41
0.0101742
  0
VERTEX
  8
0
 10
1.2851
 20
6.40451
 30
0.0
 40
0.0101742
 41
0.0101742
  0
VERTEX
  8
0
 10
1.27452
 20
6.37033
 30
0.0
 40
0.0101742
 41
0.0101742
  0
VERTEX
  8
0
 10
1.2577
 20
6.33942
 30
0.0
 40
0.0101742
 41
0.0101742
  0
VERTEX
  8
0
 10
1.23546
 20
6.31244
 30
0.0
 40
0.0101742
 41
0.0101742
  0
VERTEX
  8
0
 10
1.2085
 20
6.29025
 30
0.0
 40
0.0101742
 41
0.0101742
  0
VERTEX
  8
0
 10
1.17757
 20
6.27344
 30
0.0
 40
0.0101742
 41
0.0101742
  0
VERTEX
  8
0
 10
1.14339
 20
6.26286
 30
0.0
 40
0.0101742
 41
0.0101742
  0
VERTEX
  8
0
 10
1.10672
 20
6.25911
 30
0.0
 40
0.0101742
 41
0.0101742
  0
VERTEX
  8
0
 10
1.06999
 20
6.26286
 30
0.0
 40
0.0101742
 41
0.0101742
  0
VERTEX
  8
0
 10
1.03581
 20
6.27344
 30
0.0
 40
0.0101742
 41
0.0101742
  0
VERTEX
  8
0
 10
1.00488
 20
6.29025
 30
0.0
 40
0.0101742
 41
0.0101742
  0
VERTEX
  8
0
 10
0.977919
 20
6.31244
 30
0.0
 40
0.0101742
 41
0.0101742
  0
VERTEX
  8
0
 10
0.955729
 20
6.33942
 30
0.0
 40
0.0101742
 41
0.0101742
  0
VERTEX
  8
0
 10
0.938911
 20
6.37033
 30
0.0
 40
0.0101742
 41
0.0101742
  0
VERTEX
  8
0
 10
0.928331
 20
6.40451
 30
0.0
 40
0.0101742
 41
0.0101742
  0
VERTEX
  8
0
 10
0.924642
 20
6.44119
 30
0.0
 40
0.0101742
 41
0.0101742
  0
VERTEX
  8
0
 10
0.928331
 20
6.47792
 30
0.0
 40
0.0101742
 41
0.0101742
  0
VERTEX
  8
0
 10
0.938911
 20
6.5121
 30
0.0
 40
0.0101742
 41
0.0101742
  0
VERTEX
  8
0
 10
0.955729
 20
6.54303
 30
0.0
 40
0.0101742
 41
0.0101742
  0
VERTEX
  8
0
 10
0.977919
 20
6.56999
 30
0.0
 40
0.0101742
 41
0.0101742
  0
VERTEX
  8
0
 10
1.00488
 20
6.59224
 30
0.0
 40
0.0101742
 41
0.0101742
  0
VERTEX
  8
0
 10
1.03581
 20
6.60906
 30
0.0
 40
0.0101742
 41
0.0101742
  0
VERTEX
  8
0
 10
1.06999
 20
6.61963
 30
0.0
 40
0.0101742
 41
0.0101742
  0
VERTEX
  8
0
 10
1.10672
 20
6.62332
 30
0.0
 40
0.0101742
 41
0.0101742
  0
VERTEX
  8
0
 10
1.14339
 20
6.61963
 30
0.0
 40
0.0101742
 41
0.0101742
  0
VERTEX
  8
0
 10
1.17757
 20
6.60906
 30
0.0
 40
0.0101742
 41
0.0101742
  0
VERTEX
  8
0
 10
1.2085
 20
6.59224
 30
0.0
 40
0.0101742
 41
0.0101742
  0
VERTEX
  8
0
 10
1.23546
 20
6.56999
 30
0.0
 40
0.0101742
 41
0.0101742
  0
VERTEX
  8
0
 10
1.2577
 20
6.54303
 30
0.0
 40
0.0101742
 41
0.0101742
  0
VERTEX
  8
0
 10
1.27452
 20
6.5121
 30
0.0
 40
0.0101742
 41
0.0101742
  0
VERTEX
  8
0
 10
1.2851
 20
6.47792
 30
0.0
 40
0.0101742
 41
0.0101742
  0
VERTEX
  8
0
 10
1.28885
 20
6.44119
 30
0.0
 40
0.0101742
 41
0.0101742
  0
SEQEND
 8
0
  0
POLYLINE
  8
0
 62
     0
 66
     1
 10
0
 20
0
 30
0.0
 70
     1
 40
1.2209
 41
1.2209
  0
VERTEX
  8
0
 10
1.41026
 20
1.28385
 30
0.0
 40
0.0169569
 41
0.0169569
  0
VERTEX
  8
0
 10
1.38639
 20
1.16574
 30
0.0
 40
0.0169569
 41
0.0169569
  0
VERTEX
  8
0
 10
1.32134
 20
1.06928
 30
0.0
 40
0.0169569
 41
0.0169569
  0
VERTEX
  8
0
 10
1.22483
 20
1.00423
 30
0.0
 40
0.0169569
 41
0.0169569
  0
VERTEX
  8
0
 10
1.10672
 20
0.98036
 30
0.0
 40
0.0169569
 41
0.0169569
  0
VERTEX
  8
0
 10
0.988553
 20
1.00423
 30
0.0
 40
0.0169569
 41
0.0169569
  0
VERTEX
  8
0
 10
0.89209
 20
1.06928
 30
0.0
 40
0.0169569
 41
0.0169569
  0
VERTEX
  8
0
 10
0.82704
 20
1.16574
 30
0.0
 40
0.0169569
 41
0.0169569
  0
VERTEX
  8
0
 10
0.803222
 20
1.28385
 30
0.0
 40
0.0169569
 41
0.0169569
  0
VERTEX
  8
0
 10
0.82704
 20
1.40201
 30
0.0
 40
0.0169569
 41
0.0169569
  0
VERTEX
  8
0
 10
0.89209
 20
1.49849
 30
0.0
 40
0.0169569
 41
0.0169569
  0
VERTEX
  8
0
 10
0.988553
 20
1.56353
 30
0.0
 40
0.0169569
 41
0.0169569
  0
VERTEX
  8
0
 10
1.10672
 20
1.58735
 30
0.0
 40
0.0169569
 41
0.0169569
  0
VERTEX
  8
0
 10
1.22483
 20
1.56353
 30
0.0
 40
0.0169569
 41
0.0169569
  0
VERTEX
  8
0
 10
1.32134
 20
1.49849
 30
0.0
 40
0.0169569
 41
0.0169569
  0
VERTEX
  8
0
 10
1.38639
 20
1.40201
 30
0.0
 40
0.0169569
 41
0.0169569
  0
VERTEX
  8
0
 10
1.41026
 20
1.28385
 30
0.0
 40
0.0169569
 41
0.0169569
  0
SEQEND
 8
0
  0
POLYLINE
  8
0
 62
     0
 66
     1
 10
0
 20
0
 30
0.0
 70
     1
 40
0.777461
 41
0.777461
  0
VERTEX
  8
0
 10
1.2283
 20
5.44374
 30
0.0
 40
0.0107981
 41
0.0107981
  0
VERTEX
  8
0
 10
1.2187
 20
5.39643
 30
0.0
 40
0.0107981
 41
0.0107981
  0
VERTEX
  8
0
 10
1.19265
 20
5.35781
 30
0.0
 40
0.0107981
 41
0.0107981
  0
VERTEX
  8
0
 10
1.15402
 20
5.33176
 30
0.0
 40
0.0107981
 41
0.0107981
  0
VERTEX
  8
0
 10
1.10672
 20
5.32215
 30
0.0
 40
0.0107981
 41
0.0107981
  0
VERTEX
  8
0
 10
1.05941
 20
5.33176
 30
0.0
 40
0.0107981
 41
0.0107981
  0
VERTEX
  8
0
 10
1.02078
 20
5.35781
 30
0.0
 40
0.0107981
 41
0.0107981
  0
VERTEX
  8
0
 10
0.994738
 20
5.39643
 30
0.0
 40
0.0107981
 41
0.0107981
  0
VERTEX
  8
0
 10
0.985189
 20
5.44374
 30
0.0
 40
0.0107981
 41
0.0107981
  0
VERTEX
  8
0
 10
0.994738
 20
5.4911
 30
0.0
 40
0.0107981
 41
0.0107981
  0
VERTEX
  8
0
 10
1.02078
 20
5.52974
 30
0.0
 40
0.0107981
 41
0.0107981
  0
VERTEX
  8
0
 10
1.05941
 20
5.55578
 30
0.0
 40
0.0107981
 41
0.0107981
  0
VERTEX
  8
0
 10
1.10672
 20
5.56532
 30
0.0
 40
0.0107981
 41
0.0107981
  0
VERTEX
  8
0
 10
1.15402
 20
5.55578
 30
0.0
 40
0.0107981
 41
0.0107981
  0
VERTEX
  8
0
 10
1.19265
 20
5.52974
 30
0.0
 40
0.0107981
 41
0.0107981
  0
VERTEX
  8
0
 10
1.2187
 20
5.4911
 30
0.0
 40
0.0107981
 41
0.0107981
  0
VERTEX
  8
0
 10
1.2283
 20
5.44374
 30
0.0
 40
0.0107981
 41
0.0107981
  0
SEQEND
 8
0
  0
POLYLINE
  8
0
 62
     0
 66
     1
 10
0
 20
0
 30
0.0
 70
     1
 40
0.777461
 41
0.777461
  0
VERTEX
  8
0
 10
1.2283
 20
4.41456
 30
0.0
 40
0.0107981
 41
0.0107981
  0
VERTEX
  8
0
 10
1.2187
 20
4.36724
 30
0.0
 40
0.0107981
 41
0.0107981
  0
VERTEX
  8
0
 10
1.19265
 20
4.32861
 30
0.0
 40
0.0107981
 41
0.0107981
  0
VERTEX
  8
0
 10
1.15402
 20
4.30257
 30
0.0
 40
0.0107981
 41
0.0107981
  0
VERTEX
  8
0
 10
1.10672
 20
4.29297
 30
0.0
 40
0.0107981
 41
0.0107981
  0
VERTEX
  8
0
 10
1.05941
 20
4.30257
 30
0.0
 40
0.0107981
 41
0.0107981
  0
VERTEX
  8
0
 10
1.02078
 20
4.32861
 30
0.0
 40
0.0107981
 41
0.0107981
  0
VERTEX
  8
0
 10
0.994738
 20
4.36724
 30
0.0
 40
0.0107981
 41
0.0107981
  0
VERTEX
  8
0
 10
0.985189
 20
4.41456
 30
0.0
 40
0.0107981
 41
0.0107981
  0
VERTEX
  8
0
 10
0.994738
 20
4.46186
 30
0.0
 40
0.0107981
 41
0.0107981
  0
VERTEX
  8
0
 10
1.02078
 20
4.50049
 30
0.0
 40
0.0107981
 41
0.0107981
  0
VERTEX
  8
0
 10
1.05941
 20
4.52653
 30
0.0
 40
0.0107981
 41
0.0107981
  0
VERTEX
  8
0
 10
1.10672
 20
4.53608
 30
0.0
 40
0.0107981
 41
0.0107981
  0
VERTEX
  8
0
 10
1.15402
 20
4.52653
 30
0.0
 40
0.0107981
 41
0.0107981
  0
VERTEX
  8
0
 10
1.19265
 20
4.50049
 30
0.0
 40
0.0107981
 41
0.0107981
  0
VERTEX
  8
0
 10
1.2187
 20
4.46186
 30
0.0
 40
0.0107981
 41
0.0107981
  0
VERTEX
  8
0
 10
1.2283
 20
4.41456
 30
0.0
 40
0.0107981
 41
0.0107981
  0
SEQEND
 8
0
  0
POLYLINE
  8
0
 62
     0
 66
     1
 10
0
 20
0
 30
0.0
 70
     1
 40
0.777461
 41
0.777461
  0
VERTEX
  8
0
 10
1.2283
 20
3.36664
 30
0.0
 40
0.0107981
 41
0.0107981
  0
VERTEX
  8
0
 10
1.2187
 20
3.31933
 30
0.0
 40
0.0107981
 41
0.0107981
  0
VERTEX
  8
0
 10
1.19265
 20
3.28071
 30
0.0
 40
0.0107981
 41
0.0107981
  0
VERTEX
  8
0
 10
1.15402
 20
3.25467
 30
0.0
 40
0.0107981
 41
0.0107981
  0
VERTEX
  8
0
 10
1.10672
 20
3.24507
 30
0.0
 40
0.0107981
 41
0.0107981
  0
VERTEX
  8
0
 10
1.05941
 20
3.25467
 30
0.0
 40
0.0107981
 41
0.0107981
  0
VERTEX
  8
0
 10
1.02078
 20
3.28071
 30
0.0
 40
0.0107981
 41
0.0107981
  0
VERTEX
  8
0
 10
0.994738
 20
3.31933
 30
0.0
 40
0.0107981
 41
0.0107981
  0
VERTEX
  8
0
 10
0.985189
 20
3.36664
 30
0.0
 40
0.0107981
 41
0.0107981
  0
VERTEX
  8
0
 10
0.994738
 20
3.41396
 30
0.0
 40
0.0107981
 41
0.0107981
  0
VERTEX
  8
0
 10
1.02078
 20
3.45258
 30
0.0
 40
0.0107981
 41
0.0107981
  0
VERTEX
  8
0
 10
1.05941
 20
3.47863
 30
0.0
 40
0.0107981
 41
0.0107981
  0
VERTEX
  8
0
 10
1.10672
 20
3.48817
 30
0.0
 40
0.0107981
 41
0.0107981
  0
VERTEX
  8
0
 10
1.15402
 20
3.47863
 30
0.0
 40
0.0107981
 41
0.0107981
  0
VERTEX
  8
0
 10
1.19265
 20
3.45258
 30
0.0
 40
0.0107981
 41
0.0107981
  0
VERTEX
  8
0
 10
1.2187
 20
3.41396
 30
0.0
 40
0.0107981
 41
0.0107981
  0
VERTEX
  8
0
 10
1.2283
 20
3.36664
 30
0.0
 40
0.0107981
 41
0.0107981
  0
SEQEND
 8
0
  0
ENDSEC
  0
EOF
